<mxfile host="app.diagrams.net" agent="Mozilla/5.0 (Windows NT 10.0; Win64; x64) AppleWebKit/537.36 (KHTML, like Gecko) Chrome/140.0.0.0 Safari/537.36" version="28.2.5" pages="6">
  <diagram id="XADf8Lb3jbEPKXo0X23S" name="Page-1">
    <mxGraphModel dx="1031" dy="1001" grid="0" gridSize="10" guides="1" tooltips="1" connect="1" arrows="1" fold="1" page="0" pageScale="1" pageWidth="850" pageHeight="1100" math="0" shadow="0">
      <root>
        <mxCell id="0" />
        <mxCell id="1" parent="0" />
        <UserObject label="" plantUmlData="{&quot;data&quot;:&quot;@startuml SmartClaims_Architecture\n\n!define RECTANGLE class\n\nskinparam rectangle {\n    BackgroundColor&lt;&lt;frontend&gt;&gt; LightBlue\n    BackgroundColor&lt;&lt;backend&gt;&gt; LightGreen\n    BackgroundColor&lt;&lt;data&gt;&gt; LightYellow\n    BackgroundColor&lt;&lt;external&gt;&gt; LightGray\n    BorderColor Black\n    FontSize 12\n}\n\npackage \&quot;Presentation Layer\&quot; &lt;&lt;frontend&gt;&gt; {\n    rectangle \&quot;React Frontend\&quot; as react {\n        rectangle \&quot;Claims Queue UI\&quot; as queue\n        rectangle \&quot;Claim Detail View\&quot; as detail\n        rectangle \&quot;Fraud Review UI\&quot; as fraud_ui\n        rectangle \&quot;Admin Dashboard\&quot; as admin_ui\n    }\n}\n\npackage \&quot;Application Layer\&quot; &lt;&lt;backend&gt;&gt; {\n    rectangle \&quot;Flask API Server\&quot; as flask {\n        rectangle \&quot;Authentication\\n&amp; Authorization\&quot; as auth\n        rectangle \&quot;Document Ingestion\&quot; as ingest\n        rectangle \&quot;Claims Triage\&quot; as triage\n        rectangle \&quot;Fraud Detection\&quot; as fraud_detect\n        rectangle \&quot;Reserve Estimation\&quot; as reserve\n    }\n    \n    rectangle \&quot;ML Services\&quot; as ml {\n        rectangle \&quot;OCR Engine\\n(Tesseract/EasyOCR)\&quot; as ocr\n        rectangle \&quot;NLP Extraction\\n(spaCy)\&quot; as nlp\n        rectangle \&quot;XGBoost Models\&quot; as xgboost\n        rectangle \&quot;SHAP Explainability\&quot; as shap\n    }\n}\n\npackage \&quot;Data Layer\&quot; &lt;&lt;data&gt;&gt; {\n    database \&quot;PostgreSQL\&quot; as db {\n        rectangle \&quot;Claims Data\&quot; as claims_db\n        rectangle \&quot;Users &amp; Auth\&quot; as users_db\n        rectangle \&quot;Fraud Alerts\&quot; as fraud_db\n        rectangle \&quot;Reserves &amp; Feedback\&quot; as reserve_db\n    }\n    \n    rectangle \&quot;File Storage\&quot; as storage {\n        rectangle \&quot;Uploaded Documents\&quot; as docs\n        rectangle \&quot;Model Checkpoints\&quot; as models\n    }\n}\n\npackage \&quot;External Services\&quot; &lt;&lt;external&gt;&gt; {\n    rectangle \&quot;Email Service\\n(SMTP)\&quot; as email\n    rectangle \&quot;Mobile Money API\\n(Future)\&quot; as mpesa\n}\n\n&#39; Connections\nreact --&gt; flask : \&quot;HTTPS/REST API\&quot;\nflask --&gt; ml : \&quot;Internal API\&quot;\nflask --&gt; db : \&quot;SQL Queries\&quot;\nflask --&gt; storage : \&quot;File I/O\&quot;\nflask --&gt; email : \&quot;SMTP\&quot;\nml --&gt; ocr\nml --&gt; nlp\nml --&gt; xgboost\nml --&gt; shap\n\nnote right of react\n  **Frontend (React)**\n  - User interface\n  - Real-time updates\n  - Responsive design\nend note\n\nnote right of flask\n  **Backend (Flask + Python)**\n  - Business logic\n  - API endpoints\n  - Request routing\n  - Authentication\nend note\n\nnote right of db\n  **Database (PostgreSQL)**\n  - Structured data storage\n  - ACID transactions\n  - Query optimization\nend note\n\n@enduml&quot;,&quot;format&quot;:&quot;svg&quot;}" id="WU6ss_NAtq0U_Tb5vTvx-2">
          <mxCell style="shape=image;noLabel=1;verticalAlign=top;aspect=fixed;imageAspect=0;image=data:image/svg+xml,PHN2ZyB4bWxucz0iaHR0cDovL3d3dy53My5vcmcvMjAwMC9zdmciIHhtbG5zOnhsaW5rPSJodHRwOi8vd3d3LnczLm9yZy8xOTk5L3hsaW5rIiBjb250ZW50U3R5bGVUeXBlPSJ0ZXh0L2NzcyIgZGF0YS1kaWFncmFtLXR5cGU9IkRFU0NSSVBUSU9OIiBoZWlnaHQ9IjgwNnB4IiBwcmVzZXJ2ZUFzcGVjdFJhdGlvPSJub25lIiBzdHlsZT0id2lkdGg6Mjk0NnB4O2hlaWdodDo4MDZweDtiYWNrZ3JvdW5kOiNGRkZGRkY7IiB2ZXJzaW9uPSIxLjEiIHZpZXdCb3g9IjAgMCAyOTQ2IDgwNiIgd2lkdGg9IjI5NDZweCIgem9vbUFuZFBhbj0ibWFnbmlmeSI+PGRlZnMvPjxnPjwhLS1jbHVzdGVyIFByZXNlbnRhdGlvbiBMYXllci0tPjxnIGNsYXNzPSJjbHVzdGVyIiBkYXRhLWVudGl0eT0iUHJlc2VudGF0aW9uIExheWVyIiBkYXRhLXNvdXJjZS1saW5lPSIxMiIgZGF0YS11aWQ9ImVudDAwMDIiIGlkPSJjbHVzdGVyX1ByZXNlbnRhdGlvbiBMYXllciI+PHBhdGggZD0iTTguNSw2IEwxMzUuNSw2IEEzLjc1LDMuNzUgMCAwIDEgMTM4LDguNSBMMTQ1LDI2Ljk4NDQgTDQwMS41LDI2Ljk4NDQgQTIuNSwyLjUgMCAwIDEgNDA0LDI5LjQ4NDQgTDQwNCw0MTUuNSBBMi41LDIuNSAwIDAgMSA0MDEuNSw0MTggTDguNSw0MTggQTIuNSwyLjUgMCAwIDEgNiw0MTUuNSBMNiw4LjUgQTIuNSwyLjUgMCAwIDEgOC41LDYiIGZpbGw9Im5vbmUiIHN0eWxlPSJzdHJva2U6IzAwMDAwMDtzdHJva2Utd2lkdGg6MS41OyIvPjxsaW5lIHN0eWxlPSJzdHJva2U6IzAwMDAwMDtzdHJva2Utd2lkdGg6MS41OyIgeDE9IjYiIHgyPSIxNDUiIHkxPSIyNi45ODQ0IiB5Mj0iMjYuOTg0NCIvPjx0ZXh0IGZpbGw9IiMwMDAwMDAiIGZvbnQtZmFtaWx5PSJzYW5zLXNlcmlmIiBmb250LXNpemU9IjE0IiBmb250LXdlaWdodD0iYm9sZCIgbGVuZ3RoQWRqdXN0PSJzcGFjaW5nIiB0ZXh0TGVuZ3RoPSIxMjYiIHg9IjEwIiB5PSIyMS4yMzQ0Ij5QcmVzZW50YXRpb24gTGF5ZXI8L3RleHQ+PHRleHQgZmlsbD0iIzAwMDAwMCIgZm9udC1mYW1pbHk9InNhbnMtc2VyaWYiIGZvbnQtc2l6ZT0iMTQiIGZvbnQtc3R5bGU9Iml0YWxpYyIgbGVuZ3RoQWRqdXN0PSJzcGFjaW5nIiB0ZXh0TGVuZ3RoPSI3MCIgeD0iMTc0IiB5PSI0Mi4yMTg4Ij4mIzE3MTtmcm9udGVuZCYjMTg3OzwvdGV4dD48L2c+PCEtLWNsdXN0ZXIgcmVhY3QtLT48ZyBjbGFzcz0iY2x1c3RlciIgZGF0YS1lbnRpdHk9InJlYWN0IiBkYXRhLXNvdXJjZS1saW5lPSIxMyIgZGF0YS11aWQ9ImVudDAwMDMiIGlkPSJjbHVzdGVyX3JlYWN0Ij48cmVjdCBmaWxsPSJub25lIiBoZWlnaHQ9IjMxNiIgcng9IjIuNSIgcnk9IjIuNSIgc3R5bGU9InN0cm9rZTojMDAwMDAwO3N0cm9rZS13aWR0aDoxOyIgd2lkdGg9IjMzNCIgeD0iMzgiIHk9IjcwIi8+PHRleHQgZmlsbD0iIzAwMDAwMCIgZm9udC1mYW1pbHk9InNhbnMtc2VyaWYiIGZvbnQtc2l6ZT0iMTIiIGZvbnQtd2VpZ2h0PSJib2xkIiBsZW5ndGhBZGp1c3Q9InNwYWNpbmciIHRleHRMZW5ndGg9Ijg0IiB4PSIxNjMiIHk9IjgzLjM0MzgiPlJlYWN0IEZyb250ZW5kPC90ZXh0PjwvZz48IS0tY2x1c3RlciBBcHBsaWNhdGlvbiBMYXllci0tPjxnIGNsYXNzPSJjbHVzdGVyIiBkYXRhLWVudGl0eT0iQXBwbGljYXRpb24gTGF5ZXIiIGRhdGEtc291cmNlLWxpbmU9IjIxIiBkYXRhLXVpZD0iZW50MDAwOCIgaWQ9ImNsdXN0ZXJfQXBwbGljYXRpb24gTGF5ZXIiPjxwYXRoIGQ9Ik00MzAuNSwyMTkuNSBMNTUwLjUsMjE5LjUgQTMuNzUsMy43NSAwIDAgMSA1NTMsMjIyIEw1NjAsMjQwLjQ4NDQgTDE2MzEuNSwyNDAuNDg0NCBBMi41LDIuNSAwIDAgMSAxNjM0LDI0Mi45ODQ0IEwxNjM0LDc5Ni41IEEyLjUsMi41IDAgMCAxIDE2MzEuNSw3OTkgTDQzMC41LDc5OSBBMi41LDIuNSAwIDAgMSA0MjgsNzk2LjUgTDQyOCwyMjIgQTIuNSwyLjUgMCAwIDEgNDMwLjUsMjE5LjUiIGZpbGw9Im5vbmUiIHN0eWxlPSJzdHJva2U6IzAwMDAwMDtzdHJva2Utd2lkdGg6MS41OyIvPjxsaW5lIHN0eWxlPSJzdHJva2U6IzAwMDAwMDtzdHJva2Utd2lkdGg6MS41OyIgeDE9IjQyOCIgeDI9IjU2MCIgeTE9IjI0MC40ODQ0IiB5Mj0iMjQwLjQ4NDQiLz48dGV4dCBmaWxsPSIjMDAwMDAwIiBmb250LWZhbWlseT0ic2Fucy1zZXJpZiIgZm9udC1zaXplPSIxNCIgZm9udC13ZWlnaHQ9ImJvbGQiIGxlbmd0aEFkanVzdD0ic3BhY2luZyIgdGV4dExlbmd0aD0iMTE5IiB4PSI0MzIiIHk9IjIzNC43MzQ0Ij5BcHBsaWNhdGlvbiBMYXllcjwvdGV4dD48dGV4dCBmaWxsPSIjMDAwMDAwIiBmb250LWZhbWlseT0ic2Fucy1zZXJpZiIgZm9udC1zaXplPSIxNCIgZm9udC1zdHlsZT0iaXRhbGljIiBsZW5ndGhBZGp1c3Q9InNwYWNpbmciIHRleHRMZW5ndGg9IjYzIiB4PSIxMDAzLjUiIHk9IjI1NS43MTg4Ij4mIzE3MTtiYWNrZW5kJiMxODc7PC90ZXh0PjwvZz48IS0tY2x1c3RlciBmbGFzay0tPjxnIGNsYXNzPSJjbHVzdGVyIiBkYXRhLWVudGl0eT0iZmxhc2siIGRhdGEtc291cmNlLWxpbmU9IjIyIiBkYXRhLXVpZD0iZW50MDAwOSIgaWQ9ImNsdXN0ZXJfZmxhc2siPjxyZWN0IGZpbGw9Im5vbmUiIGhlaWdodD0iMzU4LjUiIHJ4PSIyLjUiIHJ5PSIyLjUiIHN0eWxlPSJzdHJva2U6IzAwMDAwMDtzdHJva2Utd2lkdGg6MTsiIHdpZHRoPSI0NzMiIHg9IjQ2MCIgeT0iMjgzLjUiLz48dGV4dCBmaWxsPSIjMDAwMDAwIiBmb250LWZhbWlseT0ic2Fucy1zZXJpZiIgZm9udC1zaXplPSIxMiIgZm9udC13ZWlnaHQ9ImJvbGQiIGxlbmd0aEFkanVzdD0ic3BhY2luZyIgdGV4dExlbmd0aD0iOTYiIHg9IjY0OC41IiB5PSIyOTYuODQzOCI+Rmxhc2sgQVBJIFNlcnZlcjwvdGV4dD48L2c+PCEtLWNsdXN0ZXIgbWwtLT48ZyBjbGFzcz0iY2x1c3RlciIgZGF0YS1lbnRpdHk9Im1sIiBkYXRhLXNvdXJjZS1saW5lPSIzMCIgZGF0YS11aWQ9ImVudDAwMTUiIGlkPSJjbHVzdGVyX21sIj48cmVjdCBmaWxsPSJub25lIiBoZWlnaHQ9IjE4OC44NiIgcng9IjIuNSIgcnk9IjIuNSIgc3R5bGU9InN0cm9rZTojMDAwMDAwO3N0cm9rZS13aWR0aDoxOyIgd2lkdGg9IjYyOSIgeD0iOTczIiB5PSI1NzguMTQiLz48dGV4dCBmaWxsPSIjMDAwMDAwIiBmb250LWZhbWlseT0ic2Fucy1zZXJpZiIgZm9udC1zaXplPSIxMiIgZm9udC13ZWlnaHQ9ImJvbGQiIGxlbmd0aEFkanVzdD0ic3BhY2luZyIgdGV4dExlbmd0aD0iNjYiIHg9IjEyNTQuNSIgeT0iNTkxLjQ4MzgiPk1MIFNlcnZpY2VzPC90ZXh0PjwvZz48IS0tY2x1c3RlciBEYXRhIExheWVyLS0+PGcgY2xhc3M9ImNsdXN0ZXIiIGRhdGEtZW50aXR5PSJEYXRhIExheWVyIiBkYXRhLXNvdXJjZS1saW5lPSIzOCIgZGF0YS11aWQ9ImVudDAwMjAiIGlkPSJjbHVzdGVyX0RhdGEgTGF5ZXIiPjxwYXRoIGQ9Ik0xNjYwLjUsNDY1IEwxNzMxLjUsNDY1IEEzLjc1LDMuNzUgMCAwIDEgMTczNCw0NjcuNSBMMTc0MSw0ODUuOTg0NCBMMjQyOC41LDQ4NS45ODQ0IEEyLjUsMi41IDAgMCAxIDI0MzEsNDg4LjQ4NDQgTDI0MzEsNzkwIEEyLjUsMi41IDAgMCAxIDI0MjguNSw3OTIuNSBMMTY2MC41LDc5Mi41IEEyLjUsMi41IDAgMCAxIDE2NTgsNzkwIEwxNjU4LDQ2Ny41IEEyLjUsMi41IDAgMCAxIDE2NjAuNSw0NjUiIGZpbGw9Im5vbmUiIHN0eWxlPSJzdHJva2U6IzAwMDAwMDtzdHJva2Utd2lkdGg6MS41OyIvPjxsaW5lIHN0eWxlPSJzdHJva2U6IzAwMDAwMDtzdHJva2Utd2lkdGg6MS41OyIgeDE9IjE2NTgiIHgyPSIxNzQxIiB5MT0iNDg1Ljk4NDQiIHkyPSI0ODUuOTg0NCIvPjx0ZXh0IGZpbGw9IiMwMDAwMDAiIGZvbnQtZmFtaWx5PSJzYW5zLXNlcmlmIiBmb250LXNpemU9IjE0IiBmb250LXdlaWdodD0iYm9sZCIgbGVuZ3RoQWRqdXN0PSJzcGFjaW5nIiB0ZXh0TGVuZ3RoPSI3MCIgeD0iMTY2MiIgeT0iNDgwLjIzNDQiPkRhdGEgTGF5ZXI8L3RleHQ+PHRleHQgZmlsbD0iIzAwMDAwMCIgZm9udC1mYW1pbHk9InNhbnMtc2VyaWYiIGZvbnQtc2l6ZT0iMTQiIGZvbnQtc3R5bGU9Iml0YWxpYyIgbGVuZ3RoQWRqdXN0PSJzcGFjaW5nIiB0ZXh0TGVuZ3RoPSI0MiIgeD0iMjAyNy41IiB5PSI1MDEuMjE4OCI+JiMxNzE7ZGF0YSYjMTg3OzwvdGV4dD48L2c+PCEtLWNsdXN0ZXIgZGItLT48ZyBjbGFzcz0iY2x1c3RlciIgZGF0YS1lbnRpdHk9ImRiIiBkYXRhLXNvdXJjZS1saW5lPSIzOSIgZGF0YS11aWQ9ImVudDAwMjEiIGlkPSJjbHVzdGVyX2RiIj48cGF0aCBkPSJNMTY5MCw1MzkgQzE2OTAsNTI5IDE4NDguNSw1MjkgMTg0OC41LDUyOSBDMTg0OC41LDUyOSAyMDA3LDUyOSAyMDA3LDUzOSBMMjAwNyw3NTAuNSBDMjAwNyw3NjAuNSAxODQ4LjUsNzYwLjUgMTg0OC41LDc2MC41IEMxODQ4LjUsNzYwLjUgMTY5MCw3NjAuNSAxNjkwLDc1MC41IEwxNjkwLDUzOSIgZmlsbD0ibm9uZSIgc3R5bGU9InN0cm9rZTojMTgxODE4O3N0cm9rZS13aWR0aDoxOyIvPjxwYXRoIGQ9Ik0xNjkwLDUzOSBDMTY5MCw1NDkgMTg0OC41LDU0OSAxODQ4LjUsNTQ5IEMxODQ4LjUsNTQ5IDIwMDcsNTQ5IDIwMDcsNTM5IiBmaWxsPSJub25lIiBzdHlsZT0ic3Ryb2tlOiMxODE4MTg7c3Ryb2tlLXdpZHRoOjE7Ii8+PHRleHQgZmlsbD0iIzAwMDAwMCIgZm9udC1mYW1pbHk9InNhbnMtc2VyaWYiIGZvbnQtc2l6ZT0iMTQiIGZvbnQtd2VpZ2h0PSJib2xkIiBsZW5ndGhBZGp1c3Q9InNwYWNpbmciIHRleHRMZW5ndGg9IjcwIiB4PSIxODEzLjUiIHk9IjU2NC4yMzQ0Ij5Qb3N0Z3JlU1FMPC90ZXh0PjwvZz48IS0tY2x1c3RlciBzdG9yYWdlLS0+PGcgY2xhc3M9ImNsdXN0ZXIiIGRhdGEtZW50aXR5PSJzdG9yYWdlIiBkYXRhLXNvdXJjZS1saW5lPSI0NiIgZGF0YS11aWQ9ImVudDAwMjYiIGlkPSJjbHVzdGVyX3N0b3JhZ2UiPjxyZWN0IGZpbGw9Im5vbmUiIGhlaWdodD0iOTYiIHJ4PSIyLjUiIHJ5PSIyLjUiIHN0eWxlPSJzdHJva2U6IzAwMDAwMDtzdHJva2Utd2lkdGg6MTsiIHdpZHRoPSIzNTIiIHg9IjIwNDciIHk9IjU0NiIvPjx0ZXh0IGZpbGw9IiMwMDAwMDAiIGZvbnQtZmFtaWx5PSJzYW5zLXNlcmlmIiBmb250LXNpemU9IjEyIiBmb250LXdlaWdodD0iYm9sZCIgbGVuZ3RoQWRqdXN0PSJzcGFjaW5nIiB0ZXh0TGVuZ3RoPSI3MiIgeD0iMjE4NyIgeT0iNTU5LjM0MzgiPkZpbGUgU3RvcmFnZTwvdGV4dD48L2c+PCEtLWNsdXN0ZXIgRXh0ZXJuYWwgU2VydmljZXMtLT48ZyBjbGFzcz0iY2x1c3RlciIgZGF0YS1lbnRpdHk9IkV4dGVybmFsIFNlcnZpY2VzIiBkYXRhLXNvdXJjZS1saW5lPSI1MiIgZGF0YS11aWQ9ImVudDAwMjkiIGlkPSJjbHVzdGVyX0V4dGVybmFsIFNlcnZpY2VzIj48cGF0aCBkPSJNMjQ1Ny41LDUzMC41IEwyNTc3LjUsNTMwLjUgQTMuNzUsMy43NSAwIDAgMSAyNTgwLDUzMyBMMjU4Nyw1NTEuNDg0NCBMMjczMy41LDU1MS40ODQ0IEEyLjUsMi41IDAgMCAxIDI3MzYsNTUzLjk4NDQgTDI3MzYsNjM4IEEyLjUsMi41IDAgMCAxIDI3MzMuNSw2NDAuNSBMMjQ1Ny41LDY0MC41IEEyLjUsMi41IDAgMCAxIDI0NTUsNjM4IEwyNDU1LDUzMyBBMi41LDIuNSAwIDAgMSAyNDU3LjUsNTMwLjUiIGZpbGw9Im5vbmUiIHN0eWxlPSJzdHJva2U6IzAwMDAwMDtzdHJva2Utd2lkdGg6MS41OyIvPjxsaW5lIHN0eWxlPSJzdHJva2U6IzAwMDAwMDtzdHJva2Utd2lkdGg6MS41OyIgeDE9IjI0NTUiIHgyPSIyNTg3IiB5MT0iNTUxLjQ4NDQiIHkyPSI1NTEuNDg0NCIvPjx0ZXh0IGZpbGw9IiMwMDAwMDAiIGZvbnQtZmFtaWx5PSJzYW5zLXNlcmlmIiBmb250LXNpemU9IjE0IiBmb250LXdlaWdodD0iYm9sZCIgbGVuZ3RoQWRqdXN0PSJzcGFjaW5nIiB0ZXh0TGVuZ3RoPSIxMTkiIHg9IjI0NTkiIHk9IjU0NS43MzQ0Ij5FeHRlcm5hbCBTZXJ2aWNlczwvdGV4dD48dGV4dCBmaWxsPSIjMDAwMDAwIiBmb250LWZhbWlseT0ic2Fucy1zZXJpZiIgZm9udC1zaXplPSIxNCIgZm9udC1zdHlsZT0iaXRhbGljIiBsZW5ndGhBZGp1c3Q9InNwYWNpbmciIHRleHRMZW5ndGg9IjcwIiB4PSIyNTY0LjUiIHk9IjU2Ni43MTg4Ij4mIzE3MTtleHRlcm5hbCYjMTg3OzwvdGV4dD48L2c+PCEtLWVudGl0eSBxdWV1ZS0tPjxnIGNsYXNzPSJlbnRpdHkiIGRhdGEtZW50aXR5PSJxdWV1ZSIgZGF0YS1zb3VyY2UtbGluZT0iMTQiIGRhdGEtdWlkPSJlbnQwMDA0IiBpZD0iZW50aXR5X3F1ZXVlIj48cmVjdCBmaWxsPSIjRjFGMUYxIiBoZWlnaHQ9IjMyLjg0MzgiIHJ4PSIyLjUiIHJ5PSIyLjUiIHN0eWxlPSJzdHJva2U6IzAwMDAwMDtzdHJva2Utd2lkdGg6MC41OyIgd2lkdGg9IjExMCIgeD0iNjIiIHk9IjEwOSIvPjx0ZXh0IGZpbGw9IiMwMDAwMDAiIGZvbnQtZmFtaWx5PSJzYW5zLXNlcmlmIiBmb250LXNpemU9IjEyIiBsZW5ndGhBZGp1c3Q9InNwYWNpbmciIHRleHRMZW5ndGg9IjkwIiB4PSI3MiIgeT0iMTMwLjM0MzgiPkNsYWltcyBRdWV1ZSBVSTwvdGV4dD48L2c+PCEtLWVudGl0eSBkZXRhaWwtLT48ZyBjbGFzcz0iZW50aXR5IiBkYXRhLWVudGl0eT0iZGV0YWlsIiBkYXRhLXNvdXJjZS1saW5lPSIxNSIgZGF0YS11aWQ9ImVudDAwMDUiIGlkPSJlbnRpdHlfZGV0YWlsIj48cmVjdCBmaWxsPSIjRjFGMUYxIiBoZWlnaHQ9IjMyLjg0MzgiIHJ4PSIyLjUiIHJ5PSIyLjUiIHN0eWxlPSJzdHJva2U6IzAwMDAwMDtzdHJva2Utd2lkdGg6MC41OyIgd2lkdGg9IjEyMiIgeD0iMjA3IiB5PSIxMDkiLz48dGV4dCBmaWxsPSIjMDAwMDAwIiBmb250LWZhbWlseT0ic2Fucy1zZXJpZiIgZm9udC1zaXplPSIxMiIgbGVuZ3RoQWRqdXN0PSJzcGFjaW5nIiB0ZXh0TGVuZ3RoPSIxMDIiIHg9IjIxNyIgeT0iMTMwLjM0MzgiPkNsYWltIERldGFpbCBWaWV3PC90ZXh0PjwvZz48IS0tZW50aXR5IGZyYXVkX3VpLS0+PGcgY2xhc3M9ImVudGl0eSIgZGF0YS1lbnRpdHk9ImZyYXVkX3VpIiBkYXRhLXNvdXJjZS1saW5lPSIxNiIgZGF0YS11aWQ9ImVudDAwMDYiIGlkPSJlbnRpdHlfZnJhdWRfdWkiPjxyZWN0IGZpbGw9IiNGMUYxRjEiIGhlaWdodD0iMzIuODQzOCIgcng9IjIuNSIgcnk9IjIuNSIgc3R5bGU9InN0cm9rZTojMDAwMDAwO3N0cm9rZS13aWR0aDowLjU7IiB3aWR0aD0iMTEwIiB4PSI2MiIgeT0iMzI5Ii8+PHRleHQgZmlsbD0iIzAwMDAwMCIgZm9udC1mYW1pbHk9InNhbnMtc2VyaWYiIGZvbnQtc2l6ZT0iMTIiIGxlbmd0aEFkanVzdD0ic3BhY2luZyIgdGV4dExlbmd0aD0iOTAiIHg9IjcyIiB5PSIzNTAuMzQzOCI+RnJhdWQgUmV2aWV3IFVJPC90ZXh0PjwvZz48IS0tZW50aXR5IGFkbWluX3VpLS0+PGcgY2xhc3M9ImVudGl0eSIgZGF0YS1lbnRpdHk9ImFkbWluX3VpIiBkYXRhLXNvdXJjZS1saW5lPSIxNyIgZGF0YS11aWQ9ImVudDAwMDciIGlkPSJlbnRpdHlfYWRtaW5fdWkiPjxyZWN0IGZpbGw9IiNGMUYxRjEiIGhlaWdodD0iMzIuODQzOCIgcng9IjIuNSIgcnk9IjIuNSIgc3R5bGU9InN0cm9rZTojMDAwMDAwO3N0cm9rZS13aWR0aDowLjU7IiB3aWR0aD0iMTEwIiB4PSIyMDciIHk9IjMyOSIvPjx0ZXh0IGZpbGw9IiMwMDAwMDAiIGZvbnQtZmFtaWx5PSJzYW5zLXNlcmlmIiBmb250LXNpemU9IjEyIiBsZW5ndGhBZGp1c3Q9InNwYWNpbmciIHRleHRMZW5ndGg9IjkwIiB4PSIyMTciIHk9IjM1MC4zNDM4Ij5BZG1pbiBEYXNoYm9hcmQ8L3RleHQ+PC9nPjwhLS1lbnRpdHkgYXV0aC0tPjxnIGNsYXNzPSJlbnRpdHkiIGRhdGEtZW50aXR5PSJhdXRoIiBkYXRhLXNvdXJjZS1saW5lPSIyMyIgZGF0YS11aWQ9ImVudDAwMTAiIGlkPSJlbnRpdHlfYXV0aCI+PHJlY3QgZmlsbD0iI0YxRjFGMSIgaGVpZ2h0PSI0NS42ODc1IiByeD0iMi41IiByeT0iMi41IiBzdHlsZT0ic3Ryb2tlOiMwMDAwMDA7c3Ryb2tlLXdpZHRoOjAuNTsiIHdpZHRoPSIxMTAiIHg9IjQ4NCIgeT0iMzIyLjUiLz48dGV4dCBmaWxsPSIjMDAwMDAwIiBmb250LWZhbWlseT0ic2Fucy1zZXJpZiIgZm9udC1zaXplPSIxMiIgbGVuZ3RoQWRqdXN0PSJzcGFjaW5nIiB0ZXh0TGVuZ3RoPSI4NCIgeD0iNDk0IiB5PSIzNDMuODQzOCI+QXV0aGVudGljYXRpb248L3RleHQ+PHRleHQgZmlsbD0iIzAwMDAwMCIgZm9udC1mYW1pbHk9InNhbnMtc2VyaWYiIGZvbnQtc2l6ZT0iMTIiIGxlbmd0aEFkanVzdD0ic3BhY2luZyIgdGV4dExlbmd0aD0iOTAiIHg9IjQ5NCIgeT0iMzU2LjY4NzUiPiZhbXA7IEF1dGhvcml6YXRpb248L3RleHQ+PC9nPjwhLS1lbnRpdHkgaW5nZXN0LS0+PGcgY2xhc3M9ImVudGl0eSIgZGF0YS1lbnRpdHk9ImluZ2VzdCIgZGF0YS1zb3VyY2UtbGluZT0iMjQiIGRhdGEtdWlkPSJlbnQwMDExIiBpZD0iZW50aXR5X2luZ2VzdCI+PHJlY3QgZmlsbD0iI0YxRjFGMSIgaGVpZ2h0PSIzMi44NDM4IiByeD0iMi41IiByeT0iMi41IiBzdHlsZT0ic3Ryb2tlOiMwMDAwMDA7c3Ryb2tlLXdpZHRoOjAuNTsiIHdpZHRoPSIxMjgiIHg9IjYyOSIgeT0iMzI5Ii8+PHRleHQgZmlsbD0iIzAwMDAwMCIgZm9udC1mYW1pbHk9InNhbnMtc2VyaWYiIGZvbnQtc2l6ZT0iMTIiIGxlbmd0aEFkanVzdD0ic3BhY2luZyIgdGV4dExlbmd0aD0iMTA4IiB4PSI2MzkiIHk9IjM1MC4zNDM4Ij5Eb2N1bWVudCBJbmdlc3Rpb248L3RleHQ+PC9nPjwhLS1lbnRpdHkgdHJpYWdlLS0+PGcgY2xhc3M9ImVudGl0eSIgZGF0YS1lbnRpdHk9InRyaWFnZSIgZGF0YS1zb3VyY2UtbGluZT0iMjUiIGRhdGEtdWlkPSJlbnQwMDEyIiBpZD0iZW50aXR5X3RyaWFnZSI+PHJlY3QgZmlsbD0iI0YxRjFGMSIgaGVpZ2h0PSIzMi44NDM4IiByeD0iMi41IiByeT0iMi41IiBzdHlsZT0ic3Ryb2tlOiMwMDAwMDA7c3Ryb2tlLXdpZHRoOjAuNTsiIHdpZHRoPSI5OCIgeD0iNzkyIiB5PSIzMjkiLz48dGV4dCBmaWxsPSIjMDAwMDAwIiBmb250LWZhbWlseT0ic2Fucy1zZXJpZiIgZm9udC1zaXplPSIxMiIgbGVuZ3RoQWRqdXN0PSJzcGFjaW5nIiB0ZXh0TGVuZ3RoPSI3OCIgeD0iODAyIiB5PSIzNTAuMzQzOCI+Q2xhaW1zIFRyaWFnZTwvdGV4dD48L2c+PCEtLWVudGl0eSBmcmF1ZF9kZXRlY3QtLT48ZyBjbGFzcz0iZW50aXR5IiBkYXRhLWVudGl0eT0iZnJhdWRfZGV0ZWN0IiBkYXRhLXNvdXJjZS1saW5lPSIyNiIgZGF0YS11aWQ9ImVudDAwMTMiIGlkPSJlbnRpdHlfZnJhdWRfZGV0ZWN0Ij48cmVjdCBmaWxsPSIjRjFGMUYxIiBoZWlnaHQ9IjMyLjg0MzgiIHJ4PSIyLjUiIHJ5PSIyLjUiIHN0eWxlPSJzdHJva2U6IzAwMDAwMDtzdHJva2Utd2lkdGg6MC41OyIgd2lkdGg9IjExMCIgeD0iNDg0IiB5PSI1ODUiLz48dGV4dCBmaWxsPSIjMDAwMDAwIiBmb250LWZhbWlseT0ic2Fucy1zZXJpZiIgZm9udC1zaXplPSIxMiIgbGVuZ3RoQWRqdXN0PSJzcGFjaW5nIiB0ZXh0TGVuZ3RoPSI5MCIgeD0iNDk0IiB5PSI2MDYuMzQzOCI+RnJhdWQgRGV0ZWN0aW9uPC90ZXh0PjwvZz48IS0tZW50aXR5IHJlc2VydmUtLT48ZyBjbGFzcz0iZW50aXR5IiBkYXRhLWVudGl0eT0icmVzZXJ2ZSIgZGF0YS1zb3VyY2UtbGluZT0iMjciIGRhdGEtdWlkPSJlbnQwMDE0IiBpZD0iZW50aXR5X3Jlc2VydmUiPjxyZWN0IGZpbGw9IiNGMUYxRjEiIGhlaWdodD0iMzIuODQzOCIgcng9IjIuNSIgcnk9IjIuNSIgc3R5bGU9InN0cm9rZTojMDAwMDAwO3N0cm9rZS13aWR0aDowLjU7IiB3aWR0aD0iMTI4IiB4PSI2MjkiIHk9IjU4NSIvPjx0ZXh0IGZpbGw9IiMwMDAwMDAiIGZvbnQtZmFtaWx5PSJzYW5zLXNlcmlmIiBmb250LXNpemU9IjEyIiBsZW5ndGhBZGp1c3Q9InNwYWNpbmciIHRleHRMZW5ndGg9IjEwOCIgeD0iNjM5IiB5PSI2MDYuMzQzOCI+UmVzZXJ2ZSBFc3RpbWF0aW9uPC90ZXh0PjwvZz48IS0tZW50aXR5IG9jci0tPjxnIGNsYXNzPSJlbnRpdHkiIGRhdGEtZW50aXR5PSJvY3IiIGRhdGEtc291cmNlLWxpbmU9IjMxIiBkYXRhLXVpZD0iZW50MDAxNiIgaWQ9ImVudGl0eV9vY3IiPjxyZWN0IGZpbGw9IiNGMUYxRjEiIGhlaWdodD0iNDUuNjg3NSIgcng9IjIuNSIgcnk9IjIuNSIgc3R5bGU9InN0cm9rZTojMDAwMDAwO3N0cm9rZS13aWR0aDowLjU7IiB3aWR0aD0iMTM0IiB4PSI5OTciIHk9IjY5NyIvPjx0ZXh0IGZpbGw9IiMwMDAwMDAiIGZvbnQtZmFtaWx5PSJzYW5zLXNlcmlmIiBmb250LXNpemU9IjEyIiBsZW5ndGhBZGp1c3Q9InNwYWNpbmciIHRleHRMZW5ndGg9IjYwIiB4PSIxMDA3IiB5PSI3MTguMzQzOCI+T0NSIEVuZ2luZTwvdGV4dD48dGV4dCBmaWxsPSIjMDAwMDAwIiBmb250LWZhbWlseT0ic2Fucy1zZXJpZiIgZm9udC1zaXplPSIxMiIgbGVuZ3RoQWRqdXN0PSJzcGFjaW5nIiB0ZXh0TGVuZ3RoPSIxMTQiIHg9IjEwMDciIHk9IjczMS4xODc1Ij4oVGVzc2VyYWN0L0Vhc3lPQ1IpPC90ZXh0PjwvZz48IS0tZW50aXR5IG5scC0tPjxnIGNsYXNzPSJlbnRpdHkiIGRhdGEtZW50aXR5PSJubHAiIGRhdGEtc291cmNlLWxpbmU9IjMyIiBkYXRhLXVpZD0iZW50MDAxNyIgaWQ9ImVudGl0eV9ubHAiPjxyZWN0IGZpbGw9IiNGMUYxRjEiIGhlaWdodD0iNDUuNjg3NSIgcng9IjIuNSIgcnk9IjIuNSIgc3R5bGU9InN0cm9rZTojMDAwMDAwO3N0cm9rZS13aWR0aDowLjU7IiB3aWR0aD0iMTA0IiB4PSIxMTY2IiB5PSI2OTciLz48dGV4dCBmaWxsPSIjMDAwMDAwIiBmb250LWZhbWlseT0ic2Fucy1zZXJpZiIgZm9udC1zaXplPSIxMiIgbGVuZ3RoQWRqdXN0PSJzcGFjaW5nIiB0ZXh0TGVuZ3RoPSI4NCIgeD0iMTE3NiIgeT0iNzE4LjM0MzgiPk5MUCBFeHRyYWN0aW9uPC90ZXh0Pjx0ZXh0IGZpbGw9IiMwMDAwMDAiIGZvbnQtZmFtaWx5PSJzYW5zLXNlcmlmIiBmb250LXNpemU9IjEyIiBsZW5ndGhBZGp1c3Q9InNwYWNpbmciIHRleHRMZW5ndGg9IjQyIiB4PSIxMTc2IiB5PSI3MzEuMTg3NSI+KHNwYUN5KTwvdGV4dD48L2c+PCEtLWVudGl0eSB4Z2Jvb3N0LS0+PGcgY2xhc3M9ImVudGl0eSIgZGF0YS1lbnRpdHk9InhnYm9vc3QiIGRhdGEtc291cmNlLWxpbmU9IjMzIiBkYXRhLXVpZD0iZW50MDAxOCIgaWQ9ImVudGl0eV94Z2Jvb3N0Ij48cmVjdCBmaWxsPSIjRjFGMUYxIiBoZWlnaHQ9IjMyLjg0MzgiIHJ4PSIyLjUiIHJ5PSIyLjUiIHN0eWxlPSJzdHJva2U6IzAwMDAwMDtzdHJva2Utd2lkdGg6MC41OyIgd2lkdGg9IjEwNCIgeD0iMTMwNSIgeT0iNzAzLjUiLz48dGV4dCBmaWxsPSIjMDAwMDAwIiBmb250LWZhbWlseT0ic2Fucy1zZXJpZiIgZm9udC1zaXplPSIxMiIgbGVuZ3RoQWRqdXN0PSJzcGFjaW5nIiB0ZXh0TGVuZ3RoPSI4NCIgeD0iMTMxNSIgeT0iNzI0Ljg0MzgiPlhHQm9vc3QgTW9kZWxzPC90ZXh0PjwvZz48IS0tZW50aXR5IHNoYXAtLT48ZyBjbGFzcz0iZW50aXR5IiBkYXRhLWVudGl0eT0ic2hhcCIgZGF0YS1zb3VyY2UtbGluZT0iMzQiIGRhdGEtdWlkPSJlbnQwMDE5IiBpZD0iZW50aXR5X3NoYXAiPjxyZWN0IGZpbGw9IiNGMUYxRjEiIGhlaWdodD0iMzIuODQzOCIgcng9IjIuNSIgcnk9IjIuNSIgc3R5bGU9InN0cm9rZTojMDAwMDAwO3N0cm9rZS13aWR0aDowLjU7IiB3aWR0aD0iMTM0IiB4PSIxNDQ0IiB5PSI3MDMuNSIvPjx0ZXh0IGZpbGw9IiMwMDAwMDAiIGZvbnQtZmFtaWx5PSJzYW5zLXNlcmlmIiBmb250LXNpemU9IjEyIiBsZW5ndGhBZGp1c3Q9InNwYWNpbmciIHRleHRMZW5ndGg9IjExNCIgeD0iMTQ1NCIgeT0iNzI0Ljg0MzgiPlNIQVAgRXhwbGFpbmFiaWxpdHk8L3RleHQ+PC9nPjwhLS1lbnRpdHkgY2xhaW1zX2RiLS0+PGcgY2xhc3M9ImVudGl0eSIgZGF0YS1lbnRpdHk9ImNsYWltc19kYiIgZGF0YS1zb3VyY2UtbGluZT0iNDAiIGRhdGEtdWlkPSJlbnQwMDIyIiBpZD0iZW50aXR5X2NsYWltc19kYiI+PHJlY3QgZmlsbD0iI0YxRjFGMSIgaGVpZ2h0PSIzMi44NDM4IiByeD0iMi41IiByeT0iMi41IiBzdHlsZT0ic3Ryb2tlOiMwMDAwMDA7c3Ryb2tlLXdpZHRoOjAuNTsiIHdpZHRoPSI4NiIgeD0iMTczMyIgeT0iNTg1Ii8+PHRleHQgZmlsbD0iIzAwMDAwMCIgZm9udC1mYW1pbHk9InNhbnMtc2VyaWYiIGZvbnQtc2l6ZT0iMTIiIGxlbmd0aEFkanVzdD0ic3BhY2luZyIgdGV4dExlbmd0aD0iNjYiIHg9IjE3NDMiIHk9IjYwNi4zNDM4Ij5DbGFpbXMgRGF0YTwvdGV4dD48L2c+PCEtLWVudGl0eSB1c2Vyc19kYi0tPjxnIGNsYXNzPSJlbnRpdHkiIGRhdGEtZW50aXR5PSJ1c2Vyc19kYiIgZGF0YS1zb3VyY2UtbGluZT0iNDEiIGRhdGEtdWlkPSJlbnQwMDIzIiBpZD0iZW50aXR5X3VzZXJzX2RiIj48cmVjdCBmaWxsPSIjRjFGMUYxIiBoZWlnaHQ9IjMyLjg0MzgiIHJ4PSIyLjUiIHJ5PSIyLjUiIHN0eWxlPSJzdHJva2U6IzAwMDAwMDtzdHJva2Utd2lkdGg6MC41OyIgd2lkdGg9IjkyIiB4PSIxODU0IiB5PSI1ODUiLz48dGV4dCBmaWxsPSIjMDAwMDAwIiBmb250LWZhbWlseT0ic2Fucy1zZXJpZiIgZm9udC1zaXplPSIxMiIgbGVuZ3RoQWRqdXN0PSJzcGFjaW5nIiB0ZXh0TGVuZ3RoPSI3MiIgeD0iMTg2NCIgeT0iNjA2LjM0MzgiPlVzZXJzICZhbXA7IEF1dGg8L3RleHQ+PC9nPjwhLS1lbnRpdHkgZnJhdWRfZGItLT48ZyBjbGFzcz0iZW50aXR5IiBkYXRhLWVudGl0eT0iZnJhdWRfZGIiIGRhdGEtc291cmNlLWxpbmU9IjQyIiBkYXRhLXVpZD0iZW50MDAyNCIgaWQ9ImVudGl0eV9mcmF1ZF9kYiI+PHJlY3QgZmlsbD0iI0YxRjFGMSIgaGVpZ2h0PSIzMi44NDM4IiByeD0iMi41IiByeT0iMi41IiBzdHlsZT0ic3Ryb2tlOiMwMDAwMDA7c3Ryb2tlLXdpZHRoOjAuNTsiIHdpZHRoPSI5MiIgeD0iMTcyMiIgeT0iNzAzLjUiLz48dGV4dCBmaWxsPSIjMDAwMDAwIiBmb250LWZhbWlseT0ic2Fucy1zZXJpZiIgZm9udC1zaXplPSIxMiIgbGVuZ3RoQWRqdXN0PSJzcGFjaW5nIiB0ZXh0TGVuZ3RoPSI3MiIgeD0iMTczMiIgeT0iNzI0Ljg0MzgiPkZyYXVkIEFsZXJ0czwvdGV4dD48L2c+PCEtLWVudGl0eSByZXNlcnZlX2RiLS0+PGcgY2xhc3M9ImVudGl0eSIgZGF0YS1lbnRpdHk9InJlc2VydmVfZGIiIGRhdGEtc291cmNlLWxpbmU9IjQzIiBkYXRhLXVpZD0iZW50MDAyNSIgaWQ9ImVudGl0eV9yZXNlcnZlX2RiIj48cmVjdCBmaWxsPSIjRjFGMUYxIiBoZWlnaHQ9IjMyLjg0MzgiIHJ4PSIyLjUiIHJ5PSIyLjUiIHN0eWxlPSJzdHJva2U6IzAwMDAwMDtzdHJva2Utd2lkdGg6MC41OyIgd2lkdGg9IjEzNCIgeD0iMTg0OSIgeT0iNzAzLjUiLz48dGV4dCBmaWxsPSIjMDAwMDAwIiBmb250LWZhbWlseT0ic2Fucy1zZXJpZiIgZm9udC1zaXplPSIxMiIgbGVuZ3RoQWRqdXN0PSJzcGFjaW5nIiB0ZXh0TGVuZ3RoPSIxMTQiIHg9IjE4NTkiIHk9IjcyNC44NDM4Ij5SZXNlcnZlcyAmYW1wOyBGZWVkYmFjazwvdGV4dD48L2c+PCEtLWVudGl0eSBkb2NzLS0+PGcgY2xhc3M9ImVudGl0eSIgZGF0YS1lbnRpdHk9ImRvY3MiIGRhdGEtc291cmNlLWxpbmU9IjQ3IiBkYXRhLXVpZD0iZW50MDAyNyIgaWQ9ImVudGl0eV9kb2NzIj48cmVjdCBmaWxsPSIjRjFGMUYxIiBoZWlnaHQ9IjMyLjg0MzgiIHJ4PSIyLjUiIHJ5PSIyLjUiIHN0eWxlPSJzdHJva2U6IzAwMDAwMDtzdHJva2Utd2lkdGg6MC41OyIgd2lkdGg9IjEyOCIgeD0iMjI0NyIgeT0iNTg1Ii8+PHRleHQgZmlsbD0iIzAwMDAwMCIgZm9udC1mYW1pbHk9InNhbnMtc2VyaWYiIGZvbnQtc2l6ZT0iMTIiIGxlbmd0aEFkanVzdD0ic3BhY2luZyIgdGV4dExlbmd0aD0iMTA4IiB4PSIyMjU3IiB5PSI2MDYuMzQzOCI+VXBsb2FkZWQgRG9jdW1lbnRzPC90ZXh0PjwvZz48IS0tZW50aXR5IG1vZGVscy0tPjxnIGNsYXNzPSJlbnRpdHkiIGRhdGEtZW50aXR5PSJtb2RlbHMiIGRhdGEtc291cmNlLWxpbmU9IjQ4IiBkYXRhLXVpZD0iZW50MDAyOCIgaWQ9ImVudGl0eV9tb2RlbHMiPjxyZWN0IGZpbGw9IiNGMUYxRjEiIGhlaWdodD0iMzIuODQzOCIgcng9IjIuNSIgcnk9IjIuNSIgc3R5bGU9InN0cm9rZTojMDAwMDAwO3N0cm9rZS13aWR0aDowLjU7IiB3aWR0aD0iMTIyIiB4PSIyMDkwIiB5PSI1ODUiLz48dGV4dCBmaWxsPSIjMDAwMDAwIiBmb250LWZhbWlseT0ic2Fucy1zZXJpZiIgZm9udC1zaXplPSIxMiIgbGVuZ3RoQWRqdXN0PSJzcGFjaW5nIiB0ZXh0TGVuZ3RoPSIxMDIiIHg9IjIxMDAiIHk9IjYwNi4zNDM4Ij5Nb2RlbCBDaGVja3BvaW50czwvdGV4dD48L2c+PCEtLWVudGl0eSBlbWFpbC0tPjxnIGNsYXNzPSJlbnRpdHkiIGRhdGEtZW50aXR5PSJlbWFpbCIgZGF0YS1zb3VyY2UtbGluZT0iNTMiIGRhdGEtdWlkPSJlbnQwMDMwIiBpZD0iZW50aXR5X2VtYWlsIj48cmVjdCBmaWxsPSIjRjFGMUYxIiBoZWlnaHQ9IjQ1LjY4NzUiIHJ4PSIyLjUiIHJ5PSIyLjUiIHN0eWxlPSJzdHJva2U6IzAwMDAwMDtzdHJva2Utd2lkdGg6MC41OyIgd2lkdGg9Ijk4IiB4PSIyNjIyIiB5PSI1NzguNSIvPjx0ZXh0IGZpbGw9IiMwMDAwMDAiIGZvbnQtZmFtaWx5PSJzYW5zLXNlcmlmIiBmb250LXNpemU9IjEyIiBsZW5ndGhBZGp1c3Q9InNwYWNpbmciIHRleHRMZW5ndGg9Ijc4IiB4PSIyNjMyIiB5PSI1OTkuODQzOCI+RW1haWwgU2VydmljZTwvdGV4dD48dGV4dCBmaWxsPSIjMDAwMDAwIiBmb250LWZhbWlseT0ic2Fucy1zZXJpZiIgZm9udC1zaXplPSIxMiIgbGVuZ3RoQWRqdXN0PSJzcGFjaW5nIiB0ZXh0TGVuZ3RoPSIzNiIgeD0iMjYzMiIgeT0iNjEyLjY4NzUiPihTTVRQKTwvdGV4dD48L2c+PCEtLWVudGl0eSBtcGVzYS0tPjxnIGNsYXNzPSJlbnRpdHkiIGRhdGEtZW50aXR5PSJtcGVzYSIgZGF0YS1zb3VyY2UtbGluZT0iNTQiIGRhdGEtdWlkPSJlbnQwMDMxIiBpZD0iZW50aXR5X21wZXNhIj48cmVjdCBmaWxsPSIjRjFGMUYxIiBoZWlnaHQ9IjQ1LjY4NzUiIHJ4PSIyLjUiIHJ5PSIyLjUiIHN0eWxlPSJzdHJva2U6IzAwMDAwMDtzdHJva2Utd2lkdGg6MC41OyIgd2lkdGg9IjExNiIgeD0iMjQ3MSIgeT0iNTc4LjUiLz48dGV4dCBmaWxsPSIjMDAwMDAwIiBmb250LWZhbWlseT0ic2Fucy1zZXJpZiIgZm9udC1zaXplPSIxMiIgbGVuZ3RoQWRqdXN0PSJzcGFjaW5nIiB0ZXh0TGVuZ3RoPSI5NiIgeD0iMjQ4MSIgeT0iNTk5Ljg0MzgiPk1vYmlsZSBNb25leSBBUEk8L3RleHQ+PHRleHQgZmlsbD0iIzAwMDAwMCIgZm9udC1mYW1pbHk9InNhbnMtc2VyaWYiIGZvbnQtc2l6ZT0iMTIiIGxlbmd0aEFkanVzdD0ic3BhY2luZyIgdGV4dExlbmd0aD0iNDgiIHg9IjI0ODEiIHk9IjYxMi42ODc1Ij4oRnV0dXJlKTwvdGV4dD48L2c+PGcgY2xhc3M9ImVudGl0eSIgZGF0YS1lbnRpdHk9IkdNTjQxIiBkYXRhLXNvdXJjZS1saW5lPSI2OSIgZGF0YS11aWQ9ImVudDAwNDIiIGlkPSJlbnRpdHlfR01ONDEiPjxwYXRoIGQ9Ik00MjAsOTIuNSBMNDIwLDE1OC4xNTYzIEw1NjQuNSwxNTguMTU2MyBMNTY0LjUsMTAyLjUgTDU1NC41LDkyLjUgTDQyMCw5Mi41IiBmaWxsPSIjRkVGRkREIiBzdHlsZT0ic3Ryb2tlOiMxODE4MTg7c3Ryb2tlLXdpZHRoOjAuNTsiLz48cGF0aCBkPSJNNTU0LjUsOTIuNSBMNTU0LjUsMTAyLjUgTDU2NC41LDEwMi41IEw1NTQuNSw5Mi41IiBmaWxsPSIjRkVGRkREIiBzdHlsZT0ic3Ryb2tlOiMxODE4MTg7c3Ryb2tlLXdpZHRoOjE7Ii8+PHRleHQgZmlsbD0iIzAwMDAwMCIgZm9udC1mYW1pbHk9InNhbnMtc2VyaWYiIGZvbnQtc2l6ZT0iMTMiIGZvbnQtd2VpZ2h0PSJib2xkIiBsZW5ndGhBZGp1c3Q9InNwYWNpbmciIHRleHRMZW5ndGg9IjEwNCIgeD0iNDI2IiB5PSIxMDkuNzg5MSI+RnJvbnRlbmQgKFJlYWN0KTwvdGV4dD48dGV4dCBmaWxsPSIjMDAwMDAwIiBmb250LWZhbWlseT0ic2Fucy1zZXJpZiIgZm9udC1zaXplPSIxMyIgbGVuZ3RoQWRqdXN0PSJzcGFjaW5nIiB0ZXh0TGVuZ3RoPSIxMDQiIHg9IjQyNiIgeT0iMTIzLjcwMzEiPi0gVXNlciBpbnRlcmZhY2U8L3RleHQ+PHRleHQgZmlsbD0iIzAwMDAwMCIgZm9udC1mYW1pbHk9InNhbnMtc2VyaWYiIGZvbnQtc2l6ZT0iMTMiIGxlbmd0aEFkanVzdD0ic3BhY2luZyIgdGV4dExlbmd0aD0iMTIzLjUiIHg9IjQyNiIgeT0iMTM3LjYxNzIiPi0gUmVhbC10aW1lIHVwZGF0ZXM8L3RleHQ+PHRleHQgZmlsbD0iIzAwMDAwMCIgZm9udC1mYW1pbHk9InNhbnMtc2VyaWYiIGZvbnQtc2l6ZT0iMTMiIGxlbmd0aEFkanVzdD0ic3BhY2luZyIgdGV4dExlbmd0aD0iMTIzLjUiIHg9IjQyNiIgeT0iMTUxLjUzMTMiPi0gUmVzcG9uc2l2ZSBkZXNpZ248L3RleHQ+PC9nPjxnIGNsYXNzPSJlbnRpdHkiIGRhdGEtZW50aXR5PSJHTU40NCIgZGF0YS1zb3VyY2UtbGluZT0iNzYiIGRhdGEtdWlkPSJlbnQwMDQ1IiBpZD0iZW50aXR5X0dNTjQ0Ij48cGF0aCBkPSJNMTY0OS41LDMwNS41IEwxNjQ5LjUsMzg1LjA3MDMgTDE4MjYuNSwzODUuMDcwMyBMMTgyNi41LDMxNS41IEwxODE2LjUsMzA1LjUgTDE2NDkuNSwzMDUuNSIgZmlsbD0iI0ZFRkZERCIgc3R5bGU9InN0cm9rZTojMTgxODE4O3N0cm9rZS13aWR0aDowLjU7Ii8+PHBhdGggZD0iTTE4MTYuNSwzMDUuNSBMMTgxNi41LDMxNS41IEwxODI2LjUsMzE1LjUgTDE4MTYuNSwzMDUuNSIgZmlsbD0iI0ZFRkZERCIgc3R5bGU9InN0cm9rZTojMTgxODE4O3N0cm9rZS13aWR0aDoxOyIvPjx0ZXh0IGZpbGw9IiMwMDAwMDAiIGZvbnQtZmFtaWx5PSJzYW5zLXNlcmlmIiBmb250LXNpemU9IjEzIiBmb250LXdlaWdodD0iYm9sZCIgbGVuZ3RoQWRqdXN0PSJzcGFjaW5nIiB0ZXh0TGVuZ3RoPSIxNTYiIHg9IjE2NTUuNSIgeT0iMzIyLjc4OTEiPkJhY2tlbmQgKEZsYXNrICsgUHl0aG9uKTwvdGV4dD48dGV4dCBmaWxsPSIjMDAwMDAwIiBmb250LWZhbWlseT0ic2Fucy1zZXJpZiIgZm9udC1zaXplPSIxMyIgbGVuZ3RoQWRqdXN0PSJzcGFjaW5nIiB0ZXh0TGVuZ3RoPSIxMDQiIHg9IjE2NTUuNSIgeT0iMzM2LjcwMzEiPi0gQnVzaW5lc3MgbG9naWM8L3RleHQ+PHRleHQgZmlsbD0iIzAwMDAwMCIgZm9udC1mYW1pbHk9InNhbnMtc2VyaWYiIGZvbnQtc2l6ZT0iMTMiIGxlbmd0aEFkanVzdD0ic3BhY2luZyIgdGV4dExlbmd0aD0iOTcuNSIgeD0iMTY1NS41IiB5PSIzNTAuNjE3MiI+LSBBUEkgZW5kcG9pbnRzPC90ZXh0Pjx0ZXh0IGZpbGw9IiMwMDAwMDAiIGZvbnQtZmFtaWx5PSJzYW5zLXNlcmlmIiBmb250LXNpemU9IjEzIiBsZW5ndGhBZGp1c3Q9InNwYWNpbmciIHRleHRMZW5ndGg9IjExMC41IiB4PSIxNjU1LjUiIHk9IjM2NC41MzEzIj4tIFJlcXVlc3Qgcm91dGluZzwvdGV4dD48dGV4dCBmaWxsPSIjMDAwMDAwIiBmb250LWZhbWlseT0ic2Fucy1zZXJpZiIgZm9udC1zaXplPSIxMyIgbGVuZ3RoQWRqdXN0PSJzcGFjaW5nIiB0ZXh0TGVuZ3RoPSIxMDQiIHg9IjE2NTUuNSIgeT0iMzc4LjQ0NTMiPi0gQXV0aGVudGljYXRpb248L3RleHQ+PC9nPjxnIGNsYXNzPSJlbnRpdHkiIGRhdGEtZW50aXR5PSJHTU40NyIgZGF0YS1zb3VyY2UtbGluZT0iODQiIGRhdGEtdWlkPSJlbnQwMDQ4IiBpZD0iZW50aXR5X0dNTjQ3Ij48cGF0aCBkPSJNMjc1NS41LDU2OC41IEwyNzU1LjUsNjM0LjE1NjMgTDI5MzksNjM0LjE1NjMgTDI5MzksNTc4LjUgTDI5MjksNTY4LjUgTDI3NTUuNSw1NjguNSIgZmlsbD0iI0ZFRkZERCIgc3R5bGU9InN0cm9rZTojMTgxODE4O3N0cm9rZS13aWR0aDowLjU7Ii8+PHBhdGggZD0iTTI5MjksNTY4LjUgTDI5MjksNTc4LjUgTDI5MzksNTc4LjUgTDI5MjksNTY4LjUiIGZpbGw9IiNGRUZGREQiIHN0eWxlPSJzdHJva2U6IzE4MTgxODtzdHJva2Utd2lkdGg6MTsiLz48dGV4dCBmaWxsPSIjMDAwMDAwIiBmb250LWZhbWlseT0ic2Fucy1zZXJpZiIgZm9udC1zaXplPSIxMyIgZm9udC13ZWlnaHQ9ImJvbGQiIGxlbmd0aEFkanVzdD0ic3BhY2luZyIgdGV4dExlbmd0aD0iMTM2LjUiIHg9IjI3NjEuNSIgeT0iNTg1Ljc4OTEiPkRhdGFiYXNlIChQb3N0Z3JlU1FMKTwvdGV4dD48dGV4dCBmaWxsPSIjMDAwMDAwIiBmb250LWZhbWlseT0ic2Fucy1zZXJpZiIgZm9udC1zaXplPSIxMyIgbGVuZ3RoQWRqdXN0PSJzcGFjaW5nIiB0ZXh0TGVuZ3RoPSIxNjIuNSIgeD0iMjc2MS41IiB5PSI1OTkuNzAzMSI+LSBTdHJ1Y3R1cmVkIGRhdGEgc3RvcmFnZTwvdGV4dD48dGV4dCBmaWxsPSIjMDAwMDAwIiBmb250LWZhbWlseT0ic2Fucy1zZXJpZiIgZm9udC1zaXplPSIxMyIgbGVuZ3RoQWRqdXN0PSJzcGFjaW5nIiB0ZXh0TGVuZ3RoPSIxMjMuNSIgeD0iMjc2MS41IiB5PSI2MTMuNjE3MiI+LSBBQ0lEIHRyYW5zYWN0aW9uczwvdGV4dD48dGV4dCBmaWxsPSIjMDAwMDAwIiBmb250LWZhbWlseT0ic2Fucy1zZXJpZiIgZm9udC1zaXplPSIxMyIgbGVuZ3RoQWRqdXN0PSJzcGFjaW5nIiB0ZXh0TGVuZ3RoPSIxMzAiIHg9IjI3NjEuNSIgeT0iNjI3LjUzMTMiPi0gUXVlcnkgb3B0aW1pemF0aW9uPC90ZXh0PjwvZz48IS0tbGluayByZWFjdCB0byBmbGFzay0tPjxnIGNsYXNzPSJsaW5rIiBkYXRhLWVudGl0eS0xPSJyZWFjdCIgZGF0YS1lbnRpdHktMj0iZmxhc2siIGRhdGEtc291cmNlLWxpbmU9IjU4IiBkYXRhLXVpZD0ibG5rMzIiIGlkPSJsaW5rX3JlYWN0X2ZsYXNrIj48cGF0aCBkPSJNMzcyLjAwNiwxMzUuNzg4IEMzNzIuMDUxNiwxMzUuODM2NCAzNzIuMDk3NCwxMzUuODg1IDM3Mi4xNDMzLDEzNS45MzM2IEMzNzIuMjM1MSwxMzYuMDMxIDM3Mi4zMjc3LDEzNi4xMjg3IDM3Mi40MjA4LDEzNi4yMjY5IEMzNzIuNzkzNCwxMzYuNjE5NSAzNzMuMTc2NCwxMzcuMDE4OCAzNzMuNTY5MywxMzcuNDIzNSBDMzc0LjM1NTEsMTM4LjIzMyAzNzUuMTgwNiwxMzkuMDY0NyAzNzYuMDQyNSwxMzkuOTEgQzM4Mi45Mzc1LDE0Ni42NzI1IDM5Mi4xNiwxNTQuMzEgNDAyLDE1OC41IEM1MDUuNjMsMjAyLjYgODI0LjksMTMzLjM2IDkwNiwyMTEuNSBDOTE2LjU4MjUsMjIxLjY5NSA5MjMuMTA2OSwyMzQuOTI2OSA5MjYuOTI5NywyNDkuMDgzNCBDOTI4Ljg0MTEsMjU2LjE2MTcgOTMwLjA3NzEsMjYzLjQ3MTIgOTMwLjgwNzMsMjcwLjc0NzggQzkzMS4xNzI0LDI3NC4zODYxIDkzMS40MTEsMjc4LjAxNjIgOTMxLjU0NDQsMjgxLjYwNSBDOTMxLjU2MTEsMjgyLjA1MzYgOTMxLjM5NjEsMjc2LjUwNDMgOTMxLjQwOTUsMjc2Ljk1MTYiIGZpbGw9Im5vbmUiIGlkPSJyZWFjdC10by1mbGFzayIgc3R5bGU9InN0cm9rZTojMTgxODE4O3N0cm9rZS13aWR0aDoxOyIvPjxwb2x5Z29uIGZpbGw9IiMxODE4MTgiIHBvaW50cz0iOTMxLjU4OTYsMjgyLjk0ODksOTM1LjMxNzcsMjczLjgzMjksOTMxLjQzOTUsMjc3Ljk1MTEsOTI3LjMyMTMsMjc0LjA3MjksOTMxLjU4OTYsMjgyLjk0ODkiIHN0eWxlPSJzdHJva2U6IzE4MTgxODtzdHJva2Utd2lkdGg6MTsiLz48dGV4dCBmaWxsPSIjMDAwMDAwIiBmb250LWZhbWlseT0ic2Fucy1zZXJpZiIgZm9udC1zaXplPSIxMyIgbGVuZ3RoQWRqdXN0PSJzcGFjaW5nIiB0ZXh0TGVuZ3RoPSI5MSIgeD0iODk3IiB5PSIyMDEuNzg5MSI+SFRUUFMvUkVTVCBBUEk8L3RleHQ+PC9nPjwhLS1saW5rIGZsYXNrIHRvIG1sLS0+PGcgY2xhc3M9ImxpbmsiIGRhdGEtZW50aXR5LTE9ImZsYXNrIiBkYXRhLWVudGl0eS0yPSJtbCIgZGF0YS1zb3VyY2UtbGluZT0iNTkiIGRhdGEtdWlkPSJsbmszMyIgaWQ9ImxpbmtfZmxhc2tfbWwiPjxwYXRoIGQ9Ik05MzMuMjE5LDM1My42Mjg0IEM5MzQuODQzMSwzNTUuMDM2IDkzNi42ODkxLDM1Ni42MzYgOTM4LjczOTcsMzU4LjQxMzQgQzk0Ni45NDIyLDM2NS41MjMgOTU4LjQyLDM3NS40NzIzIDk3Mi4wODEzLDM4Ny4zMTQ1IEM5OTkuNDAzOCw0MTAuOTk5MSAxMDM1LjQ2LDQ0Mi4yNTU2IDEwNzEuNTE1LDQ3My41MTEzIEMxMTA3LjU3LDUwNC43NjY5IDExNDMuNjIzOCw1MzYuMDIxNiAxMTcwLjk0MTIsNTU5LjcwMjMgQzExNzcuNzcwNiw1NjUuNjIyNSAxMTg0LjA1NCw1NzEuMDY5NCAxMTg5LjY1NDgsNTc1LjkyNDUgQzExOTAuMzU1LDU3Ni41MzE0IDExODYuNTEwNyw1NzMuMTk5IDExODcuMTg5Miw1NzMuNzg3MSIgZmlsbD0ibm9uZSIgaWQ9ImZsYXNrLXRvLW1sIiBzdHlsZT0ic3Ryb2tlOiMxODE4MTg7c3Ryb2tlLXdpZHRoOjE7Ii8+PHBvbHlnb24gZmlsbD0iIzE4MTgxOCIgcG9pbnRzPSIxMTkxLjcyMjksNTc3LjcxNzIsMTE4Ny41NDI0LDU2OC43OTk2LDExODcuOTQ0OCw1NzQuNDQyMiwxMTgyLjMwMjMsNTc0Ljg0NDYsMTE5MS43MjI5LDU3Ny43MTcyIiBzdHlsZT0ic3Ryb2tlOiMxODE4MTg7c3Ryb2tlLXdpZHRoOjE7Ii8+PHRleHQgZmlsbD0iIzAwMDAwMCIgZm9udC1mYW1pbHk9InNhbnMtc2VyaWYiIGZvbnQtc2l6ZT0iMTMiIGxlbmd0aEFkanVzdD0ic3BhY2luZyIgdGV4dExlbmd0aD0iNzgiIHg9IjEwMzgiIHk9IjQ0Ny4yODkxIj5JbnRlcm5hbCBBUEk8L3RleHQ+PC9nPjwhLS1saW5rIGZsYXNrIHRvIGRiLS0+PGcgY2xhc3M9ImxpbmsiIGRhdGEtZW50aXR5LTE9ImZsYXNrIiBkYXRhLWVudGl0eS0yPSJkYiIgZGF0YS1zb3VyY2UtbGluZT0iNjAiIGRhdGEtdWlkPSJsbmszNCIgaWQ9ImxpbmtfZmxhc2tfZGIiPjxwYXRoIGQ9Ik05MzMuNjc5OCwzNDYuOTEzIEM5MzMuOTc3MiwzNDYuOTI3OSA5MzQuMjgxOSwzNDYuOTQzMiA5MzQuNTkzOCwzNDYuOTU4OSBDOTM1LjIxNzcsMzQ2Ljk5MDMgOTM1Ljg3MDMsMzQ3LjAyMzQgOTM2LjU1MTQsMzQ3LjA1ODEgQzkzNy45MTM2LDM0Ny4xMjc2IDkzOS4zODk1LDM0Ny4yMDM3IDk0MC45NzUyLDM0Ny4yODY2IEM5NDQuMTQ2OCwzNDcuNDUyNSA5NDcuNzU4MiwzNDcuNjQ1NyA5NTEuNzgsMzQ3Ljg2NzEgQzk2Ny44Njc0LDM0OC43NTMgOTkwLjUyMiwzNTAuMDkyMyAxMDE3Ljg2MzMsMzUxLjk1NDUgQzEwNzIuNTQ1OSwzNTUuNjc5MSAxMTQ1Ljk3NTYsMzYxLjQ5NTYgMTIyMy4xMDg3LDM2OS45NjEyIEMxMzc3LjM3NSwzODYuODkyNSAxNTQ2LjQ1NSw0MTQuNDIgMTYxMCw0NTcgQzE2NDAuNTksNDc3LjQ5NSAxNjYyLjM4NSw1MTIuNTc3NSAxNjc2LjYzMjUsNTQyLjkyMzggQzE2ODAuMTk0NCw1NTAuNTEwMyAxNjgzLjI4NDUsNTU3LjgwMDkgMTY4NS45MjI1LDU2NC40OTM1IEMxNjg3LjI0MTQsNTY3LjgzOTggMTY4OC40NDczLDU3MS4wMzY2IDE2ODkuNTQyNiw1NzQuMDQ2MSBDMTY4OS42Nzk1LDU3NC40MjIzIDE2ODcuNzgwMiw1NjkuMTUxMSAxNjg3LjkxMzcsNTY5LjUyMTMiIGZpbGw9Im5vbmUiIGlkPSJmbGFzay10by1kYiIgc3R5bGU9InN0cm9rZTojMTgxODE4O3N0cm9rZS13aWR0aDoxOyIvPjxwb2x5Z29uIGZpbGw9IiMxODE4MTgiIHBvaW50cz0iMTY4OS45NDgyLDU3NS4xNjU5LDE2OTAuNjU5NSw1NjUuMzQyOCwxNjg4LjI1MjgsNTcwLjQ2MjEsMTY4My4xMzM0LDU2OC4wNTU0LDE2ODkuOTQ4Miw1NzUuMTY1OSIgc3R5bGU9InN0cm9rZTojMTgxODE4O3N0cm9rZS13aWR0aDoxOyIvPjx0ZXh0IGZpbGw9IiMwMDAwMDAiIGZvbnQtZmFtaWx5PSJzYW5zLXNlcmlmIiBmb250LXNpemU9IjEzIiBsZW5ndGhBZGp1c3Q9InNwYWNpbmciIHRleHRMZW5ndGg9IjcxLjUiIHg9IjE1OTMiIHk9IjQ0Ny4yODkxIj5TUUwgUXVlcmllczwvdGV4dD48L2c+PCEtLWxpbmsgZmxhc2sgdG8gc3RvcmFnZS0tPjxnIGNsYXNzPSJsaW5rIiBkYXRhLWVudGl0eS0xPSJmbGFzayIgZGF0YS1lbnRpdHktMj0ic3RvcmFnZSIgZGF0YS1zb3VyY2UtbGluZT0iNjEiIGRhdGEtdWlkPSJsbmszNSIgaWQ9ImxpbmtfZmxhc2tfc3RvcmFnZSI+PHBhdGggZD0iTTkzMy4yNzY5LDM0Ny41MjA0IEM5MzQuMjYxOCwzNDcuNjQxMyA5MzUuMzMxNSwzNDcuNzcyNiA5MzYuNDg0LDM0Ny45MTM5IEM5MzguNzg5LDM0OC4xOTY1IDk0MS40MjU3LDM0OC41MTk0IDk0NC4zNzk5LDM0OC44ODA1IEM5NTYuMTk2OCwzNTAuMzI1MSA5NzMuMDk1MiwzNTIuMzgyIDk5NC4xNzg0LDM1NC45MjUzIEMxMDM2LjM0NSwzNjAuMDExOSAxMDk1LjI1MTIsMzY3LjA0MzggMTE2My43MjUsMzc1LjAxMjUgQzEzMDAuNjcyNSwzOTAuOTUgMTQ3NS44OSw0MTAuNjM1IDE2MzIsNDI2IEMxNzEzLjQ1LDQzNC4wMiAxOTMzLjQzLDQwOC4wMiAxOTk5LDQ1NyBDMjAyNS45OTUsNDc3LjE2NSAyMDM5Ljk4MjUsNTEyLjI0MjUgMjA0Ny4yMjc1LDU0Mi42Njg4IEMyMDQ3LjQ1MzksNTQzLjYxOTYgMjA0Ni4zNDY4LDUzOC43MTQ0IDIwNDYuNTYwMiw1MzkuNjU1NiIgZmlsbD0ibm9uZSIgaWQ9ImZsYXNrLXRvLXN0b3JhZ2UiIHN0eWxlPSJzdHJva2U6IzE4MTgxODtzdHJva2Utd2lkdGg6MTsiLz48cG9seWdvbiBmaWxsPSIjMTgxODE4IiBwb2ludHM9IjIwNDcuODg3Miw1NDUuNTA3LDIwNDkuNzk3Nyw1MzUuODQ1MiwyMDQ2Ljc4MTQsNTQwLjYzMDgsMjA0MS45OTU4LDUzNy42MTQ1LDIwNDcuODg3Miw1NDUuNTA3IiBzdHlsZT0ic3Ryb2tlOiMxODE4MTg7c3Ryb2tlLXdpZHRoOjE7Ii8+PHRleHQgZmlsbD0iIzAwMDAwMCIgZm9udC1mYW1pbHk9InNhbnMtc2VyaWYiIGZvbnQtc2l6ZT0iMTMiIGxlbmd0aEFkanVzdD0ic3BhY2luZyIgdGV4dExlbmd0aD0iNTIiIHg9IjE5ODYiIHk9IjQ0Ny4yODkxIj5GaWxlIEkvTzwvdGV4dD48L2c+PCEtLWxpbmsgZmxhc2sgdG8gZW1haWwtLT48ZyBjbGFzcz0ibGluayIgZGF0YS1lbnRpdHktMT0iZmxhc2siIGRhdGEtZW50aXR5LTI9ImVtYWlsIiBkYXRhLXNvdXJjZS1saW5lPSI2MiIgZGF0YS11aWQ9ImxuazM2IiBpZD0ibGlua19mbGFza19lbWFpbCI+PHBhdGggZD0iTTkzMy4yNTg3LDM0Ny43MjM3IEM5MzQuMjQxNiwzNDcuODY4MyA5MzUuMzA5MSwzNDguMDI1MSA5MzYuNDU5MywzNDguMTkzNiBDOTM4Ljc1OTcsMzQ4LjUzMDYgOTQxLjM5MTEsMzQ4LjkxNDggOTQ0LjMzOTcsMzQ5LjM0MzIgQzk1Ni4xMzM5LDM1MS4wNTY2IDk3My4wMDE5LDM1My40Nzc3IDk5NC4wNTE5LDM1Ni40MjE2IEMxMDM2LjE1MTksMzYyLjMwOTQgMTA5NC45OCwzNzAuMjg4OCAxMTYzLjQwMjUsMzc4Ljg4MjUgQzEzMDAuMjQ3NSwzOTYuMDcgMTQ3NS40Nyw0MTUuNzE1IDE2MzIsNDI2IEMxNjg1Ljk3LDQyOS41NSAyNTYwLjA3LDQyNi44OSAyNjA1LDQ1NyBDMjY0Ni40Niw0ODQuNzkgMjY2MS4zMDIyLDUzOS42Nzg3IDI2NjcuMDEyMiw1NzIuNTE4NyIgZmlsbD0ibm9uZSIgaWQ9ImZsYXNrLXRvLWVtYWlsIiBzdHlsZT0ic3Ryb2tlOiMxODE4MTg7c3Ryb2tlLXdpZHRoOjE7Ii8+PHBvbHlnb24gZmlsbD0iIzE4MTgxOCIgcG9pbnRzPSIyNjY4LjA0LDU3OC40MywyNjcwLjQzOTEsNTY4Ljg3NzgsMjY2Ny4xODM1LDU3My41MDM5LDI2NjIuNTU3NCw1NzAuMjQ4MiwyNjY4LjA0LDU3OC40MyIgc3R5bGU9InN0cm9rZTojMTgxODE4O3N0cm9rZS13aWR0aDoxOyIvPjx0ZXh0IGZpbGw9IiMwMDAwMDAiIGZvbnQtZmFtaWx5PSJzYW5zLXNlcmlmIiBmb250LXNpemU9IjEzIiBsZW5ndGhBZGp1c3Q9InNwYWNpbmciIHRleHRMZW5ndGg9IjI2IiB4PSIyNTY5IiB5PSI0NDcuMjg5MSI+U01UUDwvdGV4dD48L2c+PCEtLWxpbmsgbWwgdG8gb2NyLS0+PGcgY2xhc3M9ImxpbmsiIGRhdGEtZW50aXR5LTE9Im1sIiBkYXRhLWVudGl0eS0yPSJvY3IiIGRhdGEtc291cmNlLWxpbmU9IjYzIiBkYXRhLXVpZD0ibG5rMzciIGlkPSJsaW5rX21sX29jciI+PHBhdGggZD0iTTEyMTcuODksNjAyLjU4IEMxMjE0LjU1LDYwNS4xMSAxMTQxLjcxNSw2NjAuMjEwMSAxMDk4LjAxNSw2OTMuMjcwMSIgZmlsbD0ibm9uZSIgaWQ9Im1sLXRvLW9jciIgc3R5bGU9InN0cm9rZTojMTgxODE4O3N0cm9rZS13aWR0aDoxOyIvPjxwb2x5Z29uIGZpbGw9IiMxODE4MTgiIHBvaW50cz0iMTA5My4yMyw2OTYuODksMTEwMi44MjA4LDY5NC42NTAxLDEwOTcuMjE3NSw2OTMuODczNCwxMDk3Ljk5NDIsNjg4LjI3MDEsMTA5My4yMyw2OTYuODkiIHN0eWxlPSJzdHJva2U6IzE4MTgxODtzdHJva2Utd2lkdGg6MTsiLz48L2c+PCEtLWxpbmsgbWwgdG8gbmxwLS0+PGcgY2xhc3M9ImxpbmsiIGRhdGEtZW50aXR5LTE9Im1sIiBkYXRhLWVudGl0eS0yPSJubHAiIGRhdGEtc291cmNlLWxpbmU9IjY0IiBkYXRhLXVpZD0ibG5rMzgiIGlkPSJsaW5rX21sX25scCI+PHBhdGggZD0iTTEyMTgsNjAyLjU4IEMxMjE4LDYwNS4xMSAxMjE4LDY1Ny44MyAxMjE4LDY5MC44OSIgZmlsbD0ibm9uZSIgaWQ9Im1sLXRvLW5scCIgc3R5bGU9InN0cm9rZTojMTgxODE4O3N0cm9rZS13aWR0aDoxOyIvPjxwb2x5Z29uIGZpbGw9IiMxODE4MTgiIHBvaW50cz0iMTIxOCw2OTYuODksMTIyMiw2ODcuODksMTIxOCw2OTEuODksMTIxNCw2ODcuODksMTIxOCw2OTYuODkiIHN0eWxlPSJzdHJva2U6IzE4MTgxODtzdHJva2Utd2lkdGg6MTsiLz48L2c+PCEtLWxpbmsgbWwgdG8geGdib29zdC0tPjxnIGNsYXNzPSJsaW5rIiBkYXRhLWVudGl0eS0xPSJtbCIgZGF0YS1lbnRpdHktMj0ieGdib29zdCIgZGF0YS1zb3VyY2UtbGluZT0iNjUiIGRhdGEtdWlkPSJsbmszOSIgaWQ9ImxpbmtfbWxfeGdib29zdCI+PHBhdGggZD0iTTEyMTguMSw2MDIuNTggQzEyMjEuMzMsNjA1LjI5IDEyOTYuODQyMSw2NjguNTc1MiAxMzMzLjkwMjEsNjk5LjY0NTIiIGZpbGw9Im5vbmUiIGlkPSJtbC10by14Z2Jvb3N0IiBzdHlsZT0ic3Ryb2tlOiMxODE4MTg7c3Ryb2tlLXdpZHRoOjE7Ii8+PHBvbHlnb24gZmlsbD0iIzE4MTgxOCIgcG9pbnRzPSIxMzM4LjUsNzAzLjUsMTMzNC4xNzMsNjk0LjY1MjYsMTMzNC42Njg0LDcwMC4yODc3LDEzMjkuMDMzMyw3MDAuNzgzMSwxMzM4LjUsNzAzLjUiIHN0eWxlPSJzdHJva2U6IzE4MTgxODtzdHJva2Utd2lkdGg6MTsiLz48L2c+PCEtLWxpbmsgbWwgdG8gc2hhcC0tPjxnIGNsYXNzPSJsaW5rIiBkYXRhLWVudGl0eS0xPSJtbCIgZGF0YS1lbnRpdHktMj0ic2hhcCIgZGF0YS1zb3VyY2UtbGluZT0iNjYiIGRhdGEtdWlkPSJsbms0MCIgaWQ9ImxpbmtfbWxfc2hhcCI+PHBhdGggZD0iTTEyMTguMDksNjAyLjUzIEMxMjIxLjY2LDYwMy43NyAxMzM2Ljc0LDY0My42OCAxNDI3LDY4MSBDMTQ0My44Niw2ODcuOTcgMTQ1Ni45MDk1LDY5My43NjE1IDE0NzIuMjQ5NSw3MDAuODIxNSIgZmlsbD0ibm9uZSIgaWQ9Im1sLXRvLXNoYXAiIHN0eWxlPSJzdHJva2U6IzE4MTgxODtzdHJva2Utd2lkdGg6MTsiLz48cG9seWdvbiBmaWxsPSIjMTgxODE4IiBwb2ludHM9IjE0NzcuNyw3MDMuMzMsMTQ3MS4xOTY2LDY5NS45MzM2LDE0NzMuMTU4LDcwMS4yMzk2LDE0NjcuODUyLDcwMy4yMDA5LDE0NzcuNyw3MDMuMzMiIHN0eWxlPSJzdHJva2U6IzE4MTgxODtzdHJva2Utd2lkdGg6MTsiLz48L2c+PCEtLWxpbmsgcmVhY3QgdG8gR01ONDEtLT48ZyBjbGFzcz0ibGluayIgZGF0YS1lbnRpdHktMT0icmVhY3QiIGRhdGEtZW50aXR5LTI9IkdNTjQxIiBkYXRhLXNvdXJjZS1saW5lPSI2OSIgZGF0YS11aWQ9ImxuazQzIiBpZD0ibGlua19yZWFjdF9HTU40MSI+PHBhdGggZD0iTTM3Mi4wNTkyLDEyNS41IEMzNzIuMTMxMSwxMjUuNSAzNzIuMjAzMSwxMjUuNSAzNzIuMjc1MSwxMjUuNSBDMzcyLjU2MzEsMTI1LjUgMzcyLjg1MTEsMTI1LjUgMzczLjEzOSwxMjUuNSBDMzczLjcxNSwxMjUuNSAzNzQuMjkwOSwxMjUuNSAzNzQuODY2OCwxMjUuNSBDMzc2LjAxODcsMTI1LjUgMzc3LjE3MDUsMTI1LjUgMzc4LjMyMjMsMTI1LjUgQzM4Mi45Mjk3LDEyNS41IDM4Ny41MzY5LDEyNS41IDM5Mi4xNDM3LDEyNS41IEM0MDEuMzU3NSwxMjUuNSA0MTAuNTcsMTI1LjUgNDE5Ljc4LDEyNS41IiBmaWxsPSJub25lIiBpZD0icmVhY3QtR01ONDEiIHN0eWxlPSJzdHJva2U6IzE4MTgxODtzdHJva2Utd2lkdGg6MTtzdHJva2UtZGFzaGFycmF5OjcuMCw3LjA7Ii8+PC9nPjwhLS1saW5rIGZsYXNrIHRvIEdNTjQ0LS0+PGcgY2xhc3M9ImxpbmsiIGRhdGEtZW50aXR5LTE9ImZsYXNrIiBkYXRhLWVudGl0eS0yPSJHTU40NCIgZGF0YS1zb3VyY2UtbGluZT0iNzYiIGRhdGEtdWlkPSJsbms0NiIgaWQ9ImxpbmtfZmxhc2tfR01ONDQiPjxwYXRoIGQ9Ik05MzMuODgxMSwzNDUuNSBDOTM0LjgyMzQsMzQ1LjUgOTM1Ljc2NTgsMzQ1LjUgOTM2LjcwODEsMzQ1LjUgQzk0MC40Nzc1LDM0NS41IDk0NC4yNDY5LDM0NS41IDk0OC4wMTYzLDM0NS41IEM5NTUuNTU1LDM0NS41IDk2My4wOTM4LDM0NS41IDk3MC42MzI1LDM0NS41IEM5ODUuNzEsMzQ1LjUgMTAwMC43ODc1LDM0NS41IDEwMTUuODY1LDM0NS41IEMxMDQ2LjAyLDM0NS41IDEwNzYuMTc1LDM0NS41IDExMDYuMzMsMzQ1LjUgQzExNjYuNjQsMzQ1LjUgMTIyNi45NSwzNDUuNSAxMjg3LjI2LDM0NS41IEMxNDA3Ljg4LDM0NS41IDE1MjguNSwzNDUuNSAxNjQ5LjEyLDM0NS41IiBmaWxsPSJub25lIiBpZD0iZmxhc2stR01ONDQiIHN0eWxlPSJzdHJva2U6IzE4MTgxODtzdHJva2Utd2lkdGg6MTtzdHJva2UtZGFzaGFycmF5OjcuMCw3LjA7Ii8+PC9nPjwhLS1saW5rIGRiIHRvIEdNTjQ3LS0+PGcgY2xhc3M9ImxpbmsiIGRhdGEtZW50aXR5LTE9ImRiIiBkYXRhLWVudGl0eS0yPSJHTU40NyIgZGF0YS1zb3VyY2UtbGluZT0iODQiIGRhdGEtdWlkPSJsbms0OSIgaWQ9ImxpbmtfZGJfR01ONDciPjxwYXRoIGQ9Ik0xNjg5Ljg3ODIsNTY2Ljk4MDcgQzE2ODkuNzkzMiw1NjYuNTEyNiAxNjg5LjcwODcsNTY2LjA0MTQgMTY4OS42MjQ3LDU2NS41NjcxIEMxNjg4Ljk1MjcsNTYxLjc3MjYgMTY4OC4zMTIyLDU1Ny43ODMyIDE2ODcuNzM2Nyw1NTMuNjUyOSBDMTY4Ni41ODU4LDU0NS4zOTIzIDE2ODUuNjk1LDUzNi41NjgxIDE2ODUuMzMyNSw1MjcuNjEyNSBDMTY4My44ODI1LDQ5MS43OSAxNjkwLjg4NSw0NTMuODY1IDE3MjMuNSw0NDEuNSBDMTc3NS4xOSw0MjEuOSAyNjY2LjgxLDQyMS45IDI3MTguNSw0NDEuNSBDMjc3NS45Niw0NjMuMjkgMjgxNC4zMyw1MjguMzYgMjgzMy4yNSw1NjguNDkiIGZpbGw9Im5vbmUiIGlkPSJkYi1HTU40NyIgc3R5bGU9InN0cm9rZTojMTgxODE4O3N0cm9rZS13aWR0aDoxO3N0cm9rZS1kYXNoYXJyYXk6Ny4wLDcuMDsiLz48L2c+PCEtLVNSQz1bVkxOUlpqQ200N3RGTG1uelc1QXFNaTRaR1lscmFZd0xrajFqa1dXYTlFR2FxekhRbm13czByaUdfeXhPSmtXNXhfUVhZZV9GVTJ3VUVOdk11ZlBCWDdLd3RPbV9OMnpKQTBHcDlhZENGUFNEcXdtNlpPTGJpWDg4bG5FV3R1R0x6dkxNaElvZElZWnp4anJNQXNiSGJiVE5pRUpMcGF2NFl0NWNKaTBIeUxlWm9aWXBQOVJyajJ5ZVhGZVB2LTYzSElzUEUxcDl6ZTZmVDhkUWlzMFlvQ29aU3VlcXV4eUdOaHo5X1lIOUdwWWg0ME9oWkdRYlBQT2gyS2tzSHBzMGF5SDJ3ZVRJM0RSODJXbHBaWjQwUGNaTkdPNXZuZnVBbmNpM2pvc3MyN1NCSl9fazVlLUlPT1FNU0c2VkVGeHF6REFsT19vdlBjcTlRX24xckZ4bWhTRS1qSnA2N3ZTcmJwMVpQZlNoZmFGaXA2NHpfeXo5UlNQRDh0WG5MZmgzSlZ2TmNKYXJxM3NDTG1sOEtGem1UMVVGMXdFcjZSVHNIeE5sTjdvTHB5NFhJbERWN1daWDRIQXBkUWNZaFNhTzVoOTJ5dV9FX1VnOVl6WGVKaGJ2aGxNVlp6VUx4ZTZXX2tIR3J6OVpDUGlyekg0YjNJYTVLbl9Zcm03a2drbC1wd2pzaV9KYnVXS1FScjZCVUJLLUpqVUdvZWZjemdpU1JqM0drVEhyYm9hcFV6Znd3TXJMZU1FYzd2T2hJMS1pdV9qMjNxdDNmbGpXOGFLSkNfYnlGTDdBTUJYSDlPZUdzNEVMRW9aNnBqd0ZkT1U2UVluUHBXTXRVc3pZVGdvOUREUUNQbHBHS1R0NFh3SlQ4Y1Y2SklSdmdaSGNqeWltMVZjSjAtUUV6QnAyaHgtTFVPbnlIcUtwNEZoQ2lyaTdGNDhFTkowTWdBcXZSZTd5WVVqdFh5eUhJcFNibl9WVk15TFJPQ3hmRnhEQXp3cmZtZFN5dXhqNkE1T1lETVd0MG82d0tYS2NIbFN0MkRDVDVsVUR1WnN4emxTUWtQa3Fxek1aZlptSHNfLWNGZ3NUTWRMaXdndGlQaENBaE9McmhyaWR1VUdrc25pYlNVLXFXWXBjaE1xcjFma3dHU0RTRzJ6V2dnR0Mwc1lJZUIwTjVyVVRkaG81bVZsRFBmTFRoakRpdXV1UDk2NzNLTVkyUTd5WGtxSkVUZ2NIUTlWUW9lY292ZkpXcU1QVi1CVlRmSW1rRm52bC11b3lFSUt2SUNZSEd6dEtUUHprY2hoRlZib3dmSC01SDJnQmVEcngxTWVSdFdxZ3E2WktGb1NtekNfQm96Njh1MGptX0tnUUhlYmlNTzRVZWRybkdIQTNxM09xQjZXd3IzSEs5cXUyTEFCWGJLcFNPU3hSa0stVlpGU3YyS2VFbXczUmhzMnI5X01MbFV6OVFxWGhaMDZYQWJ2dW80YXhNT0dzd2xwSU9xT29HSS1wOVVxRGgxRFBWcEdHRm42WnFRbVYtRTVYdUZpR0NnbFJtbEw2d05NWGx2dFdQUmdPYU9HcFFMWk44bXZyTHhlN3JMMjFrYlZhZF8tX10tLT48L2c+PC9zdmc+;" parent="1" vertex="1">
            <mxGeometry x="93" y="-371" width="2946" height="806" as="geometry" />
          </mxCell>
        </UserObject>
      </root>
    </mxGraphModel>
  </diagram>
  <diagram id="PnOT-LPFLIFcZ3Km6lQN" name="Page-2">
    <mxGraphModel dx="1431" dy="1053" grid="0" gridSize="10" guides="1" tooltips="1" connect="1" arrows="1" fold="1" page="0" pageScale="1" pageWidth="850" pageHeight="1100" math="0" shadow="0">
      <root>
        <mxCell id="0" />
        <mxCell id="1" parent="0" />
        <mxCell id="23mFUfpmsyXKuyta2ElO-1" value="&lt;h1&gt;&lt;font face=&quot;Times New Roman&quot;&gt;System Architecture Diagram&lt;/font&gt;&lt;/h1&gt;" style="text;strokeColor=none;fillColor=none;html=1;align=center;verticalAlign=middle;whiteSpace=wrap;rounded=0;fontSize=16;" vertex="1" parent="1">
          <mxGeometry x="-252" y="-116" width="456" height="30" as="geometry" />
        </mxCell>
        <mxCell id="23mFUfpmsyXKuyta2ElO-2" value="&lt;div&gt;&lt;br&gt;&lt;/div&gt;&lt;div&gt;&lt;br&gt;&lt;/div&gt;&lt;div&gt;&lt;br&gt;&lt;/div&gt;&lt;div&gt;&lt;br&gt;&lt;/div&gt;&lt;div&gt;&lt;br&gt;&lt;/div&gt;&lt;div&gt;&lt;br&gt;&lt;/div&gt;&lt;div&gt;&lt;br&gt;&lt;/div&gt;&lt;div&gt;&lt;br&gt;&lt;/div&gt;&lt;div&gt;&lt;br&gt;&lt;/div&gt;&lt;div&gt;&lt;br&gt;&lt;/div&gt;&lt;div&gt;&lt;span style=&quot;background-color: transparent; color: light-dark(rgb(0, 0, 0), rgb(255, 255, 255));&quot;&gt;Presentation Layer&lt;/span&gt;&lt;/div&gt;" style="whiteSpace=wrap;html=1;aspect=fixed;" vertex="1" parent="1">
          <mxGeometry x="-120" y="-66" width="181" height="181" as="geometry" />
        </mxCell>
        <mxCell id="23mFUfpmsyXKuyta2ElO-3" value="Claimant" style="rounded=0;whiteSpace=wrap;html=1;" vertex="1" parent="1">
          <mxGeometry x="-78" y="-54" width="120" height="35" as="geometry" />
        </mxCell>
        <mxCell id="23mFUfpmsyXKuyta2ElO-4" value="Claim Handler" style="rounded=0;whiteSpace=wrap;html=1;" vertex="1" parent="1">
          <mxGeometry x="-84" y="-10" width="120" height="35" as="geometry" />
        </mxCell>
        <mxCell id="23mFUfpmsyXKuyta2ElO-5" value="Admin" style="rounded=0;whiteSpace=wrap;html=1;" vertex="1" parent="1">
          <mxGeometry x="-80" y="33" width="120" height="35" as="geometry" />
        </mxCell>
        <mxCell id="23mFUfpmsyXKuyta2ElO-6" value="" style="endArrow=none;html=1;rounded=0;fontSize=12;startSize=8;endSize=8;curved=1;entryX=0.438;entryY=1.003;entryDx=0;entryDy=0;entryPerimeter=0;" edge="1" parent="1" target="23mFUfpmsyXKuyta2ElO-2">
          <mxGeometry width="50" height="50" relative="1" as="geometry">
            <mxPoint x="-41" y="154" as="sourcePoint" />
            <mxPoint x="9" y="141" as="targetPoint" />
          </mxGeometry>
        </mxCell>
        <mxCell id="23mFUfpmsyXKuyta2ElO-7" value="&lt;div&gt;&lt;br&gt;&lt;/div&gt;&lt;div&gt;&lt;br&gt;&lt;/div&gt;&lt;div&gt;&lt;br&gt;&lt;/div&gt;&lt;div&gt;&lt;br&gt;&lt;/div&gt;&lt;div&gt;&lt;br&gt;&lt;/div&gt;&lt;div&gt;&lt;br&gt;&lt;/div&gt;&lt;div&gt;&lt;br&gt;&lt;/div&gt;Application Layer" style="whiteSpace=wrap;html=1;aspect=fixed;" vertex="1" parent="1">
          <mxGeometry x="-100" y="148" width="132" height="132" as="geometry" />
        </mxCell>
        <mxCell id="23mFUfpmsyXKuyta2ElO-8" value="Flask APIs" style="rounded=0;whiteSpace=wrap;html=1;" vertex="1" parent="1">
          <mxGeometry x="-94" y="156" width="120" height="29" as="geometry" />
        </mxCell>
        <mxCell id="23mFUfpmsyXKuyta2ElO-9" value="Node Js" style="rounded=0;whiteSpace=wrap;html=1;" vertex="1" parent="1">
          <mxGeometry x="-94" y="189" width="120" height="29" as="geometry" />
        </mxCell>
        <mxCell id="23mFUfpmsyXKuyta2ElO-10" value="Rest APIs" style="rounded=0;whiteSpace=wrap;html=1;" vertex="1" parent="1">
          <mxGeometry x="-94" y="224" width="120" height="29" as="geometry" />
        </mxCell>
        <mxCell id="23mFUfpmsyXKuyta2ElO-11" value="&lt;div&gt;&lt;br&gt;&lt;/div&gt;&lt;div&gt;&lt;br&gt;&lt;/div&gt;&lt;div&gt;&lt;br&gt;&lt;/div&gt;&lt;div&gt;&lt;br&gt;&lt;/div&gt;&lt;div&gt;&lt;br&gt;&lt;/div&gt;&lt;div&gt;&lt;br&gt;&lt;/div&gt;&lt;div&gt;&lt;br&gt;&lt;/div&gt;&lt;div&gt;&lt;br&gt;&lt;/div&gt;ML Layer" style="whiteSpace=wrap;html=1;aspect=fixed;" vertex="1" parent="1">
          <mxGeometry x="-104" y="308" width="144" height="144" as="geometry" />
        </mxCell>
        <mxCell id="23mFUfpmsyXKuyta2ElO-12" value="" style="endArrow=none;html=1;rounded=0;fontSize=12;startSize=8;endSize=8;curved=1;entryX=0.437;entryY=0.999;entryDx=0;entryDy=0;entryPerimeter=0;" edge="1" parent="1" target="23mFUfpmsyXKuyta2ElO-7">
          <mxGeometry width="50" height="50" relative="1" as="geometry">
            <mxPoint x="-42" y="308" as="sourcePoint" />
            <mxPoint x="-55" y="287" as="targetPoint" />
          </mxGeometry>
        </mxCell>
        <mxCell id="23mFUfpmsyXKuyta2ElO-13" value="OCR Engine" style="rounded=0;whiteSpace=wrap;html=1;" vertex="1" parent="1">
          <mxGeometry x="-89.5" y="312" width="120" height="36" as="geometry" />
        </mxCell>
        <mxCell id="23mFUfpmsyXKuyta2ElO-14" value="XG Boost Models" style="rounded=0;whiteSpace=wrap;html=1;" vertex="1" parent="1">
          <mxGeometry x="-89.5" y="355" width="120" height="36" as="geometry" />
        </mxCell>
        <mxCell id="23mFUfpmsyXKuyta2ElO-15" value="NLP Extractor" style="rounded=0;whiteSpace=wrap;html=1;" vertex="1" parent="1">
          <mxGeometry x="-92" y="395" width="120" height="36" as="geometry" />
        </mxCell>
        <mxCell id="23mFUfpmsyXKuyta2ElO-16" value="" style="endArrow=none;html=1;rounded=0;fontSize=12;startSize=8;endSize=8;curved=1;exitX=1;exitY=0.444;exitDx=0;exitDy=0;exitPerimeter=0;" edge="1" parent="1" source="23mFUfpmsyXKuyta2ElO-11">
          <mxGeometry width="50" height="50" relative="1" as="geometry">
            <mxPoint x="71" y="385" as="sourcePoint" />
            <mxPoint x="89" y="372" as="targetPoint" />
          </mxGeometry>
        </mxCell>
        <mxCell id="23mFUfpmsyXKuyta2ElO-17" value="&lt;div&gt;Postgre SQL&lt;/div&gt;&lt;div&gt;&lt;br&gt;&lt;/div&gt;&lt;div&gt;&lt;br&gt;&lt;/div&gt;&lt;div&gt;&lt;br&gt;&lt;/div&gt;&lt;div&gt;&lt;br&gt;&lt;/div&gt;Data Layer" style="whiteSpace=wrap;html=1;aspect=fixed;" vertex="1" parent="1">
          <mxGeometry x="89" y="312" width="148" height="148" as="geometry" />
        </mxCell>
        <mxCell id="23mFUfpmsyXKuyta2ElO-18" value="Postgre SQL" style="rounded=0;whiteSpace=wrap;html=1;" vertex="1" parent="1">
          <mxGeometry x="107" y="325" width="120" height="47" as="geometry" />
        </mxCell>
      </root>
    </mxGraphModel>
  </diagram>
  <diagram id="a7UfmoqB3A-BtBnQleS_" name="Page-3">
    <mxGraphModel dx="2386" dy="1405" grid="0" gridSize="10" guides="1" tooltips="1" connect="1" arrows="1" fold="1" page="0" pageScale="1" pageWidth="850" pageHeight="1100" math="0" shadow="0">
      <root>
        <mxCell id="0" />
        <mxCell id="1" parent="0" />
        <UserObject label="" plantUmlData="{&quot;data&quot;:&quot;@startuml SmartClaims_UseCases\n\nleft to right direction\nskinparam packageStyle rectangle\n\nactor \&quot;Claims Handler\&quot; as handler\nactor \&quot;Fraud Investigator\&quot; as investigator\nactor \&quot;Claims Manager\&quot; as manager\nactor \&quot;System Administrator\&quot; as admin\n\nrectangle \&quot;SmartClaims System\&quot; {\n    usecase \&quot;Login / Logout\&quot; as UC1\n    usecase \&quot;Upload Claim Document\&quot; as UC2\n    usecase \&quot;View Claims Queue\&quot; as UC3\n    usecase \&quot;Review Claim Details\&quot; as UC4\n    usecase \&quot;Review Fraud Alerts\&quot; as UC5\n    usecase \&quot;Investigate Flagged Claim\&quot; as UC6\n    usecase \&quot;View Reserve Estimate\&quot; as UC7\n    usecase \&quot;Approve/Deny Claim\&quot; as UC8\n    usecase \&quot;Request Additional Info\&quot; as UC9\n    usecase \&quot;Provide Feedback on\\nFraud Alert\&quot; as UC10\n    usecase \&quot;Provide Feedback on\\nReserve Estimate\&quot; as UC11\n    usecase \&quot;View Analytics Dashboard\&quot; as UC12\n    usecase \&quot;Generate Reports\&quot; as UC13\n    usecase \&quot;Manage Users\&quot; as UC14\n    usecase \&quot;Verify User Accounts\&quot; as UC15\n    usecase \&quot;Monitor System Health\&quot; as UC16\n    usecase \&quot;Configure System Settings\&quot; as UC17\n}\n\nhandler --&gt; UC1\nhandler --&gt; UC2\nhandler --&gt; UC3\nhandler --&gt; UC4\nhandler --&gt; UC5\nhandler --&gt; UC7\nhandler --&gt; UC8\nhandler --&gt; UC9\nhandler --&gt; UC10\nhandler --&gt; UC11\n\ninvestigator --&gt; UC1\ninvestigator --&gt; UC3\ninvestigator --&gt; UC4\ninvestigator --&gt; UC5\ninvestigator --&gt; UC6\ninvestigator --&gt; UC10\n\nmanager --&gt; UC1\nmanager --&gt; UC3\nmanager --&gt; UC4\nmanager --&gt; UC12\nmanager --&gt; UC13\n\nadmin --&gt; UC1\nadmin --&gt; UC14\nadmin --&gt; UC15\nadmin --&gt; UC16\nadmin --&gt; UC17\n\nUC2 ..&gt; UC4 : &lt;&lt;include&gt;&gt;\nUC4 ..&gt; UC5 : &lt;&lt;include&gt;&gt;\nUC4 ..&gt; UC7 : &lt;&lt;include&gt;&gt;\nUC6 ..&gt; UC5 : &lt;&lt;extend&gt;&gt;\nUC8 ..&gt; UC10 : &lt;&lt;extend&gt;&gt;\nUC8 ..&gt; UC11 : &lt;&lt;extend&gt;&gt;\n\nnote right of UC5\n  Fraud alerts are automatically\n  generated but require human review\nend note\n\nnote right of UC7\n  Reserve estimates provide\n  baseline recommendations\nend note\n\n@enduml&quot;,&quot;format&quot;:&quot;svg&quot;}" id="i2cRfKAko5JzG9N57va1-1">
          <mxCell style="shape=image;noLabel=1;verticalAlign=top;aspect=fixed;imageAspect=0;image=data:image/svg+xml,PHN2ZyB4bWxucz0iaHR0cDovL3d3dy53My5vcmcvMjAwMC9zdmciIHhtbG5zOnhsaW5rPSJodHRwOi8vd3d3LnczLm9yZy8xOTk5L3hsaW5rIiBjb250ZW50U3R5bGVUeXBlPSJ0ZXh0L2NzcyIgZGF0YS1kaWFncmFtLXR5cGU9IkRFU0NSSVBUSU9OIiBoZWlnaHQ9IjE1OTZweCIgcHJlc2VydmVBc3BlY3RSYXRpbz0ibm9uZSIgc3R5bGU9IndpZHRoOjEzNjFweDtoZWlnaHQ6MTU5NnB4O2JhY2tncm91bmQ6I0ZGRkZGRjsiIHZlcnNpb249IjEuMSIgdmlld0JveD0iMCAwIDEzNjEgMTU5NiIgd2lkdGg9IjEzNjFweCIgem9vbUFuZFBhbj0ibWFnbmlmeSI+PGRlZnMvPjxnPjwhLS1jbHVzdGVyIFNtYXJ0Q2xhaW1zIFN5c3RlbS0tPjxnIGNsYXNzPSJjbHVzdGVyIiBkYXRhLWVudGl0eT0iU21hcnRDbGFpbXMgU3lzdGVtIiBkYXRhLXNvdXJjZS1saW5lPSI5IiBkYXRhLXVpZD0iZW50MDAwNiIgaWQ9ImNsdXN0ZXJfU21hcnRDbGFpbXMgU3lzdGVtIj48cmVjdCBmaWxsPSJub25lIiBoZWlnaHQ9IjgzMSIgcng9IjIuNSIgcnk9IjIuNSIgc3R5bGU9InN0cm9rZTojMTgxODE4O3N0cm9rZS13aWR0aDoxOyIgd2lkdGg9Ijg3MiIgeD0iMTkzIiB5PSIyMzQuMjYiLz48dGV4dCBmaWxsPSIjMDAwMDAwIiBmb250LWZhbWlseT0ic2Fucy1zZXJpZiIgZm9udC1zaXplPSIxNCIgZm9udC13ZWlnaHQ9ImJvbGQiIGxlbmd0aEFkanVzdD0ic3BhY2luZyIgdGV4dExlbmd0aD0iMTI2IiB4PSI1NjYiIHk9IjI0OS40OTQ0Ij5TbWFydENsYWltcyBTeXN0ZW08L3RleHQ+PC9nPjxnIGNsYXNzPSJlbnRpdHkiIGRhdGEtZW50aXR5PSJVQzEiIGRhdGEtc291cmNlLWxpbmU9IjEwIiBkYXRhLXVpZD0iZW50MDAwNyIgaWQ9ImVudGl0eV9VQzEiPjxlbGxpcHNlIGN4PSIzMTIuNTQ1NiIgY3k9IjU4Mi4wNjkxIiBmaWxsPSIjRjFGMUYxIiByeD0iNjkuNTQ1NiIgcnk9IjE2LjMwOTEiIHN0eWxlPSJzdHJva2U6IzE4MTgxODtzdHJva2Utd2lkdGg6MC41OyIvPjx0ZXh0IGZpbGw9IiMwMDAwMDAiIGZvbnQtZmFtaWx5PSJzYW5zLXNlcmlmIiBmb250LXNpemU9IjE0IiBsZW5ndGhBZGp1c3Q9InNwYWNpbmciIHRleHRMZW5ndGg9Ijk4IiB4PSIyNjMuNTQ1NiIgeT0iNTg1LjgxMTMiPkxvZ2luIC8gTG9nb3V0PC90ZXh0PjwvZz48ZyBjbGFzcz0iZW50aXR5IiBkYXRhLWVudGl0eT0iVUMyIiBkYXRhLXNvdXJjZS1saW5lPSIxMSIgZGF0YS11aWQ9ImVudDAwMDgiIGlkPSJlbnRpdHlfVUMyIj48ZWxsaXBzZSBjeD0iMzEyLjM4MzkiIGN5PSI4NzYuMzM2OCIgZmlsbD0iI0YxRjFGMSIgcng9IjkwLjg4MzkiIHJ5PSIyMC41NzY4IiBzdHlsZT0ic3Ryb2tlOiMxODE4MTg7c3Ryb2tlLXdpZHRoOjAuNTsiLz48dGV4dCBmaWxsPSIjMDAwMDAwIiBmb250LWZhbWlseT0ic2Fucy1zZXJpZiIgZm9udC1zaXplPSIxNCIgbGVuZ3RoQWRqdXN0PSJzcGFjaW5nIiB0ZXh0TGVuZ3RoPSIxNDciIHg9IjIzOC44ODM5IiB5PSI4ODAuMDc5Ij5VcGxvYWQgQ2xhaW0gRG9jdW1lbnQ8L3RleHQ+PC9nPjxnIGNsYXNzPSJlbnRpdHkiIGRhdGEtZW50aXR5PSJVQzMiIGRhdGEtc291cmNlLWxpbmU9IjEyIiBkYXRhLXVpZD0iZW50MDAwOSIgaWQ9ImVudGl0eV9VQzMiPjxlbGxpcHNlIGN4PSIzMTIuNDU1OCIgY3k9IjcyMi4zNTEyIiBmaWxsPSIjRjFGMUYxIiByeD0iNzguNDU1OCIgcnk9IjE4LjA5MTIiIHN0eWxlPSJzdHJva2U6IzE4MTgxODtzdHJva2Utd2lkdGg6MC41OyIvPjx0ZXh0IGZpbGw9IiMwMDAwMDAiIGZvbnQtZmFtaWx5PSJzYW5zLXNlcmlmIiBmb250LXNpemU9IjE0IiBsZW5ndGhBZGp1c3Q9InNwYWNpbmciIHRleHRMZW5ndGg9IjExOSIgeD0iMjUyLjk1NTgiIHk9IjcyNi4wOTMzIj5WaWV3IENsYWltcyBRdWV1ZTwvdGV4dD48L2c+PGcgY2xhc3M9ImVudGl0eSIgZGF0YS1lbnRpdHk9IlVDNCIgZGF0YS1zb3VyY2UtbGluZT0iMTMiIGRhdGEtdWlkPSJlbnQwMDEwIiBpZD0iZW50aXR5X1VDNCI+PGVsbGlwc2UgY3g9IjY0MS43MzA5IiBjeT0iOTQ2LjIwNjIiIGZpbGw9IiNGMUYxRjEiIHJ4PSI4Ny43MzA5IiByeT0iMTkuOTQ2MiIgc3R5bGU9InN0cm9rZTojMTgxODE4O3N0cm9rZS13aWR0aDowLjU7Ii8+PHRleHQgZmlsbD0iIzAwMDAwMCIgZm9udC1mYW1pbHk9InNhbnMtc2VyaWYiIGZvbnQtc2l6ZT0iMTQiIGxlbmd0aEFkanVzdD0ic3BhY2luZyIgdGV4dExlbmd0aD0iMTQwIiB4PSI1NzEuNzMwOSIgeT0iOTQ5Ljk0ODQiPlJldmlldyBDbGFpbSBEZXRhaWxzPC90ZXh0PjwvZz48ZyBjbGFzcz0iZW50aXR5IiBkYXRhLWVudGl0eT0iVUM1IiBkYXRhLXNvdXJjZS1saW5lPSIxNCIgZGF0YS11aWQ9ImVudDAwMTEiIGlkPSJlbnRpdHlfVUM1Ij48ZWxsaXBzZSBjeD0iOTU4LjEwNjIiIGN5PSI5MDguMDgxMiIgZmlsbD0iI0YxRjFGMSIgcng9Ijg0LjYwNjIiIHJ5PSIxOS4zMjEyIiBzdHlsZT0ic3Ryb2tlOiMxODE4MTg7c3Ryb2tlLXdpZHRoOjAuNTsiLz48dGV4dCBmaWxsPSIjMDAwMDAwIiBmb250LWZhbWlseT0ic2Fucy1zZXJpZiIgZm9udC1zaXplPSIxNCIgbGVuZ3RoQWRqdXN0PSJzcGFjaW5nIiB0ZXh0TGVuZ3RoPSIxMzMiIHg9Ijg5MS42MDYyIiB5PSI5MTEuODIzNCI+UmV2aWV3IEZyYXVkIEFsZXJ0czwvdGV4dD48L2c+PGcgY2xhc3M9ImVudGl0eSIgZGF0YS1lbnRpdHk9IlVDNiIgZGF0YS1zb3VyY2UtbGluZT0iMTUiIGRhdGEtdWlkPSJlbnQwMDEyIiBpZD0iZW50aXR5X1VDNiI+PGVsbGlwc2UgY3g9IjY0MS43MjUyIiBjeT0iNDQwLjQwNSIgZmlsbD0iI0YxRjFGMSIgcng9IjEwMy43MjUyIiByeT0iMjMuMTQ1IiBzdHlsZT0ic3Ryb2tlOiMxODE4MTg7c3Ryb2tlLXdpZHRoOjAuNTsiLz48dGV4dCBmaWxsPSIjMDAwMDAwIiBmb250LWZhbWlseT0ic2Fucy1zZXJpZiIgZm9udC1zaXplPSIxNCIgbGVuZ3RoQWRqdXN0PSJzcGFjaW5nIiB0ZXh0TGVuZ3RoPSIxNzUiIHg9IjU1NC4yMjUyIiB5PSI0NDQuMTQ3MiI+SW52ZXN0aWdhdGUgRmxhZ2dlZCBDbGFpbTwvdGV4dD48L2c+PGcgY2xhc3M9ImVudGl0eSIgZGF0YS1lbnRpdHk9IlVDNyIgZGF0YS1zb3VyY2UtbGluZT0iMTYiIGRhdGEtdWlkPSJlbnQwMDEzIiBpZD0iZW50aXR5X1VDNyI+PGVsbGlwc2UgY3g9Ijk1Ny44ODM5IiBjeT0iOTg2LjMzNjgiIGZpbGw9IiNGMUYxRjEiIHJ4PSI5MC44ODM5IiByeT0iMjAuNTc2OCIgc3R5bGU9InN0cm9rZTojMTgxODE4O3N0cm9rZS13aWR0aDowLjU7Ii8+PHRleHQgZmlsbD0iIzAwMDAwMCIgZm9udC1mYW1pbHk9InNhbnMtc2VyaWYiIGZvbnQtc2l6ZT0iMTQiIGxlbmd0aEFkanVzdD0ic3BhY2luZyIgdGV4dExlbmd0aD0iMTQ3IiB4PSI4ODQuMzgzOSIgeT0iOTkwLjA3OSI+VmlldyBSZXNlcnZlIEVzdGltYXRlPC90ZXh0PjwvZz48ZyBjbGFzcz0iZW50aXR5IiBkYXRhLWVudGl0eT0iVUM4IiBkYXRhLXNvdXJjZS1saW5lPSIxNyIgZGF0YS11aWQ9ImVudDAwMTQiIGlkPSJlbnRpdHlfVUM4Ij48ZWxsaXBzZSBjeD0iMzEyLjUxMzIiIGN5PSIxMDMwLjQ2MjYiIGZpbGw9IiNGMUYxRjEiIHJ4PSI4MS41MTMyIiByeT0iMTguNzAyNiIgc3R5bGU9InN0cm9rZTojMTgxODE4O3N0cm9rZS13aWR0aDowLjU7Ii8+PHRleHQgZmlsbD0iIzAwMDAwMCIgZm9udC1mYW1pbHk9InNhbnMtc2VyaWYiIGZvbnQtc2l6ZT0iMTQiIGxlbmd0aEFkanVzdD0ic3BhY2luZyIgdGV4dExlbmd0aD0iMTI2IiB4PSIyNDkuNTEzMiIgeT0iMTAzNC4yMDQ4Ij5BcHByb3ZlL0RlbnkgQ2xhaW08L3RleHQ+PC9nPjxnIGNsYXNzPSJlbnRpdHkiIGRhdGEtZW50aXR5PSJVQzkiIGRhdGEtc291cmNlLWxpbmU9IjE4IiBkYXRhLXVpZD0iZW50MDAxNSIgaWQ9ImVudGl0eV9VQzkiPjxlbGxpcHNlIGN4PSIzMTIuMjYzMyIgY3k9Ijk1NC4xMTI3IiBmaWxsPSIjRjFGMUYxIiByeD0iOTcuMjYzMyIgcnk9IjIxLjg1MjciIHN0eWxlPSJzdHJva2U6IzE4MTgxODtzdHJva2Utd2lkdGg6MC41OyIvPjx0ZXh0IGZpbGw9IiMwMDAwMDAiIGZvbnQtZmFtaWx5PSJzYW5zLXNlcmlmIiBmb250LXNpemU9IjE0IiBsZW5ndGhBZGp1c3Q9InNwYWNpbmciIHRleHRMZW5ndGg9IjE2MSIgeD0iMjMxLjc2MzMiIHk9Ijk1Ny44NTQ4Ij5SZXF1ZXN0IEFkZGl0aW9uYWwgSW5mbzwvdGV4dD48L2c+PGcgY2xhc3M9ImVudGl0eSIgZGF0YS1lbnRpdHk9IlVDMTAiIGRhdGEtc291cmNlLWxpbmU9IjE5IiBkYXRhLXVpZD0iZW50MDAxNiIgaWQ9ImVudGl0eV9VQzEwIj48ZWxsaXBzZSBjeD0iNjQxLjUzMDUiIGN5PSI4NjcuNDUxMSIgZmlsbD0iI0YxRjFGMSIgcng9IjEwNS41MzA1IiByeT0iMjQuMTkxMSIgc3R5bGU9InN0cm9rZTojMTgxODE4O3N0cm9rZS13aWR0aDowLjU7Ii8+PHRleHQgZmlsbD0iIzAwMDAwMCIgZm9udC1mYW1pbHk9InNhbnMtc2VyaWYiIGZvbnQtc2l6ZT0iMTQiIGxlbmd0aEFkanVzdD0ic3BhY2luZyIgdGV4dExlbmd0aD0iMTMzIiB4PSI1NzUuMDMwNSIgeT0iODYzLjcwMTEiPlByb3ZpZGUgRmVlZGJhY2sgb248L3RleHQ+PHRleHQgZmlsbD0iIzAwMDAwMCIgZm9udC1mYW1pbHk9InNhbnMtc2VyaWYiIGZvbnQtc2l6ZT0iMTQiIGxlbmd0aEFkanVzdD0ic3BhY2luZyIgdGV4dExlbmd0aD0iNzciIHg9IjYwMy4wMzA1IiB5PSI4NzguNjg1NSI+RnJhdWQgQWxlcnQ8L3RleHQ+PC9nPjxnIGNsYXNzPSJlbnRpdHkiIGRhdGEtZW50aXR5PSJVQzExIiBkYXRhLXNvdXJjZS1saW5lPSIyMCIgZGF0YS11aWQ9ImVudDAwMTciIGlkPSJlbnRpdHlfVUMxMSI+PGVsbGlwc2UgY3g9IjY0MS41MzA1IiBjeT0iMTAyNS40NTExIiBmaWxsPSIjRjFGMUYxIiByeD0iMTA1LjUzMDUiIHJ5PSIyNC4xOTExIiBzdHlsZT0ic3Ryb2tlOiMxODE4MTg7c3Ryb2tlLXdpZHRoOjAuNTsiLz48dGV4dCBmaWxsPSIjMDAwMDAwIiBmb250LWZhbWlseT0ic2Fucy1zZXJpZiIgZm9udC1zaXplPSIxNCIgbGVuZ3RoQWRqdXN0PSJzcGFjaW5nIiB0ZXh0TGVuZ3RoPSIxMzMiIHg9IjU3NS4wMzA1IiB5PSIxMDIxLjcwMTEiPlByb3ZpZGUgRmVlZGJhY2sgb248L3RleHQ+PHRleHQgZmlsbD0iIzAwMDAwMCIgZm9udC1mYW1pbHk9InNhbnMtc2VyaWYiIGZvbnQtc2l6ZT0iMTQiIGxlbmd0aEFkanVzdD0ic3BhY2luZyIgdGV4dExlbmd0aD0iMTEyIiB4PSI1ODUuNTMwNSIgeT0iMTAzNi42ODU1Ij5SZXNlcnZlIEVzdGltYXRlPC90ZXh0PjwvZz48ZyBjbGFzcz0iZW50aXR5IiBkYXRhLWVudGl0eT0iVUMxMiIgZGF0YS1zb3VyY2UtbGluZT0iMjEiIGRhdGEtdWlkPSJlbnQwMDE4IiBpZD0iZW50aXR5X1VDMTIiPjxlbGxpcHNlIGN4PSIzMTIuNDg1IiBjeT0iNzk4LjI1NyIgZmlsbD0iI0YxRjFGMSIgcng9IjEwMC40ODUiIHJ5PSIyMi40OTciIHN0eWxlPSJzdHJva2U6IzE4MTgxODtzdHJva2Utd2lkdGg6MC41OyIvPjx0ZXh0IGZpbGw9IiMwMDAwMDAiIGZvbnQtZmFtaWx5PSJzYW5zLXNlcmlmIiBmb250LXNpemU9IjE0IiBsZW5ndGhBZGp1c3Q9InNwYWNpbmciIHRleHRMZW5ndGg9IjE2OCIgeD0iMjI4LjQ4NSIgeT0iODAxLjk5OTIiPlZpZXcgQW5hbHl0aWNzIERhc2hib2FyZDwvdGV4dD48L2c+PGcgY2xhc3M9ImVudGl0eSIgZGF0YS1lbnRpdHk9IlVDMTMiIGRhdGEtc291cmNlLWxpbmU9IjIyIiBkYXRhLXVpZD0iZW50MDAxOSIgaWQ9ImVudGl0eV9VQzEzIj48ZWxsaXBzZSBjeD0iMzEyLjQzODQiIGN5PSI2NTEuMjQ3NyIgZmlsbD0iI0YxRjFGMSIgcng9Ijc1LjQzODQiIHJ5PSIxNy40ODc3IiBzdHlsZT0ic3Ryb2tlOiMxODE4MTg7c3Ryb2tlLXdpZHRoOjAuNTsiLz48dGV4dCBmaWxsPSIjMDAwMDAwIiBmb250LWZhbWlseT0ic2Fucy1zZXJpZiIgZm9udC1zaXplPSIxNCIgbGVuZ3RoQWRqdXN0PSJzcGFjaW5nIiB0ZXh0TGVuZ3RoPSIxMTIiIHg9IjI1Ni40Mzg0IiB5PSI2NTQuOTg5OSI+R2VuZXJhdGUgUmVwb3J0czwvdGV4dD48L2c+PGcgY2xhc3M9ImVudGl0eSIgZGF0YS1lbnRpdHk9IlVDMTQiIGRhdGEtc291cmNlLWxpbmU9IjIzIiBkYXRhLXVpZD0iZW50MDAyMCIgaWQ9ImVudGl0eV9VQzE0Ij48ZWxsaXBzZSBjeD0iMzEyLjM4NzgiIGN5PSI1MTUuNDM3NiIgZmlsbD0iI0YxRjFGMSIgcng9IjYzLjg4NzgiIHJ5PSIxNS4xNzc2IiBzdHlsZT0ic3Ryb2tlOiMxODE4MTg7c3Ryb2tlLXdpZHRoOjAuNTsiLz48dGV4dCBmaWxsPSIjMDAwMDAwIiBmb250LWZhbWlseT0ic2Fucy1zZXJpZiIgZm9udC1zaXplPSIxNCIgbGVuZ3RoQWRqdXN0PSJzcGFjaW5nIiB0ZXh0TGVuZ3RoPSI4NCIgeD0iMjcwLjM4NzgiIHk9IjUxOS4xNzk3Ij5NYW5hZ2UgVXNlcnM8L3RleHQ+PC9nPjxnIGNsYXNzPSJlbnRpdHkiIGRhdGEtZW50aXR5PSJVQzE1IiBkYXRhLXNvdXJjZS1saW5lPSIyNCIgZGF0YS11aWQ9ImVudDAwMjEiIGlkPSJlbnRpdHlfVUMxNSI+PGVsbGlwc2UgY3g9IjMxMi43MzA5IiBjeT0iMjg3LjIwNjIiIGZpbGw9IiNGMUYxRjEiIHJ4PSI4Ny43MzA5IiByeT0iMTkuOTQ2MiIgc3R5bGU9InN0cm9rZTojMTgxODE4O3N0cm9rZS13aWR0aDowLjU7Ii8+PHRleHQgZmlsbD0iIzAwMDAwMCIgZm9udC1mYW1pbHk9InNhbnMtc2VyaWYiIGZvbnQtc2l6ZT0iMTQiIGxlbmd0aEFkanVzdD0ic3BhY2luZyIgdGV4dExlbmd0aD0iMTQwIiB4PSIyNDIuNzMwOSIgeT0iMjkwLjk0ODQiPlZlcmlmeSBVc2VyIEFjY291bnRzPC90ZXh0PjwvZz48ZyBjbGFzcz0iZW50aXR5IiBkYXRhLWVudGl0eT0iVUMxNiIgZGF0YS1zb3VyY2UtbGluZT0iMjUiIGRhdGEtdWlkPSJlbnQwMDIyIiBpZD0iZW50aXR5X1VDMTYiPjxlbGxpcHNlIGN4PSIzMTIuMzgzOSIgY3k9IjM2My4zMzY4IiBmaWxsPSIjRjFGMUYxIiByeD0iOTAuODgzOSIgcnk9IjIwLjU3NjgiIHN0eWxlPSJzdHJva2U6IzE4MTgxODtzdHJva2Utd2lkdGg6MC41OyIvPjx0ZXh0IGZpbGw9IiMwMDAwMDAiIGZvbnQtZmFtaWx5PSJzYW5zLXNlcmlmIiBmb250LXNpemU9IjE0IiBsZW5ndGhBZGp1c3Q9InNwYWNpbmciIHRleHRMZW5ndGg9IjE0NyIgeD0iMjM4Ljg4MzkiIHk9IjM2Ny4wNzkiPk1vbml0b3IgU3lzdGVtIEhlYWx0aDwvdGV4dD48L2c+PGcgY2xhc3M9ImVudGl0eSIgZGF0YS1lbnRpdHk9IlVDMTciIGRhdGEtc291cmNlLWxpbmU9IjI2IiBkYXRhLXVpZD0iZW50MDAyMyIgaWQ9ImVudGl0eV9VQzE3Ij48ZWxsaXBzZSBjeD0iMzEyLjcyNTIiIGN5PSI0NDIuNDA1IiBmaWxsPSIjRjFGMUYxIiByeD0iMTAzLjcyNTIiIHJ5PSIyMy4xNDUiIHN0eWxlPSJzdHJva2U6IzE4MTgxODtzdHJva2Utd2lkdGg6MC41OyIvPjx0ZXh0IGZpbGw9IiMwMDAwMDAiIGZvbnQtZmFtaWx5PSJzYW5zLXNlcmlmIiBmb250LXNpemU9IjE0IiBsZW5ndGhBZGp1c3Q9InNwYWNpbmciIHRleHRMZW5ndGg9IjE3NSIgeD0iMjI1LjIyNTIiIHk9IjQ0Ni4xNDcyIj5Db25maWd1cmUgU3lzdGVtIFNldHRpbmdzPC90ZXh0PjwvZz48IS0tZW50aXR5IGhhbmRsZXItLT48ZyBjbGFzcz0iZW50aXR5IiBkYXRhLWVudGl0eT0iaGFuZGxlciIgZGF0YS1zb3VyY2UtbGluZT0iNCIgZGF0YS11aWQ9ImVudDAwMDIiIGlkPSJlbnRpdHlfaGFuZGxlciI+PGVsbGlwc2UgY3g9Ijc2IiBjeT0iMTEyMy4yNiIgZmlsbD0iI0YxRjFGMSIgcng9IjgiIHJ5PSI4IiBzdHlsZT0ic3Ryb2tlOiMxODE4MTg7c3Ryb2tlLXdpZHRoOjAuNTsiLz48cGF0aCBkPSJNNzYsMTEzMS4yNiBMNzYsMTE1OC4yNiBNNjMsMTEzOS4yNiBMODksMTEzOS4yNiBNNzYsMTE1OC4yNiBMNjMsMTE3My4yNiBNNzYsMTE1OC4yNiBMODksMTE3My4yNiIgZmlsbD0ibm9uZSIgc3R5bGU9InN0cm9rZTojMTgxODE4O3N0cm9rZS13aWR0aDowLjU7Ii8+PHRleHQgZmlsbD0iIzAwMDAwMCIgZm9udC1mYW1pbHk9InNhbnMtc2VyaWYiIGZvbnQtc2l6ZT0iMTQiIGxlbmd0aEFkanVzdD0ic3BhY2luZyIgdGV4dExlbmd0aD0iOTgiIHg9IjI3IiB5PSIxMTg3Ljk5NDQiPkNsYWltcyBIYW5kbGVyPC90ZXh0PjwvZz48IS0tZW50aXR5IGludmVzdGlnYXRvci0tPjxnIGNsYXNzPSJlbnRpdHkiIGRhdGEtZW50aXR5PSJpbnZlc3RpZ2F0b3IiIGRhdGEtc291cmNlLWxpbmU9IjUiIGRhdGEtdWlkPSJlbnQwMDAzIiBpZD0iZW50aXR5X2ludmVzdGlnYXRvciI+PGVsbGlwc2UgY3g9Ijc2IiBjeT0iMTUwLjI2IiBmaWxsPSIjRjFGMUYxIiByeD0iOCIgcnk9IjgiIHN0eWxlPSJzdHJva2U6IzE4MTgxODtzdHJva2Utd2lkdGg6MC41OyIvPjxwYXRoIGQ9Ik03NiwxNTguMjYgTDc2LDE4NS4yNiBNNjMsMTY2LjI2IEw4OSwxNjYuMjYgTTc2LDE4NS4yNiBMNjMsMjAwLjI2IE03NiwxODUuMjYgTDg5LDIwMC4yNiIgZmlsbD0ibm9uZSIgc3R5bGU9InN0cm9rZTojMTgxODE4O3N0cm9rZS13aWR0aDowLjU7Ii8+PHRleHQgZmlsbD0iIzAwMDAwMCIgZm9udC1mYW1pbHk9InNhbnMtc2VyaWYiIGZvbnQtc2l6ZT0iMTQiIGxlbmd0aEFkanVzdD0ic3BhY2luZyIgdGV4dExlbmd0aD0iMTI2IiB4PSIxMyIgeT0iMjE0Ljk5NDQiPkZyYXVkIEludmVzdGlnYXRvcjwvdGV4dD48L2c+PCEtLWVudGl0eSBtYW5hZ2VyLS0+PGcgY2xhc3M9ImVudGl0eSIgZGF0YS1lbnRpdHk9Im1hbmFnZXIiIGRhdGEtc291cmNlLWxpbmU9IjYiIGRhdGEtdWlkPSJlbnQwMDA0IiBpZD0iZW50aXR5X21hbmFnZXIiPjxlbGxpcHNlIGN4PSI3NiIgY3k9IjY5Ni4yNiIgZmlsbD0iI0YxRjFGMSIgcng9IjgiIHJ5PSI4IiBzdHlsZT0ic3Ryb2tlOiMxODE4MTg7c3Ryb2tlLXdpZHRoOjAuNTsiLz48cGF0aCBkPSJNNzYsNzA0LjI2IEw3Niw3MzEuMjYgTTYzLDcxMi4yNiBMODksNzEyLjI2IE03Niw3MzEuMjYgTDYzLDc0Ni4yNiBNNzYsNzMxLjI2IEw4OSw3NDYuMjYiIGZpbGw9Im5vbmUiIHN0eWxlPSJzdHJva2U6IzE4MTgxODtzdHJva2Utd2lkdGg6MC41OyIvPjx0ZXh0IGZpbGw9IiMwMDAwMDAiIGZvbnQtZmFtaWx5PSJzYW5zLXNlcmlmIiBmb250LXNpemU9IjE0IiBsZW5ndGhBZGp1c3Q9InNwYWNpbmciIHRleHRMZW5ndGg9Ijk4IiB4PSIyNyIgeT0iNzYwLjk5NDQiPkNsYWltcyBNYW5hZ2VyPC90ZXh0PjwvZz48IS0tZW50aXR5IGFkbWluLS0+PGcgY2xhc3M9ImVudGl0eSIgZGF0YS1lbnRpdHk9ImFkbWluIiBkYXRhLXNvdXJjZS1saW5lPSI3IiBkYXRhLXVpZD0iZW50MDAwNSIgaWQ9ImVudGl0eV9hZG1pbiI+PGVsbGlwc2UgY3g9Ijc2IiBjeT0iNDA5LjI2IiBmaWxsPSIjRjFGMUYxIiByeD0iOCIgcnk9IjgiIHN0eWxlPSJzdHJva2U6IzE4MTgxODtzdHJva2Utd2lkdGg6MC41OyIvPjxwYXRoIGQ9Ik03Niw0MTcuMjYgTDc2LDQ0NC4yNiBNNjMsNDI1LjI2IEw4OSw0MjUuMjYgTTc2LDQ0NC4yNiBMNjMsNDU5LjI2IE03Niw0NDQuMjYgTDg5LDQ1OS4yNiIgZmlsbD0ibm9uZSIgc3R5bGU9InN0cm9rZTojMTgxODE4O3N0cm9rZS13aWR0aDowLjU7Ii8+PHRleHQgZmlsbD0iIzAwMDAwMCIgZm9udC1mYW1pbHk9InNhbnMtc2VyaWYiIGZvbnQtc2l6ZT0iMTQiIGxlbmd0aEFkanVzdD0ic3BhY2luZyIgdGV4dExlbmd0aD0iMTQwIiB4PSI2IiB5PSI0NzMuOTk0NCI+U3lzdGVtIEFkbWluaXN0cmF0b3I8L3RleHQ+PC9nPjxnIGNsYXNzPSJlbnRpdHkiIGRhdGEtZW50aXR5PSJHTU41NiIgZGF0YS1zb3VyY2UtbGluZT0iNjciIGRhdGEtdWlkPSJlbnQwMDU3IiBpZD0iZW50aXR5X0dNTjU2Ij48cGF0aCBkPSJNMTExMiw4ODkuMjYgTDExMTIsOTA0LjI2IEwxMDQyLjc2LDkwOC4yNiBMMTExMiw5MTIuMjYgTDExMTIsOTI3LjA4ODEgQTAsMCAwIDAgMCAxMTEyLDkyNy4wODgxIEwxMzU0LDkyNy4wODgxIEEwLDAgMCAwIDAgMTM1NCw5MjcuMDg4MSBMMTM1NCw4OTkuMjYgTDEzNDQsODg5LjI2IEwxMTEyLDg4OS4yNiBBMCwwIDAgMCAwIDExMTIsODg5LjI2IiBmaWxsPSIjRkVGRkREIiBzdHlsZT0ic3Ryb2tlOiMxODE4MTg7c3Ryb2tlLXdpZHRoOjAuNTsiLz48cGF0aCBkPSJNMTM0NCw4ODkuMjYgTDEzNDQsODk5LjI2IEwxMzU0LDg5OS4yNiBMMTM0NCw4ODkuMjYiIGZpbGw9IiNGRUZGREQiIHN0eWxlPSJzdHJva2U6IzE4MTgxODtzdHJva2Utd2lkdGg6MC41OyIvPjx0ZXh0IGZpbGw9IiMwMDAwMDAiIGZvbnQtZmFtaWx5PSJzYW5zLXNlcmlmIiBmb250LXNpemU9IjEzIiBsZW5ndGhBZGp1c3Q9InNwYWNpbmciIHRleHRMZW5ndGg9IjE5NSIgeD0iMTExOCIgeT0iOTA2LjU0OTEiPkZyYXVkIGFsZXJ0cyBhcmUgYXV0b21hdGljYWxseTwvdGV4dD48dGV4dCBmaWxsPSIjMDAwMDAwIiBmb250LWZhbWlseT0ic2Fucy1zZXJpZiIgZm9udC1zaXplPSIxMyIgbGVuZ3RoQWRqdXN0PSJzcGFjaW5nIiB0ZXh0TGVuZ3RoPSIyMjEiIHg9IjExMTgiIHk9IjkyMC40NjMxIj5nZW5lcmF0ZWQgYnV0IHJlcXVpcmUgaHVtYW4gcmV2aWV3PC90ZXh0PjwvZz48ZyBjbGFzcz0iZW50aXR5IiBkYXRhLWVudGl0eT0iR01ONTkiIGRhdGEtc291cmNlLWxpbmU9IjcyIiBkYXRhLXVpZD0iZW50MDA2MCIgaWQ9ImVudGl0eV9HTU41OSI+PHBhdGggZD0iTTExNDEuNSw5NjcuMjYgTDExNDEuNSw5ODIuMjYgTDEwNDkuMTUsOTg2LjI2IEwxMTQxLjUsOTkwLjI2IEwxMTQxLjUsMTAwNS4wODgxIEEwLDAgMCAwIDAgMTE0MS41LDEwMDUuMDg4MSBMMTMyNSwxMDA1LjA4ODEgQTAsMCAwIDAgMCAxMzI1LDEwMDUuMDg4MSBMMTMyNSw5NzcuMjYgTDEzMTUsOTY3LjI2IEwxMTQxLjUsOTY3LjI2IEEwLDAgMCAwIDAgMTE0MS41LDk2Ny4yNiIgZmlsbD0iI0ZFRkZERCIgc3R5bGU9InN0cm9rZTojMTgxODE4O3N0cm9rZS13aWR0aDowLjU7Ii8+PHBhdGggZD0iTTEzMTUsOTY3LjI2IEwxMzE1LDk3Ny4yNiBMMTMyNSw5NzcuMjYgTDEzMTUsOTY3LjI2IiBmaWxsPSIjRkVGRkREIiBzdHlsZT0ic3Ryb2tlOiMxODE4MTg7c3Ryb2tlLXdpZHRoOjAuNTsiLz48dGV4dCBmaWxsPSIjMDAwMDAwIiBmb250LWZhbWlseT0ic2Fucy1zZXJpZiIgZm9udC1zaXplPSIxMyIgbGVuZ3RoQWRqdXN0PSJzcGFjaW5nIiB0ZXh0TGVuZ3RoPSIxNjIuNSIgeD0iMTE0Ny41IiB5PSI5ODQuNTQ5MSI+UmVzZXJ2ZSBlc3RpbWF0ZXMgcHJvdmlkZTwvdGV4dD48dGV4dCBmaWxsPSIjMDAwMDAwIiBmb250LWZhbWlseT0ic2Fucy1zZXJpZiIgZm9udC1zaXplPSIxMyIgbGVuZ3RoQWRqdXN0PSJzcGFjaW5nIiB0ZXh0TGVuZ3RoPSIxNTYiIHg9IjExNDcuNSIgeT0iOTk4LjQ2MzEiPmJhc2VsaW5lIHJlY29tbWVuZGF0aW9uczwvdGV4dD48L2c+PCEtLWxpbmsgaGFuZGxlciB0byBVQzEtLT48ZyBjbGFzcz0ibGluayIgZGF0YS1lbnRpdHktMT0iaGFuZGxlciIgZGF0YS1lbnRpdHktMj0iVUMxIiBkYXRhLXNvdXJjZS1saW5lPSIyOSIgZGF0YS11aWQ9ImxuazI0IiBpZD0ibGlua19oYW5kbGVyX1VDMSI+PHBhdGggZD0iTTg0LjA3LDExMTQuNDYgQzEwNi42OCw5OTMuODUgMTc2LjMxLDYyNS41MiAxODUsNjE2LjI2IEMyMDAuNDgsNTk5Ljc2IDIxNy4xNjk0LDU5Mi4xNzkzIDIzOC45NTk0LDU4Ny41NzkzIiBmaWxsPSJub25lIiBpZD0iaGFuZGxlci10by1VQzEiIHN0eWxlPSJzdHJva2U6IzE4MTgxODtzdHJva2Utd2lkdGg6MTsiLz48cG9seWdvbiBmaWxsPSIjMTgxODE4IiBwb2ludHM9IjI0NC44Myw1ODYuMzQsMjM1LjE5NzksNTg0LjI4NTIsMjM5LjkzNzgsNTg3LjM3MjgsMjM2Ljg1MDMsNTkyLjExMjcsMjQ0LjgzLDU4Ni4zNCIgc3R5bGU9InN0cm9rZTojMTgxODE4O3N0cm9rZS13aWR0aDoxOyIvPjwvZz48IS0tbGluayBoYW5kbGVyIHRvIFVDMi0tPjxnIGNsYXNzPSJsaW5rIiBkYXRhLWVudGl0eS0xPSJoYW5kbGVyIiBkYXRhLWVudGl0eS0yPSJVQzIiIGRhdGEtc291cmNlLWxpbmU9IjMwIiBkYXRhLXVpZD0ibG5rMjUiIGlkPSJsaW5rX2hhbmRsZXJfVUMyIj48cGF0aCBkPSJNOTQuMjYsMTExNC41NCBDMTE0LjI3LDEwNzAuNzYgMTQ4LjE5LDk5Ni4zNSAxNzcsOTMyLjI2IEMxODAuNTksOTI0LjI3IDE3OC40Myw5MjAuMDQgMTg1LDkxNC4yNiBDMTk5LjM3LDkwMS42IDIxMi4wODM5LDg5NC45MTk5IDIzMC40MzM5LDg4OS4yODk5IiBmaWxsPSJub25lIiBpZD0iaGFuZGxlci10by1VQzIiIHN0eWxlPSJzdHJva2U6IzE4MTgxODtzdHJva2Utd2lkdGg6MTsiLz48cG9seWdvbiBmaWxsPSIjMTgxODE4IiBwb2ludHM9IjIzNi4xNyw4ODcuNTMsMjI2LjM5MjYsODg2LjM0NTgsMjMxLjM4OTksODg4Ljk5NjYsMjI4LjczOTEsODkzLjk5MzksMjM2LjE3LDg4Ny41MyIgc3R5bGU9InN0cm9rZTojMTgxODE4O3N0cm9rZS13aWR0aDoxOyIvPjwvZz48IS0tbGluayBoYW5kbGVyIHRvIFVDMy0tPjxnIGNsYXNzPSJsaW5rIiBkYXRhLWVudGl0eS0xPSJoYW5kbGVyIiBkYXRhLWVudGl0eS0yPSJVQzMiIGRhdGEtc291cmNlLWxpbmU9IjMxIiBkYXRhLXVpZD0ibG5rMjYiIGlkPSJsaW5rX2hhbmRsZXJfVUMzIj48cGF0aCBkPSJNODIuNTYsMTExNC41MSBDOTYuMywxMDI2LjExIDEzNC40Nyw4MDkuMjggMTg1LDc1OC4yNiBDMTk5LjcsNzQzLjQxIDIxNC4yNDI4LDczNi4wODg5IDIzNC4zMzI4LDczMC44Njg5IiBmaWxsPSJub25lIiBpZD0iaGFuZGxlci10by1VQzMiIHN0eWxlPSJzdHJva2U6IzE4MTgxODtzdHJva2Utd2lkdGg6MTsiLz48cG9seWdvbiBmaWxsPSIjMTgxODE4IiBwb2ludHM9IjI0MC4xNCw3MjkuMzYsMjMwLjQyMzMsNzI3Ljc1MTksMjM1LjMwMDcsNzMwLjYxNzQsMjMyLjQzNTIsNzM1LjQ5NDgsMjQwLjE0LDcyOS4zNiIgc3R5bGU9InN0cm9rZTojMTgxODE4O3N0cm9rZS13aWR0aDoxOyIvPjwvZz48IS0tbGluayBoYW5kbGVyIHRvIFVDNC0tPjxnIGNsYXNzPSJsaW5rIiBkYXRhLWVudGl0eS0xPSJoYW5kbGVyIiBkYXRhLWVudGl0eS0yPSJVQzQiIGRhdGEtc291cmNlLWxpbmU9IjMyIiBkYXRhLXVpZD0ibG5rMjciIGlkPSJsaW5rX2hhbmRsZXJfVUM0Ij48cGF0aCBkPSJNMTI1LjA1LDExNzcuOTggQzIxMi4zOSwxMjIwLjgyIDM5OC4wNywxMjkzLjIzIDUwNiwxMTk5LjI2IEM1NzkuMSwxMTM1LjYxIDQ3NC43NCwxMDU4LjM2IDUzNiw5ODMuMjYgQzU0NS4zMSw5NzEuODUgNTUyLjgwMyw5NjYuMTYzIDU2Ni41NjMsOTYwLjcwMyIgZmlsbD0ibm9uZSIgaWQ9ImhhbmRsZXItdG8tVUM0IiBzdHlsZT0ic3Ryb2tlOiMxODE4MTg7c3Ryb2tlLXdpZHRoOjE7Ii8+PHBvbHlnb24gZmlsbD0iIzE4MTgxOCIgcG9pbnRzPSI1NzIuMTQsOTU4LjQ5LDU2Mi4yOTkyLDk1OC4wOTE1LDU2Ny40OTI1LDk2MC4zMzQxLDU2NS4yNDk4LDk2NS41Mjc0LDU3Mi4xNCw5NTguNDkiIHN0eWxlPSJzdHJva2U6IzE4MTgxODtzdHJva2Utd2lkdGg6MTsiLz48L2c+PCEtLWxpbmsgaGFuZGxlciB0byBVQzUtLT48ZyBjbGFzcz0ibGluayIgZGF0YS1lbnRpdHktMT0iaGFuZGxlciIgZGF0YS1lbnRpdHktMj0iVUM1IiBkYXRhLXNvdXJjZS1saW5lPSIzMyIgZGF0YS11aWQ9ImxuazI4IiBpZD0ibGlua19oYW5kbGVyX1VDNSI+PHBhdGggZD0iTTg3LjYzLDExODkuOTUgQzEwMS45MywxMjMyLjcyIDEzMS45MywxMzAwLjM4IDE4NSwxMzMwLjI2IEMzMDkuNTksMTQwMC4zOSAzODEuMDQsMTM3OC43MiA1MDYsMTMwOS4yNiBDNTA2LjM5LDEzMDkuMDQgODY2LjYzLDk0OC41MSA4NjcsOTQ4LjI2IEM4ODAuNTMsOTM4Ljk2IDg5MS4wNTMsOTMzLjM3ODYgOTA1LjgxMyw5MjcuMDY4NiIgZmlsbD0ibm9uZSIgaWQ9ImhhbmRsZXItdG8tVUM1IiBzdHlsZT0ic3Ryb2tlOiMxODE4MTg7c3Ryb2tlLXdpZHRoOjE7Ii8+PHBvbHlnb24gZmlsbD0iIzE4MTgxOCIgcG9pbnRzPSI5MTEuMzMsOTI0LjcxLDkwMS40ODIxLDkyNC41Njk4LDkwNi43MzI1LDkyNi42NzU1LDkwNC42MjY5LDkzMS45MjU4LDkxMS4zMyw5MjQuNzEiIHN0eWxlPSJzdHJva2U6IzE4MTgxODtzdHJva2Utd2lkdGg6MTsiLz48L2c+PCEtLWxpbmsgaGFuZGxlciB0byBVQzctLT48ZyBjbGFzcz0ibGluayIgZGF0YS1lbnRpdHktMT0iaGFuZGxlciIgZGF0YS1lbnRpdHktMj0iVUM3IiBkYXRhLXNvdXJjZS1saW5lPSIzNCIgZGF0YS11aWQ9ImxuazI5IiBpZD0ibGlua19oYW5kbGVyX1VDNyI+PHBhdGggZD0iTTc4LjY4LDExODkuOTQgQzgzLjU5LDEyNDguOTYgMTAyLjYzLDEzNjEuNjggMTc2LDE0MTIuMjYgQzQxNy44OSwxNTc4Ljk4IDYwMi43OSwxNTg5LjYgODM3LDE0MTIuMjYgQzkwNC4xNSwxMzYxLjQxIDk0My41MjksMTA5MS4xNDAzIDk1My42NjksMTAxMi44ODAzIiBmaWxsPSJub25lIiBpZD0iaGFuZGxlci10by1VQzciIHN0eWxlPSJzdHJva2U6IzE4MTgxODtzdHJva2Utd2lkdGg6MTsiLz48cG9seWdvbiBmaWxsPSIjMTgxODE4IiBwb2ludHM9Ijk1NC40NCwxMDA2LjkzLDk0OS4zMTY3LDEwMTUuMzQxNCw5NTMuNzk3NSwxMDExLjg4ODYsOTU3LjI1MDQsMTAxNi4zNjk0LDk1NC40NCwxMDA2LjkzIiBzdHlsZT0ic3Ryb2tlOiMxODE4MTg7c3Ryb2tlLXdpZHRoOjE7Ii8+PC9nPjwhLS1saW5rIGhhbmRsZXIgdG8gVUM4LS0+PGcgY2xhc3M9ImxpbmsiIGRhdGEtZW50aXR5LTE9ImhhbmRsZXIiIGRhdGEtZW50aXR5LTI9IlVDOCIgZGF0YS1zb3VyY2UtbGluZT0iMzUiIGRhdGEtdWlkPSJsbmszMCIgaWQ9ImxpbmtfaGFuZGxlcl9VQzgiPjxwYXRoIGQ9Ik0xMjUuMTcsMTEzMy42MSBDMTQxLjgyLDExMjYuNzUgMTYwLjQ0LDExMTguNjEgMTc3LDExMTAuMjYgQzIxNS40NSwxMDkwLjg3IDI1Mi43OTA4LDEwNjguMDQ1NyAyNzkuNTAwOCwxMDUxLjAxNTciIGZpbGw9Im5vbmUiIGlkPSJoYW5kbGVyLXRvLVVDOCIgc3R5bGU9InN0cm9rZTojMTgxODE4O3N0cm9rZS13aWR0aDoxOyIvPjxwb2x5Z29uIGZpbGw9IiMxODE4MTgiIHBvaW50cz0iMjg0LjU2LDEwNDcuNzksMjc0LjgyMDgsMTA0OS4yNTU3LDI4MC4zNDQsMTA1MC40NzgxLDI3OS4xMjE3LDEwNTYuMDAxMywyODQuNTYsMTA0Ny43OSIgc3R5bGU9InN0cm9rZTojMTgxODE4O3N0cm9rZS13aWR0aDoxOyIvPjwvZz48IS0tbGluayBoYW5kbGVyIHRvIFVDOS0tPjxnIGNsYXNzPSJsaW5rIiBkYXRhLWVudGl0eS0xPSJoYW5kbGVyIiBkYXRhLWVudGl0eS0yPSJVQzkiIGRhdGEtc291cmNlLWxpbmU9IjM2IiBkYXRhLXVpZD0ibG5rMzEiIGlkPSJsaW5rX2hhbmRsZXJfVUM5Ij48cGF0aCBkPSJNMTI1LjI1LDExMjMuOTcgQzE0NC42MSwxMTEwLjAzIDE2NS4xMSwxMDkxLjQzIDE3NywxMDY5LjI2IEMxODQuOTIsMTA1NC40OCAxNzQuMzksMTAwNy4yMyAxODUsOTk0LjI2IEMxOTYuMTUsOTgwLjYyIDIwNi4yOTUzLDk3My41OTQxIDIyMi45NDUzLDk2Ny41OTQxIiBmaWxsPSJub25lIiBpZD0iaGFuZGxlci10by1VQzkiIHN0eWxlPSJzdHJva2U6IzE4MTgxODtzdHJva2Utd2lkdGg6MTsiLz48cG9seWdvbiBmaWxsPSIjMTgxODE4IiBwb2ludHM9IjIyOC41OSw5NjUuNTYsMjE4Ljc2NjksOTY0Ljg0ODEsMjIzLjg4NjEsOTY3LjI1NTEsMjIxLjQ3OTEsOTcyLjM3NDMsMjI4LjU5LDk2NS41NiIgc3R5bGU9InN0cm9rZTojMTgxODE4O3N0cm9rZS13aWR0aDoxOyIvPjwvZz48IS0tbGluayBoYW5kbGVyIHRvIFVDMTAtLT48ZyBjbGFzcz0ibGluayIgZGF0YS1lbnRpdHktMT0iaGFuZGxlciIgZGF0YS1lbnRpdHktMj0iVUMxMCIgZGF0YS1zb3VyY2UtbGluZT0iMzciIGRhdGEtdWlkPSJsbmszMiIgaWQ9ImxpbmtfaGFuZGxlcl9VQzEwIj48cGF0aCBkPSJNMTI1LjMxLDExNTQuNjUgQzIxNC43NiwxMTU2LjIyIDQwNi4xNSwxMTQ1LjY5IDUwNiwxMDM2LjI2IEM1NDUuMzgsOTkzLjA5IDQ5Ny43Niw5NTIuNDMgNTM2LDkwOC4yNiBDNTQ0LjgsODk4LjA5IDU1MS4wMTgxLDg5Mi45Nzg0IDU2My4zMzgxLDg4Ny4xOTg0IiBmaWxsPSJub25lIiBpZD0iaGFuZGxlci10by1VQzEwIiBzdHlsZT0ic3Ryb2tlOiMxODE4MTg7c3Ryb2tlLXdpZHRoOjE7Ii8+PHBvbHlnb24gZmlsbD0iIzE4MTgxOCIgcG9pbnRzPSI1NjguNzcsODg0LjY1LDU1OC45MjMyLDg4NC44NTEzLDU2NC4yNDM0LDg4Ni43NzM3LDU2Mi4zMjExLDg5Mi4wOTM5LDU2OC43Nyw4ODQuNjUiIHN0eWxlPSJzdHJva2U6IzE4MTgxODtzdHJva2Utd2lkdGg6MTsiLz48L2c+PCEtLWxpbmsgaGFuZGxlciB0byBVQzExLS0+PGcgY2xhc3M9ImxpbmsiIGRhdGEtZW50aXR5LTE9ImhhbmRsZXIiIGRhdGEtZW50aXR5LTI9IlVDMTEiIGRhdGEtc291cmNlLWxpbmU9IjM4IiBkYXRhLXVpZD0ibG5rMzMiIGlkPSJsaW5rX2hhbmRsZXJfVUMxMSI+PHBhdGggZD0iTTk2LjcsMTE5MC4wNCBDMTEzLjU4LDEyMTcuOTQgMTQwLjc0LDEyNTMuODEgMTc2LDEyNzAuMjYgQzMwOC45MiwxMzMyLjI1IDM3OS43OCwxMzQ0Ljk1IDUwNiwxMjcwLjI2IEM1ODguODksMTIyMS4yIDYyMi43Nzg3LDExMDYuNzcyNyA2MzQuNDE4NywxMDU1LjIxMjciIGZpbGw9Im5vbmUiIGlkPSJoYW5kbGVyLXRvLVVDMTEiIHN0eWxlPSJzdHJva2U6IzE4MTgxODtzdHJva2Utd2lkdGg6MTsiLz48cG9seWdvbiBmaWxsPSIjMTgxODE4IiBwb2ludHM9IjYzNS43NCwxMDQ5LjM2LDYyOS44NTYzLDEwNTcuMjU4Miw2MzQuNjM4OSwxMDU0LjIzNzMsNjM3LjY1OTksMTA1OS4wMTk5LDYzNS43NCwxMDQ5LjM2IiBzdHlsZT0ic3Ryb2tlOiMxODE4MTg7c3Ryb2tlLXdpZHRoOjE7Ii8+PC9nPjwhLS1saW5rIGludmVzdGlnYXRvciB0byBVQzEtLT48ZyBjbGFzcz0ibGluayIgZGF0YS1lbnRpdHktMT0iaW52ZXN0aWdhdG9yIiBkYXRhLWVudGl0eS0yPSJVQzEiIGRhdGEtc291cmNlLWxpbmU9IjQwIiBkYXRhLXVpZD0ibG5rMzQiIGlkPSJsaW5rX2ludmVzdGlnYXRvcl9VQzEiPjxwYXRoIGQ9Ik05MS41NywyMTYuOTIgQzExMy41OCwyNzUuMzggMTU1LjA2LDM5MS44NyAxNzcsNDk0LjI2IEMxNzkuNSw1MDUuOSAxNzcuMSw1MzguMzQgMTg1LDU0Ny4yNiBDMjAwLjE5LDU2NC4zOSAyMTcuMDgxOCw1NzIuMjE5MiAyMzkuMTMxOCw1NzYuOTE5MiIgZmlsbD0ibm9uZSIgaWQ9ImludmVzdGlnYXRvci10by1VQzEiIHN0eWxlPSJzdHJva2U6IzE4MTgxODtzdHJva2Utd2lkdGg6MTsiLz48cG9seWdvbiBmaWxsPSIjMTgxODE4IiBwb2ludHM9IjI0NSw1NzguMTcsMjM3LjAzMTYsNTcyLjM4MTcsMjQwLjEwOTksNTc3LjEyNzcsMjM1LjM2MzksNTgwLjIwNTksMjQ1LDU3OC4xNyIgc3R5bGU9InN0cm9rZTojMTgxODE4O3N0cm9rZS13aWR0aDoxOyIvPjwvZz48IS0tbGluayBpbnZlc3RpZ2F0b3IgdG8gVUMzLS0+PGcgY2xhc3M9ImxpbmsiIGRhdGEtZW50aXR5LTE9ImludmVzdGlnYXRvciIgZGF0YS1lbnRpdHktMj0iVUMzIiBkYXRhLXNvdXJjZS1saW5lPSI0MSIgZGF0YS11aWQ9ImxuazM1IiBpZD0ibGlua19pbnZlc3RpZ2F0b3JfVUMzIj48cGF0aCBkPSJNOTIuMjcsMjE2Ljk1IEMxMDguMDYsMjU3LjQxIDEzMi4yOCwzMjMuODggMTQ2LDM4My4yNiBDMTYxLjI4LDQ0OS40IDE0MC43MSw2MzQuODEgMTg1LDY4Ni4yNiBDMTk4LjQ4LDcwMS45MiAyMTIuNDM1NCw3MDkuNDgxMSAyMzIuMzQ1NCw3MTQuNjkxMSIgZmlsbD0ibm9uZSIgaWQ9ImludmVzdGlnYXRvci10by1VQzMiIHN0eWxlPSJzdHJva2U6IzE4MTgxODtzdHJva2Utd2lkdGg6MTsiLz48cG9seWdvbiBmaWxsPSIjMTgxODE4IiBwb2ludHM9IjIzOC4xNSw3MTYuMjEsMjMwLjQ1NTgsNzEwLjA2MTksMjMzLjMxMjksNzE0Ljk0NDIsMjI4LjQzMDYsNzE3LjgwMTMsMjM4LjE1LDcxNi4yMSIgc3R5bGU9InN0cm9rZTojMTgxODE4O3N0cm9rZS13aWR0aDoxOyIvPjwvZz48IS0tbGluayBpbnZlc3RpZ2F0b3IgdG8gVUM0LS0+PGcgY2xhc3M9ImxpbmsiIGRhdGEtZW50aXR5LTE9ImludmVzdGlnYXRvciIgZGF0YS1lbnRpdHktMj0iVUM0IiBkYXRhLXNvdXJjZS1saW5lPSI0MiIgZGF0YS11aWQ9ImxuazM2IiBpZD0ibGlua19pbnZlc3RpZ2F0b3JfVUM0Ij48cGF0aCBkPSJNMTM5LjIyLDE3My4wNCBDMjE1LjU3LDE2OS4xMyAzNDMuNzcsMTc1LjMxIDQxNiwyNDkuMjYgQzYyNC4wMiw0NjIuMjMgMzQzLjk3LDY4MC43NyA1MzYsOTA4LjI2IEM1NDUuNzcsOTE5Ljg0IDU1My44LDkyNS42ODQ4IDU2Ny45Nyw5MzEuMjg0OCIgZmlsbD0ibm9uZSIgaWQ9ImludmVzdGlnYXRvci10by1VQzQiIHN0eWxlPSJzdHJva2U6IzE4MTgxODtzdHJva2Utd2lkdGg6MTsiLz48cG9seWdvbiBmaWxsPSIjMTgxODE4IiBwb2ludHM9IjU3My41NSw5MzMuNDksNTY2LjY1MDEsOTI2LjQ2MjEsNTY4LjksOTMxLjY1MjMsNTYzLjcwOTgsOTMzLjkwMjIsNTczLjU1LDkzMy40OSIgc3R5bGU9InN0cm9rZTojMTgxODE4O3N0cm9rZS13aWR0aDoxOyIvPjwvZz48IS0tbGluayBpbnZlc3RpZ2F0b3IgdG8gVUM1LS0+PGcgY2xhc3M9ImxpbmsiIGRhdGEtZW50aXR5LTE9ImludmVzdGlnYXRvciIgZGF0YS1lbnRpdHktMj0iVUM1IiBkYXRhLXNvdXJjZS1saW5lPSI0MyIgZGF0YS11aWQ9ImxuazM3IiBpZD0ibGlua19pbnZlc3RpZ2F0b3JfVUM1Ij48cGF0aCBkPSJNMTAwLjk3LDE0MS42MSBDMTIwLjEyLDExNS4zMSAxNDkuNTcsODIuMzEgMTg1LDY3LjI2IEMzMTYuMzYsMTEuNDQgMzgxLjc3LDYgNTA2LDc2LjI2IEM4MzMuNSwyNjEuNDggOTM0Ljk4MTIsNzc1LjE2MiA5NTIuOTUxMiw4ODIuNzEyIiBmaWxsPSJub25lIiBpZD0iaW52ZXN0aWdhdG9yLXRvLVVDNSIgc3R5bGU9InN0cm9rZTojMTgxODE4O3N0cm9rZS13aWR0aDoxOyIvPjxwb2x5Z29uIGZpbGw9IiMxODE4MTgiIHBvaW50cz0iOTUzLjk0LDg4OC42Myw5NTYuNDAyMSw4NzkuMDkzOSw5NTMuMTE2LDg4My42OTg0LDk0OC41MTE1LDg4MC40MTIzLDk1My45NCw4ODguNjMiIHN0eWxlPSJzdHJva2U6IzE4MTgxODtzdHJva2Utd2lkdGg6MTsiLz48L2c+PCEtLWxpbmsgaW52ZXN0aWdhdG9yIHRvIFVDNi0tPjxnIGNsYXNzPSJsaW5rIiBkYXRhLWVudGl0eS0xPSJpbnZlc3RpZ2F0b3IiIGRhdGEtZW50aXR5LTI9IlVDNiIgZGF0YS1zb3VyY2UtbGluZT0iNDQiIGRhdGEtdWlkPSJsbmszOCIgaWQ9ImxpbmtfaW52ZXN0aWdhdG9yX1VDNiI+PHBhdGggZD0iTTEyNS4wMSwxNDEuNyBDMTQwLjQzLDEzMS43NiAxNTguMTcsMTIyLjM4IDE3NiwxMTcuMjYgQzMxNi45Niw3Ni43NiAzODMuOTcsMzUuODkgNTA2LDExNy4yNiBDNjEwLjYxLDE4Ny4wMiA2MzMuNDk1NiwzNDkuMTcwNCA2MzguNjA1Niw0MTAuOTcwNCIgZmlsbD0ibm9uZSIgaWQ9ImludmVzdGlnYXRvci10by1VQzYiIHN0eWxlPSJzdHJva2U6IzE4MTgxODtzdHJva2Utd2lkdGg6MTsiLz48cG9seWdvbiBmaWxsPSIjMTgxODE4IiBwb2ludHM9IjYzOS4xLDQxNi45NSw2NDIuMzQ0OCw0MDcuNjUxLDYzOC42ODgsNDExLjk2Nyw2MzQuMzcyLDQwOC4zMTAyLDYzOS4xLDQxNi45NSIgc3R5bGU9InN0cm9rZTojMTgxODE4O3N0cm9rZS13aWR0aDoxOyIvPjwvZz48IS0tbGluayBpbnZlc3RpZ2F0b3IgdG8gVUMxMC0tPjxnIGNsYXNzPSJsaW5rIiBkYXRhLWVudGl0eS0xPSJpbnZlc3RpZ2F0b3IiIGRhdGEtZW50aXR5LTI9IlVDMTAiIGRhdGEtc291cmNlLWxpbmU9IjQ1IiBkYXRhLXVpZD0ibG5rMzkiIGlkPSJsaW5rX2ludmVzdGlnYXRvcl9VQzEwIj48cGF0aCBkPSJNMTM5LjIxLDE1Ny45MyBDMjMyLjAxLDEzMC40OSA0MDYuNDQsOTYuNDkgNTA2LDE4OC4yNiBDNTUzLjk2LDIzMi40NyA1MjQuMTMsNDE2LjEyIDUzNiw0ODAuMjYgQzU2MS44NCw2MTkuODYgNjExLjAwMjksNzc3LjAxNDYgNjMwLjY2MjksODM3LjQxNDYiIGZpbGw9Im5vbmUiIGlkPSJpbnZlc3RpZ2F0b3ItdG8tVUMxMCIgc3R5bGU9InN0cm9rZTojMTgxODE4O3N0cm9rZS13aWR0aDoxOyIvPjxwb2x5Z29uIGZpbGw9IiMxODE4MTgiIHBvaW50cz0iNjMyLjUyLDg0My4xMiw2MzMuNTM4LDgzMy4zMjM5LDYzMC45NzI0LDgzOC4zNjU1LDYyNS45MzA4LDgzNS44LDYzMi41Miw4NDMuMTIiIHN0eWxlPSJzdHJva2U6IzE4MTgxODtzdHJva2Utd2lkdGg6MTsiLz48L2c+PCEtLWxpbmsgbWFuYWdlciB0byBVQzEtLT48ZyBjbGFzcz0ibGluayIgZGF0YS1lbnRpdHktMT0ibWFuYWdlciIgZGF0YS1lbnRpdHktMj0iVUMxIiBkYXRhLXNvdXJjZS1saW5lPSI0NyIgZGF0YS11aWQ9ImxuazQwIiBpZD0ibGlua19tYW5hZ2VyX1VDMSI+PHBhdGggZD0iTTEwNC40OSw2ODcuNzMgQzEyNC4yMSw2NjMuNTggMTUyLjg4LDYzMy41OCAxODUsNjE2LjI2IEMyMDYuNTIsNjA0LjY1IDIyNi40MjI4LDU5OC4xNDU2IDI0OS4wNjI4LDU5Mi45MzU2IiBmaWxsPSJub25lIiBpZD0ibWFuYWdlci10by1VQzEiIHN0eWxlPSJzdHJva2U6IzE4MTgxODtzdHJva2Utd2lkdGg6MTsiLz48cG9seWdvbiBmaWxsPSIjMTgxODE4IiBwb2ludHM9IjI1NC45MSw1OTEuNTksMjQ1LjI0MjIsNTg5LjcxMDIsMjUwLjAzNzQsNTkyLjcxMTMsMjQ3LjAzNjMsNTk3LjUwNjUsMjU0LjkxLDU5MS41OSIgc3R5bGU9InN0cm9rZTojMTgxODE4O3N0cm9rZS13aWR0aDoxOyIvPjwvZz48IS0tbGluayBtYW5hZ2VyIHRvIFVDMy0tPjxnIGNsYXNzPSJsaW5rIiBkYXRhLWVudGl0eS0xPSJtYW5hZ2VyIiBkYXRhLWVudGl0eS0yPSJVQzMiIGRhdGEtc291cmNlLWxpbmU9IjQ4IiBkYXRhLXVpZD0ibG5rNDEiIGlkPSJsaW5rX21hbmFnZXJfVUMzIj48cGF0aCBkPSJNMTI1LjAyLDcyNC42NCBDMTU2LjM4LDcyNC4yNCAxOTIuMDIwNSw3MjMuNzg2NyAyMjguMDAwNSw3MjMuMzI2NyIgZmlsbD0ibm9uZSIgaWQ9Im1hbmFnZXItdG8tVUMzIiBzdHlsZT0ic3Ryb2tlOiMxODE4MTg7c3Ryb2tlLXdpZHRoOjE7Ii8+PHBvbHlnb24gZmlsbD0iIzE4MTgxOCIgcG9pbnRzPSIyMzQsNzIzLjI1LDIyNC45NDk2LDcxOS4zNjU0LDIyOS4wMDA0LDcyMy4zMTM5LDIyNS4wNTE5LDcyNy4zNjQ3LDIzNCw3MjMuMjUiIHN0eWxlPSJzdHJva2U6IzE4MTgxODtzdHJva2Utd2lkdGg6MTsiLz48L2c+PCEtLWxpbmsgbWFuYWdlciB0byBVQzQtLT48ZyBjbGFzcz0ibGluayIgZGF0YS1lbnRpdHktMT0ibWFuYWdlciIgZGF0YS1lbnRpdHktMj0iVUM0IiBkYXRhLXNvdXJjZS1saW5lPSI0OSIgZGF0YS11aWQ9ImxuazQyIiBpZD0ibGlua19tYW5hZ2VyX1VDNCI+PHBhdGggZD0iTTgzLjI2LDc2My4wMiBDOTcuNTQsODQzLjk1IDEzNS4xNSwxMDI5Ljc1IDE4NSwxMDY2LjI2IEMzMDAuNjEsMTE1MC45MSAzOTUuMzcsMTEyNy4zMyA1MDYsMTAzNi4yNiBDNTI2LjksMTAxOS4wNSA1MTUuMjYsMTAwMC42NSA1MzYsOTgzLjI2IEM1NDguMTYsOTczLjA1IDU1Ny42OTk5LDk2Ny42MjY4IDU3Mi42ODk5LDk2Mi4xODY4IiBmaWxsPSJub25lIiBpZD0ibWFuYWdlci10by1VQzQiIHN0eWxlPSJzdHJva2U6IzE4MTgxODtzdHJva2Utd2lkdGg6MTsiLz48cG9seWdvbiBmaWxsPSIjMTgxODE4IiBwb2ludHM9IjU3OC4zMyw5NjAuMTQsNTY4LjUwNTMsOTU5LjQ1MDIsNTczLjYyOTksOTYxLjg0NTcsNTcxLjIzNDQsOTY2Ljk3MDMsNTc4LjMzLDk2MC4xNCIgc3R5bGU9InN0cm9rZTojMTgxODE4O3N0cm9rZS13aWR0aDoxOyIvPjwvZz48IS0tbGluayBtYW5hZ2VyIHRvIFVDMTItLT48ZyBjbGFzcz0ibGluayIgZGF0YS1lbnRpdHktMT0ibWFuYWdlciIgZGF0YS1lbnRpdHktMj0iVUMxMiIgZGF0YS1zb3VyY2UtbGluZT0iNTAiIGRhdGEtdWlkPSJsbms0MyIgaWQ9ImxpbmtfbWFuYWdlcl9VQzEyIj48cGF0aCBkPSJNMTI1LjAyLDc0MC4yMSBDMTYyLDc1MS43MiAyMDcuNTcwOSw3NjUuOTA3NiAyNDcuMDEwOSw3NzguMTc3NiIgZmlsbD0ibm9uZSIgaWQ9Im1hbmFnZXItdG8tVUMxMiIgc3R5bGU9InN0cm9rZTojMTgxODE4O3N0cm9rZS13aWR0aDoxOyIvPjxwb2x5Z29uIGZpbGw9IiMxODE4MTgiIHBvaW50cz0iMjUyLjc0LDc3OS45NiwyNDUuMzM0NSw3NzMuNDY3LDI0Ny45NjU3LDc3OC40NzQ3LDI0Mi45NTgsNzgxLjEwNTksMjUyLjc0LDc3OS45NiIgc3R5bGU9InN0cm9rZTojMTgxODE4O3N0cm9rZS13aWR0aDoxOyIvPjwvZz48IS0tbGluayBtYW5hZ2VyIHRvIFVDMTMtLT48ZyBjbGFzcz0ibGluayIgZGF0YS1lbnRpdHktMT0ibWFuYWdlciIgZGF0YS1lbnRpdHktMj0iVUMxMyIgZGF0YS1zb3VyY2UtbGluZT0iNTEiIGRhdGEtdWlkPSJsbms0NCIgaWQ9ImxpbmtfbWFuYWdlcl9VQzEzIj48cGF0aCBkPSJNMTI1LjEyLDcwNi45OSBDMTQzLjcyLDcwMC4xNiAxNjUuMjQsNjkyLjU1IDE4NSw2ODYuMjYgQzIwOS45Nyw2NzguMzEgMjMyLjIzNDgsNjcxLjk5NDMgMjU1LjU3NDgsNjY1LjczNDMiIGZpbGw9Im5vbmUiIGlkPSJtYW5hZ2VyLXRvLVVDMTMiIHN0eWxlPSJzdHJva2U6IzE4MTgxODtzdHJva2Utd2lkdGg6MTsiLz48cG9seWdvbiBmaWxsPSIjMTgxODE4IiBwb2ludHM9IjI2MS4zNyw2NjQuMTgsMjUxLjY0MSw2NjIuNjQ4LDI1Ni41NDA3LDY2NS40NzUzLDI1My43MTM0LDY3MC4zNzQ5LDI2MS4zNyw2NjQuMTgiIHN0eWxlPSJzdHJva2U6IzE4MTgxODtzdHJva2Utd2lkdGg6MTsiLz48L2c+PCEtLWxpbmsgYWRtaW4gdG8gVUMxLS0+PGcgY2xhc3M9ImxpbmsiIGRhdGEtZW50aXR5LTE9ImFkbWluIiBkYXRhLWVudGl0eS0yPSJVQzEiIGRhdGEtc291cmNlLWxpbmU9IjUzIiBkYXRhLXVpZD0ibG5rNDUiIGlkPSJsaW5rX2FkbWluX1VDMSI+PHBhdGggZD0iTTEwNS41Niw0NzUuODQgQzEyNS40Miw0OTkuNTQgMTUzLjg2LDUyOS4wMSAxODUsNTQ3LjI2IEMyMDYuMTQsNTU5LjY0IDIyNS45ODczLDU2Ni40MjUyIDI0OC42NzczLDU3MS43MjUyIiBmaWxsPSJub25lIiBpZD0iYWRtaW4tdG8tVUMxIiBzdHlsZT0ic3Ryb2tlOiMxODE4MTg7c3Ryb2tlLXdpZHRoOjE7Ii8+PHBvbHlnb24gZmlsbD0iIzE4MTgxOCIgcG9pbnRzPSIyNTQuNTIsNTczLjA5LDI0Ni42NjU4LDU2Ny4xNDc3LDI0OS42NTExLDU3MS45NTI3LDI0NC44NDYxLDU3NC45MzgsMjU0LjUyLDU3My4wOSIgc3R5bGU9InN0cm9rZTojMTgxODE4O3N0cm9rZS13aWR0aDoxOyIvPjwvZz48IS0tbGluayBhZG1pbiB0byBVQzE0LS0+PGcgY2xhc3M9ImxpbmsiIGRhdGEtZW50aXR5LTE9ImFkbWluIiBkYXRhLWVudGl0eS0yPSJVQzE0IiBkYXRhLXNvdXJjZS1saW5lPSI1NCIgZGF0YS11aWQ9ImxuazQ2IiBpZD0ibGlua19hZG1pbl9VQzE0Ij48cGF0aCBkPSJNMTQ2LjIxLDQ2OC4wMiBDMTU5LDQ3My4wNyAxNzIuMzIsNDc4LjA0IDE4NSw0ODIuMjYgQzIxMS40OSw0OTEuMDcgMjM1Ljg5OTIsNDk3LjYxNSAyNjAuMTY5Miw1MDMuNTA1IiBmaWxsPSJub25lIiBpZD0iYWRtaW4tdG8tVUMxNCIgc3R5bGU9InN0cm9rZTojMTgxODE4O3N0cm9rZS13aWR0aDoxOyIvPjxwb2x5Z29uIGZpbGw9IiMxODE4MTgiIHBvaW50cz0iMjY2LDUwNC45MiwyNTguMTk3Miw0OTguOTEwMywyNjEuMTQxLDUwMy43NDA4LDI1Ni4zMTA1LDUwNi42ODQ2LDI2Niw1MDQuOTIiIHN0eWxlPSJzdHJva2U6IzE4MTgxODtzdHJva2Utd2lkdGg6MTsiLz48L2c+PCEtLWxpbmsgYWRtaW4gdG8gVUMxNS0tPjxnIGNsYXNzPSJsaW5rIiBkYXRhLWVudGl0eS0xPSJhZG1pbiIgZGF0YS1lbnRpdHktMj0iVUMxNSIgZGF0YS1zb3VyY2UtbGluZT0iNTUiIGRhdGEtdWlkPSJsbms0NyIgaWQ9ImxpbmtfYWRtaW5fVUMxNSI+PHBhdGggZD0iTTEwNC41NSw0MDAuNTcgQzEyNC4zOSwzNzUuOTEgMTUzLjE5LDM0NC43NiAxODUsMzI1LjI2IEMyMDMuMjgsMzE0LjA1IDIxOS4zMDY5LDMwNy41OTQ0IDIzOS42MTY5LDMwMS44NDQ0IiBmaWxsPSJub25lIiBpZD0iYWRtaW4tdG8tVUMxNSIgc3R5bGU9InN0cm9rZTojMTgxODE4O3N0cm9rZS13aWR0aDoxOyIvPjxwb2x5Z29uIGZpbGw9IiMxODE4MTgiIHBvaW50cz0iMjQ1LjM5LDMwMC4yMSwyMzUuNjQwNywyOTguODEyOSwyNDAuNTc5MSwzMDEuNTcyLDIzNy44MiwzMDYuNTEwNCwyNDUuMzksMzAwLjIxIiBzdHlsZT0ic3Ryb2tlOiMxODE4MTg7c3Ryb2tlLXdpZHRoOjE7Ii8+PC9nPjwhLS1saW5rIGFkbWluIHRvIFVDMTYtLT48ZyBjbGFzcz0ibGluayIgZGF0YS1lbnRpdHktMT0iYWRtaW4iIGRhdGEtZW50aXR5LTI9IlVDMTYiIGRhdGEtc291cmNlLWxpbmU9IjU2IiBkYXRhLXVpZD0ibG5rNDgiIGlkPSJsaW5rX2FkbWluX1VDMTYiPjxwYXRoIGQ9Ik0xNDYuMDEsNDE0LjE4IEMxNTguOTMsNDA5Ljc5IDE3Mi4zNiw0MDUuMzIgMTg1LDQwMS4yNiBDMjA4LjE0LDM5My44MiAyMjguMDU4OCwzODcuNzQgMjUwLjE4ODgsMzgxLjE2IiBmaWxsPSJub25lIiBpZD0iYWRtaW4tdG8tVUMxNiIgc3R5bGU9InN0cm9rZTojMTgxODE4O3N0cm9rZS13aWR0aDoxOyIvPjxwb2x5Z29uIGZpbGw9IiMxODE4MTgiIHBvaW50cz0iMjU1Ljk0LDM3OS40NSwyNDYuMTczMiwzNzguMTgwOSwyNTEuMTQ3NCwzODAuODc1LDI0OC40NTMzLDM4NS44NDkxLDI1NS45NCwzNzkuNDUiIHN0eWxlPSJzdHJva2U6IzE4MTgxODtzdHJva2Utd2lkdGg6MTsiLz48L2c+PCEtLWxpbmsgYWRtaW4gdG8gVUMxNy0tPjxnIGNsYXNzPSJsaW5rIiBkYXRhLWVudGl0eS0xPSJhZG1pbiIgZGF0YS1lbnRpdHktMj0iVUMxNyIgZGF0YS1zb3VyY2UtbGluZT0iNTciIGRhdGEtdWlkPSJsbms0OSIgaWQ9ImxpbmtfYWRtaW5fVUMxNyI+PHBhdGggZD0iTTE0Ni4wOSw0MzkuNDQgQzE2NS44MSw0MzkuNzcgMTgxLjc0MDksNDQwLjA0ODUgMjAzLjAxMDksNDQwLjQwODUiIGZpbGw9Im5vbmUiIGlkPSJhZG1pbi10by1VQzE3IiBzdHlsZT0ic3Ryb2tlOiMxODE4MTg7c3Ryb2tlLXdpZHRoOjE7Ii8+PHBvbHlnb24gZmlsbD0iIzE4MTgxOCIgcG9pbnRzPSIyMDkuMDEsNDQwLjUxLDIwMC4wNzksNDM2LjM1ODMsMjA0LjAxMDcsNDQwLjQyNTQsMTk5Ljk0MzYsNDQ0LjM1NzEsMjA5LjAxLDQ0MC41MSIgc3R5bGU9InN0cm9rZTojMTgxODE4O3N0cm9rZS13aWR0aDoxOyIvPjwvZz48IS0tbGluayBVQzIgdG8gVUM0LS0+PGcgY2xhc3M9ImxpbmsiIGRhdGEtZW50aXR5LTE9IlVDMiIgZGF0YS1lbnRpdHktMj0iVUM0IiBkYXRhLXNvdXJjZS1saW5lPSI1OSIgZGF0YS11aWQ9ImxuazUwIiBpZD0ibGlua19VQzJfVUM0Ij48cGF0aCBkPSJNMzc5LjI4LDg5MC4zNCBDNDM2LjkxLDkwMi42NyA1MTQuMjUyOCw5MTkuMjM0NyA1NzEuMTgyOCw5MzEuNDE0NyIgZmlsbD0ibm9uZSIgaWQ9IlVDMi10by1VQzQiIHN0eWxlPSJzdHJva2U6IzE4MTgxODtzdHJva2Utd2lkdGg6MTtzdHJva2UtZGFzaGFycmF5OjcuMCw3LjA7Ii8+PHBvbHlnb24gZmlsbD0iIzE4MTgxOCIgcG9pbnRzPSI1NzcuMDUsOTMyLjY3LDU2OS4wODYsOTI2Ljg3NTYsNTcyLjE2MDYsOTMxLjYyMzksNTY3LjQxMjMsOTM0LjY5ODYsNTc3LjA1LDkzMi42NyIgc3R5bGU9InN0cm9rZTojMTgxODE4O3N0cm9rZS13aWR0aDoxOyIvPjx0ZXh0IGZpbGw9IiMwMDAwMDAiIGZvbnQtZmFtaWx5PSJzYW5zLXNlcmlmIiBmb250LXNpemU9IjEzIiBsZW5ndGhBZGp1c3Q9InNwYWNpbmciIHRleHRMZW5ndGg9IjU4LjUiIHg9IjQ0NyIgeT0iOTAzLjU0OTEiPiYjMTcxO2luY2x1ZGUmIzE4Nzs8L3RleHQ+PC9nPjwhLS1saW5rIFVDNCB0byBVQzUtLT48ZyBjbGFzcz0ibGluayIgZGF0YS1lbnRpdHktMT0iVUM0IiBkYXRhLWVudGl0eS0yPSJVQzUiIGRhdGEtc291cmNlLWxpbmU9IjYwIiBkYXRhLXVpZD0ibG5rNTEiIGlkPSJsaW5rX1VDNF9VQzUiPjxwYXRoIGQ9Ik03MTkuNDQsOTM2Ljk2IEM3NjkuMTcsOTMwLjk1IDgyNy42MDMzLDkyMy44ODkzIDg3Ni43OTMzLDkxNy45NDkzIiBmaWxsPSJub25lIiBpZD0iVUM0LXRvLVVDNSIgc3R5bGU9InN0cm9rZTojMTgxODE4O3N0cm9rZS13aWR0aDoxO3N0cm9rZS1kYXNoYXJyYXk6Ny4wLDcuMDsiLz48cG9seWdvbiBmaWxsPSIjMTgxODE4IiBwb2ludHM9Ijg4Mi43NSw5MTcuMjMsODczLjMzNTQsOTE0LjMzNzgsODc3Ljc4NjEsOTE3LjgyOTQsODc0LjI5NDUsOTIyLjI4MDEsODgyLjc1LDkxNy4yMyIgc3R5bGU9InN0cm9rZTojMTgxODE4O3N0cm9rZS13aWR0aDoxOyIvPjx0ZXh0IGZpbGw9IiMwMDAwMDAiIGZvbnQtZmFtaWx5PSJzYW5zLXNlcmlmIiBmb250LXNpemU9IjEzIiBsZW5ndGhBZGp1c3Q9InNwYWNpbmciIHRleHRMZW5ndGg9IjU4LjUiIHg9Ijc3OCIgeT0iOTIyLjU0OTEiPiYjMTcxO2luY2x1ZGUmIzE4Nzs8L3RleHQ+PC9nPjwhLS1saW5rIFVDNCB0byBVQzctLT48ZyBjbGFzcz0ibGluayIgZGF0YS1lbnRpdHktMT0iVUM0IiBkYXRhLWVudGl0eS0yPSJVQzciIGRhdGEtc291cmNlLWxpbmU9IjYxIiBkYXRhLXVpZD0ibG5rNTIiIGlkPSJsaW5rX1VDNF9VQzciPjxwYXRoIGQ9Ik03MTguMjMsOTU1Ljg5IEM3NjYuNjcsOTYyLjA1IDgyMy40MTgxLDk2OS4yNjIgODcyLjQxODEsOTc1LjUwMiIgZmlsbD0ibm9uZSIgaWQ9IlVDNC10by1VQzciIHN0eWxlPSJzdHJva2U6IzE4MTgxODtzdHJva2Utd2lkdGg6MTtzdHJva2UtZGFzaGFycmF5OjcuMCw3LjA7Ii8+PHBvbHlnb24gZmlsbD0iIzE4MTgxOCIgcG9pbnRzPSI4NzguMzcsOTc2LjI2LDg2OS45NDc0LDk3MS4xNTUxLDg3My40MTAxLDk3NS42Mjg0LDg2OC45MzY4LDk3OS4wOTEsODc4LjM3LDk3Ni4yNiIgc3R5bGU9InN0cm9rZTojMTgxODE4O3N0cm9rZS13aWR0aDoxOyIvPjx0ZXh0IGZpbGw9IiMwMDAwMDAiIGZvbnQtZmFtaWx5PSJzYW5zLXNlcmlmIiBmb250LXNpemU9IjEzIiBsZW5ndGhBZGp1c3Q9InNwYWNpbmciIHRleHRMZW5ndGg9IjU4LjUiIHg9Ijc3OCIgeT0iOTYyLjU0OTEiPiYjMTcxO2luY2x1ZGUmIzE4Nzs8L3RleHQ+PC9nPjwhLS1saW5rIFVDNiB0byBVQzUtLT48ZyBjbGFzcz0ibGluayIgZGF0YS1lbnRpdHktMT0iVUM2IiBkYXRhLWVudGl0eS0yPSJVQzUiIGRhdGEtc291cmNlLWxpbmU9IjYyIiBkYXRhLXVpZD0ibG5rNTMiIGlkPSJsaW5rX1VDNl9VQzUiPjxwYXRoIGQ9Ik02NTcuODgsNDYzLjE1IEM3MTIuMDgsNTQzLjggODkwLjI5MzMsODA4Ljk5MDEgOTQwLjYyMzMsODgzLjg4MDEiIGZpbGw9Im5vbmUiIGlkPSJVQzYtdG8tVUM1IiBzdHlsZT0ic3Ryb2tlOiMxODE4MTg7c3Ryb2tlLXdpZHRoOjE7c3Ryb2tlLWRhc2hhcnJheTo3LjAsNy4wOyIvPjxwb2x5Z29uIGZpbGw9IiMxODE4MTgiIHBvaW50cz0iOTQzLjk3LDg4OC44Niw5NDIuMjY5OCw4NzkuMTU5LDk0MS4xODEsODg0LjcxMDEsOTM1LjYzLDg4My42MjEzLDk0My45Nyw4ODguODYiIHN0eWxlPSJzdHJva2U6IzE4MTgxODtzdHJva2Utd2lkdGg6MTsiLz48dGV4dCBmaWxsPSIjMDAwMDAwIiBmb250LWZhbWlseT0ic2Fucy1zZXJpZiIgZm9udC1zaXplPSIxMyIgbGVuZ3RoQWRqdXN0PSJzcGFjaW5nIiB0ZXh0TGVuZ3RoPSI1MiIgeD0iNzgxIiB5PSI2NDQuNTQ5MSI+JiMxNzE7ZXh0ZW5kJiMxODc7PC90ZXh0PjwvZz48IS0tbGluayBVQzggdG8gVUMxMC0tPjxnIGNsYXNzPSJsaW5rIiBkYXRhLWVudGl0eS0xPSJVQzgiIGRhdGEtZW50aXR5LTI9IlVDMTAiIGRhdGEtc291cmNlLWxpbmU9IjYzIiBkYXRhLXVpZD0ibG5rNTQiIGlkPSJsaW5rX1VDOF9VQzEwIj48cGF0aCBkPSJNMzYwLjk3LDEwMTUuMjggQzM3OC41NiwxMDA5LjE3IDM5OC40OCwxMDAxLjU4IDQxNiw5OTMuMjYgQzQ1OC4xNCw5NzMuMjQgNDY5LjQ3LDk2OC4yNiA1MDYsOTM5LjI2IEM1MjEuMDIsOTI3LjMzIDUyMC4wNSw5MTguODkgNTM2LDkwOC4yNiBDNTQ4Ljg5LDg5OS42NiA1NTguMjk3MSw4OTQuNzA4MiA1NzIuNzk3MSw4ODguODQ4MiIgZmlsbD0ibm9uZSIgaWQ9IlVDOC10by1VQzEwIiBzdHlsZT0ic3Ryb2tlOiMxODE4MTg7c3Ryb2tlLXdpZHRoOjE7c3Ryb2tlLWRhc2hhcnJheTo3LjAsNy4wOyIvPjxwb2x5Z29uIGZpbGw9IiMxODE4MTgiIHBvaW50cz0iNTc4LjM2LDg4Ni42LDU2OC41MTY5LDg4Ni4yNjM3LDU3My43MjQzLDg4OC40NzM1LDU3MS41MTQ1LDg5My42ODA5LDU3OC4zNiw4ODYuNiIgc3R5bGU9InN0cm9rZTojMTgxODE4O3N0cm9rZS13aWR0aDoxOyIvPjx0ZXh0IGZpbGw9IiMwMDAwMDAiIGZvbnQtZmFtaWx5PSJzYW5zLXNlcmlmIiBmb250LXNpemU9IjEzIiBsZW5ndGhBZGp1c3Q9InNwYWNpbmciIHRleHRMZW5ndGg9IjUyIiB4PSI0NTAiIHk9IjkzNy41NDkxIj4mIzE3MTtleHRlbmQmIzE4Nzs8L3RleHQ+PC9nPjwhLS1saW5rIFVDOCB0byBVQzExLS0+PGcgY2xhc3M9ImxpbmsiIGRhdGEtZW50aXR5LTE9IlVDOCIgZGF0YS1lbnRpdHktMj0iVUMxMSIgZGF0YS1zb3VyY2UtbGluZT0iNjQiIGRhdGEtdWlkPSJsbms1NSIgaWQ9ImxpbmtfVUM4X1VDMTEiPjxwYXRoIGQ9Ik0zOTMuOTEsMTAyOS4wMyBDNDM2Ljc0LDEwMjguMzcgNDgzLjk0MDcsMTAyNy42NTEzIDUyOS45NDA3LDEwMjYuOTUxMyIgZmlsbD0ibm9uZSIgaWQ9IlVDOC10by1VQzExIiBzdHlsZT0ic3Ryb2tlOiMxODE4MTg7c3Ryb2tlLXdpZHRoOjE7c3Ryb2tlLWRhc2hhcnJheTo3LjAsNy4wOyIvPjxwb2x5Z29uIGZpbGw9IiMxODE4MTgiIHBvaW50cz0iNTM1Ljk0LDEwMjYuODYsNTI2Ljg4MDIsMTAyMi45OTc0LDUzMC45NDA2LDEwMjYuOTM2MSw1MjcuMDAxOSwxMDMwLjk5NjUsNTM1Ljk0LDEwMjYuODYiIHN0eWxlPSJzdHJva2U6IzE4MTgxODtzdHJva2Utd2lkdGg6MTsiLz48dGV4dCBmaWxsPSIjMDAwMDAwIiBmb250LWZhbWlseT0ic2Fucy1zZXJpZiIgZm9udC1zaXplPSIxMyIgbGVuZ3RoQWRqdXN0PSJzcGFjaW5nIiB0ZXh0TGVuZ3RoPSI1MiIgeD0iNDUwIiB5PSIxMDI2LjU0OTEiPiYjMTcxO2V4dGVuZCYjMTg3OzwvdGV4dD48L2c+PCEtLVNSQz1bWlBOVEp6bW0zQzNWeXJUT2wwRE54V2ljWDdKWW5mV3FmMHE0SnRsOWpSdlVIOWdLVkRuc2NsUV9wc3RKR2FBSFRZek5zeF9PSlhteDRoU0VkME9ab2ZzM0dYWkNkVDJBc01VWFFjdnUxSk5GZHRjOTMtdVc0SGVwTHdMNG5kWmtqODZaUXliNVBVNk1ncUFZRUc5a09UVHp6eUlEdVJ3MGhzZ0ZyZWNJYXd3Ym4xajV1a29FQXVoT09MTnR0SENGMS1rbVdiTEgySU1pQ3VDeHRjV082bjhhakVCNjFPX1RpWUZ1bXUxLXRjQkVCSTdWVDJhS2QwQnpRLXpRRnVfTk1TbXlyYkJwMGJmN2lEUXZocjNydzVjQ0ZXZHkxSTdZM3V5VTBwUURpTmxTM28yaXFONFhSSTFkZXNIdFdZaXdLelUzeW5YeUZMczQ2eWRCNGFGNjBMLUM5N2dGNWlxVXVKQ2poNlhYRzlTbmtnZmhlX1R1a2FQclk1b1Vmd2MtVTRnMUFiRTh2V1BuSUlOVndXMVZuRjF0U1lhQUlYTW5zRDN6MGdyLWdaVXh4MmluLU96YjdzbVpvcVFzbEFBcTNheGE1alJTeFpRUWN3QjdhcjktR09NY0VTcnhoRk5oaU1UOUFSa1IyZS1LbWUwYURObjI4eFE3NWU1TGRja2xOaHFiTFJwSklaSXRGNXBvTS1KSXhOZXNBVTZyTGJqSFVlQ3pfTzNFMkxLRWxmVmlCc0VYNVU3dS1BZ3pzUjV5YmlaSkg5dWJ5Wm9IYnVieWRpV05RVm45Z2lXT1VwaTdYWm43YkRDbnZNbkNFSHpKQmFPM0pIV0Iwc084N1NsSkg5d2JfNWNnY0Q5ZVI2Ukh1MzJJUGg0dVp5TDVCMnVQZW9CMW9LYVI2SngxdlFMR2tWRzVOYnNuSGpEUHZYelFia3lpWXNXRF9kUWVZalBtN1dwUHY0REI1YmtPcWpHVnRTRVhqczRjVEt0Q3NyNDVkNnVkenF2Sk11Z1NJdGFXZTBvRExTMzZFdGZGTlpvekVSM3BUOGVhRFVFRWFOamVWQi1GcUNvY2xqeW56Qms1a1hpQlBEakdRcVlYc2RUQUxwSWUyenhDOFprdV8wUzBdLS0+PC9nPjwvc3ZnPg==;" vertex="1" parent="1">
            <mxGeometry x="-544" y="-331" width="1361" height="1596" as="geometry" />
          </mxCell>
        </UserObject>
      </root>
    </mxGraphModel>
  </diagram>
  <diagram id="I3b_0xvdeRTyCLmpRbcU" name="Page-4">
    <mxGraphModel dx="1431" dy="1053" grid="0" gridSize="10" guides="1" tooltips="1" connect="1" arrows="1" fold="1" page="0" pageScale="1" pageWidth="850" pageHeight="1100" math="0" shadow="0">
      <root>
        <mxCell id="0" />
        <mxCell id="1" parent="0" />
        <mxCell id="qcFrkktSELGRXYQpk210-1" value="" style="whiteSpace=wrap;html=1;aspect=fixed;" vertex="1" parent="1">
          <mxGeometry x="-23" y="14" width="451" height="451" as="geometry" />
        </mxCell>
        <mxCell id="qcFrkktSELGRXYQpk210-2" value="&lt;font face=&quot;Times New Roman&quot;&gt;Investigate Flagged Claim&lt;/font&gt;" style="ellipse;whiteSpace=wrap;html=1;" vertex="1" parent="1">
          <mxGeometry x="205" y="25" width="89" height="48" as="geometry" />
        </mxCell>
        <mxCell id="qcFrkktSELGRXYQpk210-3" value="Verify User Accounts" style="ellipse;whiteSpace=wrap;html=1;fontFamily=Times New Roman;" vertex="1" parent="1">
          <mxGeometry x="3" y="23" width="89" height="35" as="geometry" />
        </mxCell>
        <mxCell id="qcFrkktSELGRXYQpk210-4" value="&lt;font face=&quot;Times New Roman&quot;&gt;Configure System Settings&lt;/font&gt;" style="ellipse;whiteSpace=wrap;html=1;" vertex="1" parent="1">
          <mxGeometry x="-1" y="117" width="108" height="35" as="geometry" />
        </mxCell>
        <mxCell id="qcFrkktSELGRXYQpk210-5" value="&lt;font face=&quot;Times New Roman&quot;&gt;Monitor System Health&lt;/font&gt;" style="ellipse;whiteSpace=wrap;html=1;" vertex="1" parent="1">
          <mxGeometry x="65" y="70" width="89" height="35" as="geometry" />
        </mxCell>
        <mxCell id="qcFrkktSELGRXYQpk210-6" value="&lt;font face=&quot;Times New Roman&quot;&gt;Login/Logout&lt;/font&gt;" style="ellipse;whiteSpace=wrap;html=1;" vertex="1" parent="1">
          <mxGeometry x="122" y="157" width="89" height="35" as="geometry" />
        </mxCell>
        <mxCell id="qcFrkktSELGRXYQpk210-7" value="&lt;font face=&quot;Times New Roman&quot;&gt;Manage Users&lt;/font&gt;" style="ellipse;whiteSpace=wrap;html=1;" vertex="1" parent="1">
          <mxGeometry x="-1" y="189" width="89" height="35" as="geometry" />
        </mxCell>
        <mxCell id="qcFrkktSELGRXYQpk210-8" value="Review Fraud Alerts" style="ellipse;whiteSpace=wrap;html=1;" vertex="1" parent="1">
          <mxGeometry x="330" y="86" width="89" height="35" as="geometry" />
        </mxCell>
        <mxCell id="qcFrkktSELGRXYQpk210-9" value="&lt;font face=&quot;Times New Roman&quot;&gt;Provide Feedback on fraud alert&amp;nbsp;&lt;/font&gt;" style="ellipse;whiteSpace=wrap;html=1;" vertex="1" parent="1">
          <mxGeometry x="298" y="172" width="109" height="55" as="geometry" />
        </mxCell>
        <mxCell id="qcFrkktSELGRXYQpk210-10" value="Review Fraud Alerts" style="ellipse;whiteSpace=wrap;html=1;" vertex="1" parent="1">
          <mxGeometry x="335" y="351" width="89" height="35" as="geometry" />
        </mxCell>
        <mxCell id="qcFrkktSELGRXYQpk210-11" value="&lt;font face=&quot;Times New Roman&quot;&gt;View Claims Queue&lt;/font&gt;" style="ellipse;whiteSpace=wrap;html=1;" vertex="1" parent="1">
          <mxGeometry x="44" y="255" width="89" height="35" as="geometry" />
        </mxCell>
        <mxCell id="qcFrkktSELGRXYQpk210-14" value="&lt;font face=&quot;Times New Roman&quot;&gt;Provide Feedback on Reserve Estimates&lt;/font&gt;" style="ellipse;whiteSpace=wrap;html=1;" vertex="1" parent="1">
          <mxGeometry x="136" y="357" width="124" height="71" as="geometry" />
        </mxCell>
        <mxCell id="qcFrkktSELGRXYQpk210-15" value="View Reserve Estimates" style="ellipse;whiteSpace=wrap;html=1;" vertex="1" parent="1">
          <mxGeometry x="251" y="320" width="112" height="35" as="geometry" />
        </mxCell>
        <mxCell id="qcFrkktSELGRXYQpk210-16" value="&lt;font face=&quot;Times New Roman&quot;&gt;Review Claim Details&lt;/font&gt;" style="ellipse;whiteSpace=wrap;html=1;" vertex="1" parent="1">
          <mxGeometry x="107" y="293" width="110" height="35" as="geometry" />
        </mxCell>
        <mxCell id="qcFrkktSELGRXYQpk210-17" value="Upload claim Document" style="ellipse;whiteSpace=wrap;html=1;" vertex="1" parent="1">
          <mxGeometry x="3" y="355" width="89" height="35" as="geometry" />
        </mxCell>
        <mxCell id="qcFrkktSELGRXYQpk210-18" value="Approve/Deny Claim" style="ellipse;whiteSpace=wrap;html=1;" vertex="1" parent="1">
          <mxGeometry x="266" y="416.5" width="89" height="35" as="geometry" />
        </mxCell>
        <mxCell id="qcFrkktSELGRXYQpk210-19" value="Request Additional Information&amp;nbsp;" style="ellipse;whiteSpace=wrap;html=1;" vertex="1" parent="1">
          <mxGeometry x="9" y="409" width="93" height="50" as="geometry" />
        </mxCell>
        <mxCell id="OpSPdWMNVnbvbe5tdn4p-1" value="&lt;font face=&quot;Times New Roman&quot;&gt;System Admin&lt;/font&gt;" style="shape=umlActor;verticalLabelPosition=bottom;verticalAlign=top;html=1;outlineConnect=0;" vertex="1" parent="1">
          <mxGeometry x="-255" y="-20" width="30" height="60" as="geometry" />
        </mxCell>
        <mxCell id="OpSPdWMNVnbvbe5tdn4p-2" value="&lt;font face=&quot;Times New Roman&quot;&gt;&amp;nbsp;Claims Handler&lt;/font&gt;" style="shape=umlActor;verticalLabelPosition=bottom;verticalAlign=top;html=1;outlineConnect=0;" vertex="1" parent="1">
          <mxGeometry x="-219" y="411" width="30" height="60" as="geometry" />
        </mxCell>
        <mxCell id="OpSPdWMNVnbvbe5tdn4p-3" value="&lt;font face=&quot;Times New Roman&quot;&gt;Fraud Investigator&lt;/font&gt;" style="shape=umlActor;verticalLabelPosition=bottom;verticalAlign=top;html=1;outlineConnect=0;" vertex="1" parent="1">
          <mxGeometry x="537" y="117" width="30" height="60" as="geometry" />
        </mxCell>
        <mxCell id="OpSPdWMNVnbvbe5tdn4p-5" value="&lt;h1&gt;&lt;font face=&quot;Times New Roman&quot;&gt;&lt;u&gt;SmartClaims Use Case Diagrams&lt;/u&gt;&lt;/font&gt;&lt;/h1&gt;" style="text;strokeColor=none;fillColor=none;html=1;align=center;verticalAlign=middle;whiteSpace=wrap;rounded=0;fontSize=16;" vertex="1" parent="1">
          <mxGeometry x="-49" y="-54" width="485" height="30" as="geometry" />
        </mxCell>
        <mxCell id="axGdeUCvu0__WVT-wlAy-1" value="" style="endArrow=classic;html=1;rounded=0;fontSize=12;startSize=8;endSize=8;curved=1;entryX=0;entryY=0.5;entryDx=0;entryDy=0;exitX=1;exitY=0.3333333333333333;exitDx=0;exitDy=0;exitPerimeter=0;" edge="1" parent="1" source="OpSPdWMNVnbvbe5tdn4p-1" target="qcFrkktSELGRXYQpk210-3">
          <mxGeometry width="50" height="50" relative="1" as="geometry">
            <mxPoint x="-164" y="75" as="sourcePoint" />
            <mxPoint x="-114" y="25" as="targetPoint" />
          </mxGeometry>
        </mxCell>
        <mxCell id="axGdeUCvu0__WVT-wlAy-2" value="" style="endArrow=classic;html=1;rounded=0;fontSize=12;startSize=8;endSize=8;curved=1;exitX=1;exitY=0.3333333333333333;exitDx=0;exitDy=0;exitPerimeter=0;entryX=0;entryY=0.5;entryDx=0;entryDy=0;" edge="1" parent="1" source="OpSPdWMNVnbvbe5tdn4p-1" target="qcFrkktSELGRXYQpk210-5">
          <mxGeometry width="50" height="50" relative="1" as="geometry">
            <mxPoint x="-113" y="116" as="sourcePoint" />
            <mxPoint x="-63" y="66" as="targetPoint" />
          </mxGeometry>
        </mxCell>
        <mxCell id="axGdeUCvu0__WVT-wlAy-3" value="" style="endArrow=classic;html=1;rounded=0;fontSize=12;startSize=8;endSize=8;curved=1;exitX=1;exitY=0.3333333333333333;exitDx=0;exitDy=0;exitPerimeter=0;entryX=0;entryY=0.5;entryDx=0;entryDy=0;" edge="1" parent="1" source="OpSPdWMNVnbvbe5tdn4p-1" target="qcFrkktSELGRXYQpk210-4">
          <mxGeometry width="50" height="50" relative="1" as="geometry">
            <mxPoint x="-161" y="144" as="sourcePoint" />
            <mxPoint x="-111" y="94" as="targetPoint" />
          </mxGeometry>
        </mxCell>
        <mxCell id="axGdeUCvu0__WVT-wlAy-4" value="" style="endArrow=classic;html=1;rounded=0;fontSize=12;startSize=8;endSize=8;curved=1;exitX=1;exitY=0.3333333333333333;exitDx=0;exitDy=0;exitPerimeter=0;entryX=0;entryY=0.5;entryDx=0;entryDy=0;" edge="1" parent="1" source="OpSPdWMNVnbvbe5tdn4p-1" target="qcFrkktSELGRXYQpk210-6">
          <mxGeometry width="50" height="50" relative="1" as="geometry">
            <mxPoint x="-167" y="180" as="sourcePoint" />
            <mxPoint x="-117" y="130" as="targetPoint" />
            <Array as="points">
              <mxPoint x="-111" y="143" />
            </Array>
          </mxGeometry>
        </mxCell>
        <mxCell id="axGdeUCvu0__WVT-wlAy-5" value="" style="endArrow=classic;html=1;rounded=0;fontSize=12;startSize=8;endSize=8;curved=1;exitX=1;exitY=0.3333333333333333;exitDx=0;exitDy=0;exitPerimeter=0;entryX=0;entryY=0.5;entryDx=0;entryDy=0;" edge="1" parent="1" source="OpSPdWMNVnbvbe5tdn4p-1" target="qcFrkktSELGRXYQpk210-7">
          <mxGeometry width="50" height="50" relative="1" as="geometry">
            <mxPoint x="-116" y="217" as="sourcePoint" />
            <mxPoint x="-66" y="167" as="targetPoint" />
            <Array as="points">
              <mxPoint x="-134" y="135" />
            </Array>
          </mxGeometry>
        </mxCell>
        <mxCell id="y5etDky6Zh962XAAxdqX-1" value="" style="endArrow=classic;html=1;rounded=0;fontSize=12;startSize=8;endSize=8;curved=1;exitX=1;exitY=0.3333333333333333;exitDx=0;exitDy=0;exitPerimeter=0;entryX=0;entryY=1;entryDx=0;entryDy=0;" edge="1" parent="1" source="OpSPdWMNVnbvbe5tdn4p-2" target="qcFrkktSELGRXYQpk210-6">
          <mxGeometry width="50" height="50" relative="1" as="geometry">
            <mxPoint x="-175" y="364" as="sourcePoint" />
            <mxPoint x="-125" y="314" as="targetPoint" />
          </mxGeometry>
        </mxCell>
        <mxCell id="y5etDky6Zh962XAAxdqX-2" value="" style="endArrow=classic;html=1;rounded=0;fontSize=12;startSize=8;endSize=8;curved=1;exitX=1;exitY=0.3333333333333333;exitDx=0;exitDy=0;exitPerimeter=0;" edge="1" parent="1" source="OpSPdWMNVnbvbe5tdn4p-2" target="qcFrkktSELGRXYQpk210-11">
          <mxGeometry width="50" height="50" relative="1" as="geometry">
            <mxPoint x="-148" y="449" as="sourcePoint" />
            <mxPoint x="-98" y="399" as="targetPoint" />
            <Array as="points">
              <mxPoint x="-44" y="317" />
            </Array>
          </mxGeometry>
        </mxCell>
        <mxCell id="2ZwR8e2sSDW00svgodKi-1" value="" style="endArrow=classic;html=1;rounded=0;fontSize=12;startSize=8;endSize=8;curved=1;exitX=1;exitY=0.3333333333333333;exitDx=0;exitDy=0;exitPerimeter=0;entryX=0;entryY=0.5;entryDx=0;entryDy=0;" edge="1" parent="1" source="OpSPdWMNVnbvbe5tdn4p-2" target="qcFrkktSELGRXYQpk210-17">
          <mxGeometry width="50" height="50" relative="1" as="geometry">
            <mxPoint x="-140" y="443" as="sourcePoint" />
            <mxPoint x="-90" y="393" as="targetPoint" />
          </mxGeometry>
        </mxCell>
        <mxCell id="2ZwR8e2sSDW00svgodKi-2" value="" style="endArrow=classic;html=1;rounded=0;fontSize=12;startSize=8;endSize=8;curved=1;exitX=1;exitY=0.3333333333333333;exitDx=0;exitDy=0;exitPerimeter=0;entryX=0;entryY=0.5;entryDx=0;entryDy=0;" edge="1" parent="1" source="OpSPdWMNVnbvbe5tdn4p-2" target="qcFrkktSELGRXYQpk210-19">
          <mxGeometry width="50" height="50" relative="1" as="geometry">
            <mxPoint x="-123" y="488" as="sourcePoint" />
            <mxPoint x="-73" y="438" as="targetPoint" />
          </mxGeometry>
        </mxCell>
        <mxCell id="wuOvPZDUOE1Gh6EVwQAJ-1" value="" style="endArrow=classic;html=1;rounded=0;fontSize=12;startSize=8;endSize=8;curved=1;entryX=0;entryY=0.5;entryDx=0;entryDy=0;" edge="1" parent="1" target="qcFrkktSELGRXYQpk210-14">
          <mxGeometry width="50" height="50" relative="1" as="geometry">
            <mxPoint x="-187" y="429" as="sourcePoint" />
            <mxPoint x="-81" y="442" as="targetPoint" />
          </mxGeometry>
        </mxCell>
        <mxCell id="wuOvPZDUOE1Gh6EVwQAJ-2" value="" style="endArrow=classic;html=1;rounded=0;fontSize=12;startSize=8;endSize=8;curved=1;exitX=1;exitY=0.3333333333333333;exitDx=0;exitDy=0;exitPerimeter=0;entryX=0;entryY=0.5;entryDx=0;entryDy=0;" edge="1" parent="1" source="OpSPdWMNVnbvbe5tdn4p-2" target="qcFrkktSELGRXYQpk210-16">
          <mxGeometry width="50" height="50" relative="1" as="geometry">
            <mxPoint x="-99" y="403" as="sourcePoint" />
            <mxPoint x="-49" y="353" as="targetPoint" />
            <Array as="points">
              <mxPoint x="-31" y="355" />
            </Array>
          </mxGeometry>
        </mxCell>
        <mxCell id="dznzfoFZPLlvchsdKPp5-1" value="" style="endArrow=classic;html=1;rounded=0;fontSize=12;startSize=8;endSize=8;curved=1;exitX=1;exitY=0.3333333333333333;exitDx=0;exitDy=0;exitPerimeter=0;" edge="1" parent="1" source="OpSPdWMNVnbvbe5tdn4p-2" target="qcFrkktSELGRXYQpk210-15">
          <mxGeometry width="50" height="50" relative="1" as="geometry">
            <mxPoint x="-108" y="541" as="sourcePoint" />
            <mxPoint x="-58" y="491" as="targetPoint" />
            <Array as="points">
              <mxPoint x="191" y="566" />
            </Array>
          </mxGeometry>
        </mxCell>
        <mxCell id="MU3ONFMf0Gyp5P2pLkHy-1" value="" style="endArrow=classic;html=1;rounded=0;fontSize=12;startSize=8;endSize=8;curved=1;exitX=1;exitY=0.3333333333333333;exitDx=0;exitDy=0;exitPerimeter=0;entryX=0.041;entryY=0.789;entryDx=0;entryDy=0;entryPerimeter=0;" edge="1" parent="1" source="OpSPdWMNVnbvbe5tdn4p-2" target="qcFrkktSELGRXYQpk210-18">
          <mxGeometry width="50" height="50" relative="1" as="geometry">
            <mxPoint x="-101" y="545" as="sourcePoint" />
            <mxPoint x="-51" y="495" as="targetPoint" />
            <Array as="points">
              <mxPoint x="16" y="550" />
            </Array>
          </mxGeometry>
        </mxCell>
        <mxCell id="MU3ONFMf0Gyp5P2pLkHy-2" value="" style="endArrow=classic;html=1;rounded=0;fontSize=12;startSize=8;endSize=8;curved=1;exitX=1;exitY=0.3333333333333333;exitDx=0;exitDy=0;exitPerimeter=0;" edge="1" parent="1" source="OpSPdWMNVnbvbe5tdn4p-2">
          <mxGeometry width="50" height="50" relative="1" as="geometry">
            <mxPoint x="150" y="541" as="sourcePoint" />
            <mxPoint x="386" y="391" as="targetPoint" />
            <Array as="points">
              <mxPoint x="181" y="623" />
              <mxPoint x="396" y="407" />
            </Array>
          </mxGeometry>
        </mxCell>
        <mxCell id="VQhu0mEtfMLTqjlmhKUG-2" value="" style="endArrow=classic;html=1;rounded=0;fontSize=12;startSize=8;endSize=8;curved=1;exitX=0;exitY=0.3333333333333333;exitDx=0;exitDy=0;exitPerimeter=0;entryX=1;entryY=1;entryDx=0;entryDy=0;" edge="1" parent="1" source="OpSPdWMNVnbvbe5tdn4p-3" target="qcFrkktSELGRXYQpk210-8">
          <mxGeometry width="50" height="50" relative="1" as="geometry">
            <mxPoint x="446" y="77" as="sourcePoint" />
            <mxPoint x="496" y="27" as="targetPoint" />
          </mxGeometry>
        </mxCell>
        <mxCell id="VQhu0mEtfMLTqjlmhKUG-3" value="" style="endArrow=classic;html=1;rounded=0;fontSize=12;startSize=8;endSize=8;curved=1;exitX=0;exitY=0.3333333333333333;exitDx=0;exitDy=0;exitPerimeter=0;entryX=0.91;entryY=0.458;entryDx=0;entryDy=0;entryPerimeter=0;" edge="1" parent="1" source="OpSPdWMNVnbvbe5tdn4p-3" target="qcFrkktSELGRXYQpk210-2">
          <mxGeometry width="50" height="50" relative="1" as="geometry">
            <mxPoint x="486" y="72" as="sourcePoint" />
            <mxPoint x="536" y="22" as="targetPoint" />
            <Array as="points">
              <mxPoint x="417" y="78" />
            </Array>
          </mxGeometry>
        </mxCell>
        <mxCell id="VQhu0mEtfMLTqjlmhKUG-4" value="" style="endArrow=classic;html=1;rounded=0;fontSize=12;startSize=8;endSize=8;curved=1;exitX=0;exitY=0.3333333333333333;exitDx=0;exitDy=0;exitPerimeter=0;entryX=1;entryY=0.5;entryDx=0;entryDy=0;" edge="1" parent="1" source="OpSPdWMNVnbvbe5tdn4p-3" target="qcFrkktSELGRXYQpk210-9">
          <mxGeometry width="50" height="50" relative="1" as="geometry">
            <mxPoint x="507" y="315" as="sourcePoint" />
            <mxPoint x="557" y="265" as="targetPoint" />
          </mxGeometry>
        </mxCell>
        <mxCell id="ex6AS6KymIW7GaX8B5xA-1" value="" style="endArrow=classic;html=1;rounded=0;fontSize=12;startSize=8;endSize=8;curved=1;exitX=0;exitY=0.3333333333333333;exitDx=0;exitDy=0;exitPerimeter=0;" edge="1" parent="1" source="OpSPdWMNVnbvbe5tdn4p-3" target="qcFrkktSELGRXYQpk210-10">
          <mxGeometry width="50" height="50" relative="1" as="geometry">
            <mxPoint x="476" y="265" as="sourcePoint" />
            <mxPoint x="526" y="215" as="targetPoint" />
          </mxGeometry>
        </mxCell>
        <mxCell id="gCSsWsthrq8L3CaKLCKI-2" value="&amp;lt;&amp;lt;extend&amp;gt;&amp;gt;" style="endArrow=none;dashed=1;html=1;rounded=0;fontSize=12;startSize=8;endSize=8;curved=1;entryX=0.272;entryY=0.895;entryDx=0;entryDy=0;entryPerimeter=0;exitX=0.5;exitY=0;exitDx=0;exitDy=0;" edge="1" parent="1" source="qcFrkktSELGRXYQpk210-10" target="qcFrkktSELGRXYQpk210-2">
          <mxGeometry width="50" height="50" relative="1" as="geometry">
            <mxPoint x="222" y="238" as="sourcePoint" />
            <mxPoint x="272" y="188" as="targetPoint" />
            <Array as="points">
              <mxPoint x="271" y="229" />
            </Array>
          </mxGeometry>
        </mxCell>
        <mxCell id="4ON_6ccyZO-XZAWmRFST-4" value="&amp;lt;&amp;lt;include&amp;gt;&amp;gt;" style="endArrow=none;dashed=1;html=1;rounded=0;fontSize=12;startSize=8;endSize=8;curved=1;exitX=1;exitY=0;exitDx=0;exitDy=0;entryX=0.4;entryY=0.077;entryDx=0;entryDy=0;entryPerimeter=0;" edge="1" parent="1" source="qcFrkktSELGRXYQpk210-16" target="qcFrkktSELGRXYQpk210-15">
          <mxGeometry width="50" height="50" relative="1" as="geometry">
            <mxPoint x="220" y="295" as="sourcePoint" />
            <mxPoint x="270" y="245" as="targetPoint" />
          </mxGeometry>
        </mxCell>
        <mxCell id="4ON_6ccyZO-XZAWmRFST-5" value="&amp;lt;&amp;lt;include&amp;gt;&amp;gt;" style="endArrow=none;dashed=1;html=1;rounded=0;fontSize=12;startSize=8;endSize=8;curved=1;exitX=1;exitY=0;exitDx=0;exitDy=0;entryX=0.5;entryY=0;entryDx=0;entryDy=0;" edge="1" parent="1" source="qcFrkktSELGRXYQpk210-16" target="qcFrkktSELGRXYQpk210-10">
          <mxGeometry x="-0.4879" y="-9" width="50" height="50" relative="1" as="geometry">
            <mxPoint x="293" y="285" as="sourcePoint" />
            <mxPoint x="343" y="235" as="targetPoint" />
            <Array as="points">
              <mxPoint x="325" y="254" />
            </Array>
            <mxPoint as="offset" />
          </mxGeometry>
        </mxCell>
        <mxCell id="0ZZ-e-4XAQ3NY_-0FKZ7-1" value="&amp;lt;&amp;lt;include&amp;gt;&amp;gt;" style="endArrow=none;dashed=1;html=1;rounded=0;fontSize=12;startSize=8;endSize=8;curved=1;exitX=1;exitY=0.5;exitDx=0;exitDy=0;entryX=0.5;entryY=1;entryDx=0;entryDy=0;" edge="1" parent="1" source="qcFrkktSELGRXYQpk210-17" target="qcFrkktSELGRXYQpk210-16">
          <mxGeometry width="50" height="50" relative="1" as="geometry">
            <mxPoint x="108" y="385" as="sourcePoint" />
            <mxPoint x="158" y="335" as="targetPoint" />
          </mxGeometry>
        </mxCell>
        <mxCell id="LpGFpajC7U7vQN-M-wDu-1" value="&amp;lt;&amp;lt;include&amp;gt;&amp;gt;" style="endArrow=none;dashed=1;html=1;rounded=0;fontSize=12;startSize=8;endSize=8;curved=1;exitX=1;exitY=1;exitDx=0;exitDy=0;" edge="1" parent="1" source="qcFrkktSELGRXYQpk210-18" target="qcFrkktSELGRXYQpk210-9">
          <mxGeometry width="50" height="50" relative="1" as="geometry">
            <mxPoint x="298" y="417.5" as="sourcePoint" />
            <mxPoint x="348" y="367.5" as="targetPoint" />
            <Array as="points">
              <mxPoint x="552" y="458" />
              <mxPoint x="455" y="339" />
            </Array>
          </mxGeometry>
        </mxCell>
      </root>
    </mxGraphModel>
  </diagram>
  <diagram id="qMKuuagtGb--nXFY__sh" name="Page-5">
    <mxGraphModel dx="2139" dy="1851" grid="1" gridSize="10" guides="1" tooltips="1" connect="1" arrows="1" fold="1" page="1" pageScale="1" pageWidth="850" pageHeight="1100" math="0" shadow="0">
      <root>
        <mxCell id="0" />
        <mxCell id="1" parent="0" />
        <UserObject label="" plantUmlData="{&#xa;  &quot;data&quot;: &quot;@startuml SmartClaims_Flowchart\n\nstart\n\n:User uploads claim document;\n\n:System validates file format;\n\nif (Valid format?) then (yes)\n    :Store document in file storage;\n    :Trigger OCR processing;\n    \n    :Extract text from document;\n    \n    if (OCR successful?) then (yes)\n        :NLP extraction of structured fields;\n        \n        :Store extracted data in database;\n        \n        :Calculate triage priority score;\n        \n        fork\n            :Run fraud detection models;\n            :Generate fraud alert if needed;\n        fork again\n            :Run reserve estimation model;\n            :Generate reserve recommendation;\n        end fork\n        \n        :Add claim to priority queue;\n        \n        :Notify assigned claims handler;\n        \n        :Handler reviews claim details;\n        \n        if (Fraud alert present?) then (yes)\n            :Handler examines fraud evidence;\n            \n            if (Investigate further?) then (yes)\n                :Escalate to fraud investigator;\n                :Investigator conducts deep analysis;\n            else (no)\n                :Handler provides feedback on alert;\n            endif\n        endif\n        \n        :Handler reviews reserve estimate;\n        \n        :Handler makes decision;\n        \n        if (Decision?) then (Approve)\n            :Update claim status to Approved;\n            :Generate approval notification;\n            :Store reserve for payment processing;\n        else if (Request Info)\n            :Update claim status to Pending Info;\n            :Send information request to claimant;\n            :Wait for response;\n        else (Deny)\n            :Update claim status to Denied;\n            :Generate denial notification;\n            :Store denial reason;\n        endif\n        \n        :Handler provides optional feedback;\n        \n        :Store feedback for model retraining;\n        \n        :End claim processing;\n        \n        stop\n        \n    else (no)\n        :Log OCR failure;\n        :Notify handler of extraction issue;\n        :Request manual data entry;\n        stop\n    endif\n    \nelse (no)\n    :Return error to user;\n    :Request valid file format;\n    stop\nendif\n\n@enduml&quot;,&#xa;  &quot;format&quot;: &quot;svg&quot;&#xa;}" id="cufKhxckFGvjlKqs6d4k-1">
          <mxCell style="shape=image;noLabel=1;verticalAlign=top;aspect=fixed;imageAspect=0;image=data:image/svg+xml,PHN2ZyB4bWxucz0iaHR0cDovL3d3dy53My5vcmcvMjAwMC9zdmciIHhtbG5zOnhsaW5rPSJodHRwOi8vd3d3LnczLm9yZy8xOTk5L3hsaW5rIiBjb250ZW50U3R5bGVUeXBlPSJ0ZXh0L2NzcyIgZGF0YS1kaWFncmFtLXR5cGU9IkFDVElWSVRZIiBoZWlnaHQ9IjE3MjZweCIgcHJlc2VydmVBc3BlY3RSYXRpbz0ibm9uZSIgc3R5bGU9IndpZHRoOjExNDJweDtoZWlnaHQ6MTcyNnB4O2JhY2tncm91bmQ6I0ZGRkZGRjsiIHZlcnNpb249IjEuMSIgdmlld0JveD0iMCAwIDExNDIgMTcyNiIgd2lkdGg9IjExNDJweCIgem9vbUFuZFBhbj0ibWFnbmlmeSI+PGRlZnMvPjxnPjxlbGxpcHNlIGN4PSI4MzEuMjUiIGN5PSIyMCIgZmlsbD0iIzIyMjIyMiIgcng9IjEwIiByeT0iMTAiIHN0eWxlPSJzdHJva2U6IzIyMjIyMjtzdHJva2Utd2lkdGg6MTsiLz48cmVjdCBmaWxsPSIjRjFGMUYxIiBoZWlnaHQ9IjMyLjg0MzgiIHJ4PSIxMi41IiByeT0iMTIuNSIgc3R5bGU9InN0cm9rZTojMTgxODE4O3N0cm9rZS13aWR0aDowLjU7IiB3aWR0aD0iMTgyIiB4PSI3NDAuMjUiIHk9IjUwIi8+PHRleHQgZmlsbD0iIzAwMDAwMCIgZm9udC1mYW1pbHk9InNhbnMtc2VyaWYiIGZvbnQtc2l6ZT0iMTIiIGxlbmd0aEFkanVzdD0ic3BhY2luZyIgdGV4dExlbmd0aD0iMTYyIiB4PSI3NTAuMjUiIHk9IjcxLjM0MzgiPlVzZXIgdXBsb2FkcyBjbGFpbSBkb2N1bWVudDwvdGV4dD48cmVjdCBmaWxsPSIjRjFGMUYxIiBoZWlnaHQ9IjMyLjg0MzgiIHJ4PSIxMi41IiByeT0iMTIuNSIgc3R5bGU9InN0cm9rZTojMTgxODE4O3N0cm9rZS13aWR0aDowLjU7IiB3aWR0aD0iMTg4IiB4PSI3MzcuMjUiIHk9IjEwMi44NDM4Ii8+PHRleHQgZmlsbD0iIzAwMDAwMCIgZm9udC1mYW1pbHk9InNhbnMtc2VyaWYiIGZvbnQtc2l6ZT0iMTIiIGxlbmd0aEFkanVzdD0ic3BhY2luZyIgdGV4dExlbmd0aD0iMTY4IiB4PSI3NDcuMjUiIHk9IjEyNC4xODc1Ij5TeXN0ZW0gdmFsaWRhdGVzIGZpbGUgZm9ybWF0PC90ZXh0Pjxwb2x5Z29uIGZpbGw9IiNGMUYxRjEiIHBvaW50cz0iNzk1LjUsMTU1LjY4NzUsODY3LDE1NS42ODc1LDg3OSwxNjcuNjg3NSw4NjcsMTc5LjY4NzUsNzk1LjUsMTc5LjY4NzUsNzgzLjUsMTY3LjY4NzUsNzk1LjUsMTU1LjY4NzUiIHN0eWxlPSJzdHJva2U6IzE4MTgxODtzdHJva2Utd2lkdGg6MC41OyIvPjx0ZXh0IGZpbGw9IiMwMDAwMDAiIGZvbnQtZmFtaWx5PSJzYW5zLXNlcmlmIiBmb250LXNpemU9IjExIiBsZW5ndGhBZGp1c3Q9InNwYWNpbmciIHRleHRMZW5ndGg9IjcxLjUiIHg9Ijc5NS41IiB5PSIxNzIuMTk5MiI+VmFsaWQgZm9ybWF0PzwvdGV4dD48dGV4dCBmaWxsPSIjMDAwMDAwIiBmb250LWZhbWlseT0ic2Fucy1zZXJpZiIgZm9udC1zaXplPSIxMSIgbGVuZ3RoQWRqdXN0PSJzcGFjaW5nIiB0ZXh0TGVuZ3RoPSIxNi41IiB4PSI3NjciIHk9IjE2Ni4zMTI1Ij55ZXM8L3RleHQ+PHRleHQgZmlsbD0iIzAwMDAwMCIgZm9udC1mYW1pbHk9InNhbnMtc2VyaWYiIGZvbnQtc2l6ZT0iMTEiIGxlbmd0aEFkanVzdD0ic3BhY2luZyIgdGV4dExlbmd0aD0iMTEiIHg9Ijg3OSIgeT0iMTY2LjMxMjUiPm5vPC90ZXh0PjxyZWN0IGZpbGw9IiNGMUYxRjEiIGhlaWdodD0iMzIuODQzOCIgcng9IjEyLjUiIHJ5PSIxMi41IiBzdHlsZT0ic3Ryb2tlOiMxODE4MTg7c3Ryb2tlLXdpZHRoOjAuNTsiIHdpZHRoPSIyMDAiIHg9IjUwNi41IiB5PSIxODkuNjg3NSIvPjx0ZXh0IGZpbGw9IiMwMDAwMDAiIGZvbnQtZmFtaWx5PSJzYW5zLXNlcmlmIiBmb250LXNpemU9IjEyIiBsZW5ndGhBZGp1c3Q9InNwYWNpbmciIHRleHRMZW5ndGg9IjE4MCIgeD0iNTE2LjUiIHk9IjIxMS4wMzEzIj5TdG9yZSBkb2N1bWVudCBpbiBmaWxlIHN0b3JhZ2U8L3RleHQ+PHJlY3QgZmlsbD0iI0YxRjFGMSIgaGVpZ2h0PSIzMi44NDM4IiByeD0iMTIuNSIgcnk9IjEyLjUiIHN0eWxlPSJzdHJva2U6IzE4MTgxODtzdHJva2Utd2lkdGg6MC41OyIgd2lkdGg9IjE1MiIgeD0iNTMwLjUiIHk9IjI0Mi41MzEzIi8+PHRleHQgZmlsbD0iIzAwMDAwMCIgZm9udC1mYW1pbHk9InNhbnMtc2VyaWYiIGZvbnQtc2l6ZT0iMTIiIGxlbmd0aEFkanVzdD0ic3BhY2luZyIgdGV4dExlbmd0aD0iMTMyIiB4PSI1NDAuNSIgeT0iMjYzLjg3NSI+VHJpZ2dlciBPQ1IgcHJvY2Vzc2luZzwvdGV4dD48cmVjdCBmaWxsPSIjRjFGMUYxIiBoZWlnaHQ9IjMyLjg0MzgiIHJ4PSIxMi41IiByeT0iMTIuNSIgc3R5bGU9InN0cm9rZTojMTgxODE4O3N0cm9rZS13aWR0aDowLjU7IiB3aWR0aD0iMTc2IiB4PSI1MTguNSIgeT0iMjk1LjM3NSIvPjx0ZXh0IGZpbGw9IiMwMDAwMDAiIGZvbnQtZmFtaWx5PSJzYW5zLXNlcmlmIiBmb250LXNpemU9IjEyIiBsZW5ndGhBZGp1c3Q9InNwYWNpbmciIHRleHRMZW5ndGg9IjE1NiIgeD0iNTI4LjUiIHk9IjMxNi43MTg4Ij5FeHRyYWN0IHRleHQgZnJvbSBkb2N1bWVudDwvdGV4dD48cG9seWdvbiBmaWxsPSIjRjFGMUYxIiBwb2ludHM9IjU2NS4yNSwzNDguMjE4OCw2NDcuNzUsMzQ4LjIxODgsNjU5Ljc1LDM2MC4yMTg4LDY0Ny43NSwzNzIuMjE4OCw1NjUuMjUsMzcyLjIxODgsNTUzLjI1LDM2MC4yMTg4LDU2NS4yNSwzNDguMjE4OCIgc3R5bGU9InN0cm9rZTojMTgxODE4O3N0cm9rZS13aWR0aDowLjU7Ii8+PHRleHQgZmlsbD0iIzAwMDAwMCIgZm9udC1mYW1pbHk9InNhbnMtc2VyaWYiIGZvbnQtc2l6ZT0iMTEiIGxlbmd0aEFkanVzdD0ic3BhY2luZyIgdGV4dExlbmd0aD0iODIuNSIgeD0iNTY1LjI1IiB5PSIzNjQuNzMwNSI+T0NSIHN1Y2Nlc3NmdWw/PC90ZXh0Pjx0ZXh0IGZpbGw9IiMwMDAwMDAiIGZvbnQtZmFtaWx5PSJzYW5zLXNlcmlmIiBmb250LXNpemU9IjExIiBsZW5ndGhBZGp1c3Q9InNwYWNpbmciIHRleHRMZW5ndGg9IjE2LjUiIHg9IjUzNi43NSIgeT0iMzU4Ljg0MzgiPnllczwvdGV4dD48dGV4dCBmaWxsPSIjMDAwMDAwIiBmb250LWZhbWlseT0ic2Fucy1zZXJpZiIgZm9udC1zaXplPSIxMSIgbGVuZ3RoQWRqdXN0PSJzcGFjaW5nIiB0ZXh0TGVuZ3RoPSIxMSIgeD0iNjU5Ljc1IiB5PSIzNTguODQzOCI+bm88L3RleHQ+PHJlY3QgZmlsbD0iI0YxRjFGMSIgaGVpZ2h0PSIzMi44NDM4IiByeD0iMTIuNSIgcnk9IjEyLjUiIHN0eWxlPSJzdHJva2U6IzE4MTgxODtzdHJva2Utd2lkdGg6MC41OyIgd2lkdGg9IjIzMCIgeD0iMjQ5IiB5PSIzODIuMjE4OCIvPjx0ZXh0IGZpbGw9IiMwMDAwMDAiIGZvbnQtZmFtaWx5PSJzYW5zLXNlcmlmIiBmb250LXNpemU9IjEyIiBsZW5ndGhBZGp1c3Q9InNwYWNpbmciIHRleHRMZW5ndGg9IjIxMCIgeD0iMjU5IiB5PSI0MDMuNTYyNSI+TkxQIGV4dHJhY3Rpb24gb2Ygc3RydWN0dXJlZCBmaWVsZHM8L3RleHQ+PHJlY3QgZmlsbD0iI0YxRjFGMSIgaGVpZ2h0PSIzMi44NDM4IiByeD0iMTIuNSIgcnk9IjEyLjUiIHN0eWxlPSJzdHJva2U6IzE4MTgxODtzdHJva2Utd2lkdGg6MC41OyIgd2lkdGg9IjIxMiIgeD0iMjU4IiB5PSI0MzUuMDYyNSIvPjx0ZXh0IGZpbGw9IiMwMDAwMDAiIGZvbnQtZmFtaWx5PSJzYW5zLXNlcmlmIiBmb250LXNpemU9IjEyIiBsZW5ndGhBZGp1c3Q9InNwYWNpbmciIHRleHRMZW5ndGg9IjE5MiIgeD0iMjY4IiB5PSI0NTYuNDA2MyI+U3RvcmUgZXh0cmFjdGVkIGRhdGEgaW4gZGF0YWJhc2U8L3RleHQ+PHJlY3QgZmlsbD0iI0YxRjFGMSIgaGVpZ2h0PSIzMi44NDM4IiByeD0iMTIuNSIgcnk9IjEyLjUiIHN0eWxlPSJzdHJva2U6IzE4MTgxODtzdHJva2Utd2lkdGg6MC41OyIgd2lkdGg9IjIwNiIgeD0iMjYxIiB5PSI0ODcuOTA2MyIvPjx0ZXh0IGZpbGw9IiMwMDAwMDAiIGZvbnQtZmFtaWx5PSJzYW5zLXNlcmlmIiBmb250LXNpemU9IjEyIiBsZW5ndGhBZGp1c3Q9InNwYWNpbmciIHRleHRMZW5ndGg9IjE4NiIgeD0iMjcxIiB5PSI1MDkuMjUiPkNhbGN1bGF0ZSB0cmlhZ2UgcHJpb3JpdHkgc2NvcmU8L3RleHQ+PHJlY3QgZmlsbD0iIzU1NTU1NSIgaGVpZ2h0PSI2IiByeD0iMi41IiByeT0iMi41IiBzdHlsZT0ic3Ryb2tlOiM1NTU1NTU7c3Ryb2tlLXdpZHRoOjE7IiB3aWR0aD0iNDYyIiB4PSIxMzMiIHk9IjU0MC43NSIvPjxyZWN0IGZpbGw9IiNGMUYxRjEiIGhlaWdodD0iMzIuODQzOCIgcng9IjEyLjUiIHJ5PSIxMi41IiBzdHlsZT0ic3Ryb2tlOiMxODE4MTg7c3Ryb2tlLXdpZHRoOjAuNTsiIHdpZHRoPSIxNzYiIHg9IjE1OSIgeT0iNTY2Ljc1Ii8+PHRleHQgZmlsbD0iIzAwMDAwMCIgZm9udC1mYW1pbHk9InNhbnMtc2VyaWYiIGZvbnQtc2l6ZT0iMTIiIGxlbmd0aEFkanVzdD0ic3BhY2luZyIgdGV4dExlbmd0aD0iMTU2IiB4PSIxNjkiIHk9IjU4OC4wOTM4Ij5SdW4gZnJhdWQgZGV0ZWN0aW9uIG1vZGVsczwvdGV4dD48cmVjdCBmaWxsPSIjRjFGMUYxIiBoZWlnaHQ9IjMyLjg0MzgiIHJ4PSIxMi41IiByeT0iMTIuNSIgc3R5bGU9InN0cm9rZTojMTgxODE4O3N0cm9rZS13aWR0aDowLjU7IiB3aWR0aD0iMjAwIiB4PSIxNDciIHk9IjYxOS41OTM4Ii8+PHRleHQgZmlsbD0iIzAwMDAwMCIgZm9udC1mYW1pbHk9InNhbnMtc2VyaWYiIGZvbnQtc2l6ZT0iMTIiIGxlbmd0aEFkanVzdD0ic3BhY2luZyIgdGV4dExlbmd0aD0iMTgwIiB4PSIxNTciIHk9IjY0MC45Mzc1Ij5HZW5lcmF0ZSBmcmF1ZCBhbGVydCBpZiBuZWVkZWQ8L3RleHQ+PHJlY3QgZmlsbD0iI0YxRjFGMSIgaGVpZ2h0PSIzMi44NDM4IiByeD0iMTIuNSIgcnk9IjEyLjUiIHN0eWxlPSJzdHJva2U6IzE4MTgxODtzdHJva2Utd2lkdGg6MC41OyIgd2lkdGg9IjE4OCIgeD0iMzg0IiB5PSI1NjYuNzUiLz48dGV4dCBmaWxsPSIjMDAwMDAwIiBmb250LWZhbWlseT0ic2Fucy1zZXJpZiIgZm9udC1zaXplPSIxMiIgbGVuZ3RoQWRqdXN0PSJzcGFjaW5nIiB0ZXh0TGVuZ3RoPSIxNjgiIHg9IjM5NCIgeT0iNTg4LjA5MzgiPlJ1biByZXNlcnZlIGVzdGltYXRpb24gbW9kZWw8L3RleHQ+PHJlY3QgZmlsbD0iI0YxRjFGMSIgaGVpZ2h0PSIzMi44NDM4IiByeD0iMTIuNSIgcnk9IjEyLjUiIHN0eWxlPSJzdHJva2U6IzE4MTgxODtzdHJva2Utd2lkdGg6MC41OyIgd2lkdGg9IjIwNiIgeD0iMzc1IiB5PSI2MTkuNTkzOCIvPjx0ZXh0IGZpbGw9IiMwMDAwMDAiIGZvbnQtZmFtaWx5PSJzYW5zLXNlcmlmIiBmb250LXNpemU9IjEyIiBsZW5ndGhBZGp1c3Q9InNwYWNpbmciIHRleHRMZW5ndGg9IjE4NiIgeD0iMzg1IiB5PSI2NDAuOTM3NSI+R2VuZXJhdGUgcmVzZXJ2ZSByZWNvbW1lbmRhdGlvbjwvdGV4dD48cmVjdCBmaWxsPSIjNTU1NTU1IiBoZWlnaHQ9IjYiIHJ4PSIyLjUiIHJ5PSIyLjUiIHN0eWxlPSJzdHJva2U6IzU1NTU1NTtzdHJva2Utd2lkdGg6MTsiIHdpZHRoPSI0NjIiIHg9IjEzMyIgeT0iNjcyLjQzNzUiLz48cmVjdCBmaWxsPSIjRjFGMUYxIiBoZWlnaHQ9IjMyLjg0MzgiIHJ4PSIxMi41IiByeT0iMTIuNSIgc3R5bGU9InN0cm9rZTojMTgxODE4O3N0cm9rZS13aWR0aDowLjU7IiB3aWR0aD0iMTgyIiB4PSIyNzMiIHk9IjY5OC40Mzc1Ii8+PHRleHQgZmlsbD0iIzAwMDAwMCIgZm9udC1mYW1pbHk9InNhbnMtc2VyaWYiIGZvbnQtc2l6ZT0iMTIiIGxlbmd0aEFkanVzdD0ic3BhY2luZyIgdGV4dExlbmd0aD0iMTYyIiB4PSIyODMiIHk9IjcxOS43ODEzIj5BZGQgY2xhaW0gdG8gcHJpb3JpdHkgcXVldWU8L3RleHQ+PHJlY3QgZmlsbD0iI0YxRjFGMSIgaGVpZ2h0PSIzMi44NDM4IiByeD0iMTIuNSIgcnk9IjEyLjUiIHN0eWxlPSJzdHJva2U6IzE4MTgxODtzdHJva2Utd2lkdGg6MC41OyIgd2lkdGg9IjIwMCIgeD0iMjY0IiB5PSI3NTEuMjgxMyIvPjx0ZXh0IGZpbGw9IiMwMDAwMDAiIGZvbnQtZmFtaWx5PSJzYW5zLXNlcmlmIiBmb250LXNpemU9IjEyIiBsZW5ndGhBZGp1c3Q9InNwYWNpbmciIHRleHRMZW5ndGg9IjE4MCIgeD0iMjc0IiB5PSI3NzIuNjI1Ij5Ob3RpZnkgYXNzaWduZWQgY2xhaW1zIGhhbmRsZXI8L3RleHQ+PHJlY3QgZmlsbD0iI0YxRjFGMSIgaGVpZ2h0PSIzMi44NDM4IiByeD0iMTIuNSIgcnk9IjEyLjUiIHN0eWxlPSJzdHJva2U6IzE4MTgxODtzdHJva2Utd2lkdGg6MC41OyIgd2lkdGg9IjE5NCIgeD0iMjY3IiB5PSI4MDQuMTI1Ii8+PHRleHQgZmlsbD0iIzAwMDAwMCIgZm9udC1mYW1pbHk9InNhbnMtc2VyaWYiIGZvbnQtc2l6ZT0iMTIiIGxlbmd0aEFkanVzdD0ic3BhY2luZyIgdGV4dExlbmd0aD0iMTc0IiB4PSIyNzciIHk9IjgyNS40Njg4Ij5IYW5kbGVyIHJldmlld3MgY2xhaW0gZGV0YWlsczwvdGV4dD48cmVjdCBmaWxsPSIjRjFGMUYxIiBoZWlnaHQ9IjMyLjg0MzgiIHJ4PSIxMi41IiByeT0iMTIuNSIgc3R5bGU9InN0cm9rZTojMTgxODE4O3N0cm9rZS13aWR0aDowLjU7IiB3aWR0aD0iMjA2IiB4PSIyNjEiIHk9IjkwNC45Njg4Ii8+PHRleHQgZmlsbD0iIzAwMDAwMCIgZm9udC1mYW1pbHk9InNhbnMtc2VyaWYiIGZvbnQtc2l6ZT0iMTIiIGxlbmd0aEFkanVzdD0ic3BhY2luZyIgdGV4dExlbmd0aD0iMTg2IiB4PSIyNzEiIHk9IjkyNi4zMTI1Ij5IYW5kbGVyIGV4YW1pbmVzIGZyYXVkIGV2aWRlbmNlPC90ZXh0Pjxwb2x5Z29uIGZpbGw9IiNGMUYxRjEiIHBvaW50cz0iMzA5LDk1Ny44MTI1LDQxOSw5NTcuODEyNSw0MzEsOTY5LjgxMjUsNDE5LDk4MS44MTI1LDMwOSw5ODEuODEyNSwyOTcsOTY5LjgxMjUsMzA5LDk1Ny44MTI1IiBzdHlsZT0ic3Ryb2tlOiMxODE4MTg7c3Ryb2tlLXdpZHRoOjAuNTsiLz48dGV4dCBmaWxsPSIjMDAwMDAwIiBmb250LWZhbWlseT0ic2Fucy1zZXJpZiIgZm9udC1zaXplPSIxMSIgbGVuZ3RoQWRqdXN0PSJzcGFjaW5nIiB0ZXh0TGVuZ3RoPSIxMTAiIHg9IjMwOSIgeT0iOTc0LjMyNDIiPkludmVzdGlnYXRlIGZ1cnRoZXI/PC90ZXh0Pjx0ZXh0IGZpbGw9IiMwMDAwMDAiIGZvbnQtZmFtaWx5PSJzYW5zLXNlcmlmIiBmb250LXNpemU9IjExIiBsZW5ndGhBZGp1c3Q9InNwYWNpbmciIHRleHRMZW5ndGg9IjE2LjUiIHg9IjI4MC41IiB5PSI5NjguNDM3NSI+eWVzPC90ZXh0Pjx0ZXh0IGZpbGw9IiMwMDAwMDAiIGZvbnQtZmFtaWx5PSJzYW5zLXNlcmlmIiBmb250LXNpemU9IjExIiBsZW5ndGhBZGp1c3Q9InNwYWNpbmciIHRleHRMZW5ndGg9IjExIiB4PSI0MzEiIHk9Ijk2OC40Mzc1Ij5ubzwvdGV4dD48cmVjdCBmaWxsPSIjRjFGMUYxIiBoZWlnaHQ9IjMyLjg0MzgiIHJ4PSIxMi41IiByeT0iMTIuNSIgc3R5bGU9InN0cm9rZTojMTgxODE4O3N0cm9rZS13aWR0aDowLjU7IiB3aWR0aD0iMjAwIiB4PSIxNDAuNSIgeT0iOTkxLjgxMjUiLz48dGV4dCBmaWxsPSIjMDAwMDAwIiBmb250LWZhbWlseT0ic2Fucy1zZXJpZiIgZm9udC1zaXplPSIxMiIgbGVuZ3RoQWRqdXN0PSJzcGFjaW5nIiB0ZXh0TGVuZ3RoPSIxODAiIHg9IjE1MC41IiB5PSIxMDEzLjE1NjMiPkVzY2FsYXRlIHRvIGZyYXVkIGludmVzdGlnYXRvcjwvdGV4dD48cmVjdCBmaWxsPSIjRjFGMUYxIiBoZWlnaHQ9IjMyLjg0MzgiIHJ4PSIxMi41IiByeT0iMTIuNSIgc3R5bGU9InN0cm9rZTojMTgxODE4O3N0cm9rZS13aWR0aDowLjU7IiB3aWR0aD0iMjMwIiB4PSIxMjUuNSIgeT0iMTA0NC42NTYzIi8+PHRleHQgZmlsbD0iIzAwMDAwMCIgZm9udC1mYW1pbHk9InNhbnMtc2VyaWYiIGZvbnQtc2l6ZT0iMTIiIGxlbmd0aEFkanVzdD0ic3BhY2luZyIgdGV4dExlbmd0aD0iMjEwIiB4PSIxMzUuNSIgeT0iMTA2NiI+SW52ZXN0aWdhdG9yIGNvbmR1Y3RzIGRlZXAgYW5hbHlzaXM8L3RleHQ+PHJlY3QgZmlsbD0iI0YxRjFGMSIgaGVpZ2h0PSIzMi44NDM4IiByeD0iMTIuNSIgcnk9IjEyLjUiIHN0eWxlPSJzdHJva2U6IzE4MTgxODtzdHJva2Utd2lkdGg6MC41OyIgd2lkdGg9IjIyNCIgeD0iMzc1LjUiIHk9Ijk5MS44MTI1Ii8+PHRleHQgZmlsbD0iIzAwMDAwMCIgZm9udC1mYW1pbHk9InNhbnMtc2VyaWYiIGZvbnQtc2l6ZT0iMTIiIGxlbmd0aEFkanVzdD0ic3BhY2luZyIgdGV4dExlbmd0aD0iMjA0IiB4PSIzODUuNSIgeT0iMTAxMy4xNTYzIj5IYW5kbGVyIHByb3ZpZGVzIGZlZWRiYWNrIG9uIGFsZXJ0PC90ZXh0Pjxwb2x5Z29uIGZpbGw9IiNGMUYxRjEiIHBvaW50cz0iMzY0LDEwODMuNSwzNzYsMTA5NS41LDM2NCwxMTA3LjUsMzUyLDEwOTUuNSwzNjQsMTA4My41IiBzdHlsZT0ic3Ryb2tlOiMxODE4MTg7c3Ryb2tlLXdpZHRoOjAuNTsiLz48cG9seWdvbiBmaWxsPSIjRjFGMUYxIiBwb2ludHM9IjMwOSw4NTYuOTY4OCw0MTksODU2Ljk2ODgsNDMxLDg2OC45Njg4LDQxOSw4ODAuOTY4OCwzMDksODgwLjk2ODgsMjk3LDg2OC45Njg4LDMwOSw4NTYuOTY4OCIgc3R5bGU9InN0cm9rZTojMTgxODE4O3N0cm9rZS13aWR0aDowLjU7Ii8+PHRleHQgZmlsbD0iIzAwMDAwMCIgZm9udC1mYW1pbHk9InNhbnMtc2VyaWYiIGZvbnQtc2l6ZT0iMTEiIGxlbmd0aEFkanVzdD0ic3BhY2luZyIgdGV4dExlbmd0aD0iMTYuNSIgeD0iMzY4IiB5PSI4OTEuMzY3MiI+eWVzPC90ZXh0Pjx0ZXh0IGZpbGw9IiMwMDAwMDAiIGZvbnQtZmFtaWx5PSJzYW5zLXNlcmlmIiBmb250LXNpemU9IjExIiBsZW5ndGhBZGp1c3Q9InNwYWNpbmciIHRleHRMZW5ndGg9IjExMCIgeD0iMzA5IiB5PSI4NzMuNDgwNSI+RnJhdWQgYWxlcnQgcHJlc2VudD88L3RleHQ+PHBvbHlnb24gZmlsbD0iI0YxRjFGMSIgcG9pbnRzPSIzNjQsMTEyNy41LDM3NiwxMTM5LjUsMzY0LDExNTEuNSwzNTIsMTEzOS41LDM2NCwxMTI3LjUiIHN0eWxlPSJzdHJva2U6IzE4MTgxODtzdHJva2Utd2lkdGg6MC41OyIvPjxyZWN0IGZpbGw9IiNGMUYxRjEiIGhlaWdodD0iMzIuODQzOCIgcng9IjEyLjUiIHJ5PSIxMi41IiBzdHlsZT0ic3Ryb2tlOiMxODE4MTg7c3Ryb2tlLXdpZHRoOjAuNTsiIHdpZHRoPSIyMTIiIHg9IjI1OCIgeT0iMTE3MS41Ii8+PHRleHQgZmlsbD0iIzAwMDAwMCIgZm9udC1mYW1pbHk9InNhbnMtc2VyaWYiIGZvbnQtc2l6ZT0iMTIiIGxlbmd0aEFkanVzdD0ic3BhY2luZyIgdGV4dExlbmd0aD0iMTkyIiB4PSIyNjgiIHk9IjExOTIuODQzOCI+SGFuZGxlciByZXZpZXdzIHJlc2VydmUgZXN0aW1hdGU8L3RleHQ+PHJlY3QgZmlsbD0iI0YxRjFGMSIgaGVpZ2h0PSIzMi44NDM4IiByeD0iMTIuNSIgcnk9IjEyLjUiIHN0eWxlPSJzdHJva2U6IzE4MTgxODtzdHJva2Utd2lkdGg6MC41OyIgd2lkdGg9IjE1MiIgeD0iMjg4IiB5PSIxMjI0LjM0MzgiLz48dGV4dCBmaWxsPSIjMDAwMDAwIiBmb250LWZhbWlseT0ic2Fucy1zZXJpZiIgZm9udC1zaXplPSIxMiIgbGVuZ3RoQWRqdXN0PSJzcGFjaW5nIiB0ZXh0TGVuZ3RoPSIxMzIiIHg9IjI5OCIgeT0iMTI0NS42ODc1Ij5IYW5kbGVyIG1ha2VzIGRlY2lzaW9uPC90ZXh0Pjxwb2x5Z29uIGZpbGw9IiNGMUYxRjEiIHBvaW50cz0iMTA0LjI1LDEyNzcuMTg3NSwxNTMuNzUsMTI3Ny4xODc1LDE2NS43NSwxMjg5LjE4NzUsMTUzLjc1LDEzMDEuMTg3NSwxMDQuMjUsMTMwMS4xODc1LDkyLjI1LDEyODkuMTg3NSwxMDQuMjUsMTI3Ny4xODc1IiBzdHlsZT0ic3Ryb2tlOiMxODE4MTg7c3Ryb2tlLXdpZHRoOjAuNTsiLz48dGV4dCBmaWxsPSIjMDAwMDAwIiBmb250LWZhbWlseT0ic2Fucy1zZXJpZiIgZm9udC1zaXplPSIxMSIgbGVuZ3RoQWRqdXN0PSJzcGFjaW5nIiB0ZXh0TGVuZ3RoPSIzOC41IiB4PSIxMzMiIHk9IjEzMTEuNTg1OSI+QXBwcm92ZTwvdGV4dD48dGV4dCBmaWxsPSIjMDAwMDAwIiBmb250LWZhbWlseT0ic2Fucy1zZXJpZiIgZm9udC1zaXplPSIxMSIgbGVuZ3RoQWRqdXN0PSJzcGFjaW5nIiB0ZXh0TGVuZ3RoPSI0OS41IiB4PSIxMDQuMjUiIHk9IjEyOTMuNjk5MiI+RGVjaXNpb24/PC90ZXh0PjxyZWN0IGZpbGw9IiNGMUYxRjEiIGhlaWdodD0iMzIuODQzOCIgcng9IjEyLjUiIHJ5PSIxMi41IiBzdHlsZT0ic3Ryb2tlOiMxODE4MTg7c3Ryb2tlLXdpZHRoOjAuNTsiIHdpZHRoPSIyMDYiIHg9IjI2IiB5PSIxMzMyLjk2MDkiLz48dGV4dCBmaWxsPSIjMDAwMDAwIiBmb250LWZhbWlseT0ic2Fucy1zZXJpZiIgZm9udC1zaXplPSIxMiIgbGVuZ3RoQWRqdXN0PSJzcGFjaW5nIiB0ZXh0TGVuZ3RoPSIxODYiIHg9IjM2IiB5PSIxMzU0LjMwNDciPlVwZGF0ZSBjbGFpbSBzdGF0dXMgdG8gQXBwcm92ZWQ8L3RleHQ+PHJlY3QgZmlsbD0iI0YxRjFGMSIgaGVpZ2h0PSIzMi44NDM4IiByeD0iMTIuNSIgcnk9IjEyLjUiIHN0eWxlPSJzdHJva2U6IzE4MTgxODtzdHJva2Utd2lkdGg6MC41OyIgd2lkdGg9IjIwMCIgeD0iMjkiIHk9IjEzOTcuNTc4MSIvPjx0ZXh0IGZpbGw9IiMwMDAwMDAiIGZvbnQtZmFtaWx5PSJzYW5zLXNlcmlmIiBmb250LXNpemU9IjEyIiBsZW5ndGhBZGp1c3Q9InNwYWNpbmciIHRleHRMZW5ndGg9IjE4MCIgeD0iMzkiIHk9IjE0MTguOTIxOSI+R2VuZXJhdGUgYXBwcm92YWwgbm90aWZpY2F0aW9uPC90ZXh0PjxyZWN0IGZpbGw9IiNGMUYxRjEiIGhlaWdodD0iMzIuODQzOCIgcng9IjEyLjUiIHJ5PSIxMi41IiBzdHlsZT0ic3Ryb2tlOiMxODE4MTg7c3Ryb2tlLXdpZHRoOjAuNTsiIHdpZHRoPSIyMzYiIHg9IjExIiB5PSIxNDYyLjE5NTMiLz48dGV4dCBmaWxsPSIjMDAwMDAwIiBmb250LWZhbWlseT0ic2Fucy1zZXJpZiIgZm9udC1zaXplPSIxMiIgbGVuZ3RoQWRqdXN0PSJzcGFjaW5nIiB0ZXh0TGVuZ3RoPSIyMTYiIHg9IjIxIiB5PSIxNDgzLjUzOTEiPlN0b3JlIHJlc2VydmUgZm9yIHBheW1lbnQgcHJvY2Vzc2luZzwvdGV4dD48cG9seWdvbiBmaWxsPSIjRjFGMUYxIiBwb2ludHM9IjM1MiwxMjc3LjE4NzUsNDE4LDEyNzcuMTg3NSw0MzAsMTI4OS4xODc1LDQxOCwxMzAxLjE4NzUsMzUyLDEzMDEuMTg3NSwzNDAsMTI4OS4xODc1LDM1MiwxMjc3LjE4NzUiIHN0eWxlPSJzdHJva2U6IzE4MTgxODtzdHJva2Utd2lkdGg6MC41OyIvPjx0ZXh0IGZpbGw9IiMwMDAwMDAiIGZvbnQtZmFtaWx5PSJzYW5zLXNlcmlmIiBmb250LXNpemU9IjExIiBsZW5ndGhBZGp1c3Q9InNwYWNpbmciIHRleHRMZW5ndGg9IjY2IiB4PSIzNTIiIHk9IjEyOTMuNjk5MiI+UmVxdWVzdCBJbmZvPC90ZXh0Pjx0ZXh0IGZpbGw9IiMwMDAwMDAiIGZvbnQtZmFtaWx5PSJzYW5zLXNlcmlmIiBmb250LXNpemU9IjExIiBsZW5ndGhBZGp1c3Q9InNwYWNpbmciIHRleHRMZW5ndGg9IjIyIiB4PSI0MzAiIHk9IjEyODcuODEyNSI+RGVueTwvdGV4dD48cmVjdCBmaWxsPSIjRjFGMUYxIiBoZWlnaHQ9IjMyLjg0MzgiIHJ4PSIxMi41IiByeT0iMTIuNSIgc3R5bGU9InN0cm9rZTojMTgxODE4O3N0cm9rZS13aWR0aDowLjU7IiB3aWR0aD0iMjMwIiB4PSIyNzAiIHk9IjEzMjEuMTg3NSIvPjx0ZXh0IGZpbGw9IiMwMDAwMDAiIGZvbnQtZmFtaWx5PSJzYW5zLXNlcmlmIiBmb250LXNpemU9IjEyIiBsZW5ndGhBZGp1c3Q9InNwYWNpbmciIHRleHRMZW5ndGg9IjIxMCIgeD0iMjgwIiB5PSIxMzQyLjUzMTMiPlVwZGF0ZSBjbGFpbSBzdGF0dXMgdG8gUGVuZGluZyBJbmZvPC90ZXh0PjxyZWN0IGZpbGw9IiNGMUYxRjEiIGhlaWdodD0iMzIuODQzOCIgcng9IjEyLjUiIHJ5PSIxMi41IiBzdHlsZT0ic3Ryb2tlOiMxODE4MTg7c3Ryb2tlLXdpZHRoOjAuNTsiIHdpZHRoPSIyMzYiIHg9IjI2NyIgeT0iMTM4NS44MDQ3Ii8+PHRleHQgZmlsbD0iIzAwMDAwMCIgZm9udC1mYW1pbHk9InNhbnMtc2VyaWYiIGZvbnQtc2l6ZT0iMTIiIGxlbmd0aEFkanVzdD0ic3BhY2luZyIgdGV4dExlbmd0aD0iMjE2IiB4PSIyNzciIHk9IjE0MDcuMTQ4NCI+U2VuZCBpbmZvcm1hdGlvbiByZXF1ZXN0IHRvIGNsYWltYW50PC90ZXh0PjxyZWN0IGZpbGw9IiNGMUYxRjEiIGhlaWdodD0iMzIuODQzOCIgcng9IjEyLjUiIHJ5PSIxMi41IiBzdHlsZT0ic3Ryb2tlOiMxODE4MTg7c3Ryb2tlLXdpZHRoOjAuNTsiIHdpZHRoPSIxMjIiIHg9IjMyNCIgeT0iMTQ1MC40MjE5Ii8+PHRleHQgZmlsbD0iIzAwMDAwMCIgZm9udC1mYW1pbHk9InNhbnMtc2VyaWYiIGZvbnQtc2l6ZT0iMTIiIGxlbmd0aEFkanVzdD0ic3BhY2luZyIgdGV4dExlbmd0aD0iMTAyIiB4PSIzMzQiIHk9IjE0NzEuNzY1NiI+V2FpdCBmb3IgcmVzcG9uc2U8L3RleHQ+PHJlY3QgZmlsbD0iI0YxRjFGMSIgaGVpZ2h0PSIzMi44NDM4IiByeD0iMTIuNSIgcnk9IjEyLjUiIHN0eWxlPSJzdHJva2U6IzE4MTgxODtzdHJva2Utd2lkdGg6MC41OyIgd2lkdGg9IjE5NCIgeD0iNTIzIiB5PSIxMzMwLjA3NDIiLz48dGV4dCBmaWxsPSIjMDAwMDAwIiBmb250LWZhbWlseT0ic2Fucy1zZXJpZiIgZm9udC1zaXplPSIxMiIgbGVuZ3RoQWRqdXN0PSJzcGFjaW5nIiB0ZXh0TGVuZ3RoPSIxNzQiIHg9IjUzMyIgeT0iMTM1MS40MTgiPlVwZGF0ZSBjbGFpbSBzdGF0dXMgdG8gRGVuaWVkPC90ZXh0PjxyZWN0IGZpbGw9IiNGMUYxRjEiIGhlaWdodD0iMzIuODQzOCIgcng9IjEyLjUiIHJ5PSIxMi41IiBzdHlsZT0ic3Ryb2tlOiMxODE4MTg7c3Ryb2tlLXdpZHRoOjAuNTsiIHdpZHRoPSIxODgiIHg9IjUyNiIgeT0iMTM5NC42OTE0Ii8+PHRleHQgZmlsbD0iIzAwMDAwMCIgZm9udC1mYW1pbHk9InNhbnMtc2VyaWYiIGZvbnQtc2l6ZT0iMTIiIGxlbmd0aEFkanVzdD0ic3BhY2luZyIgdGV4dExlbmd0aD0iMTY4IiB4PSI1MzYiIHk9IjE0MTYuMDM1MiI+R2VuZXJhdGUgZGVuaWFsIG5vdGlmaWNhdGlvbjwvdGV4dD48cmVjdCBmaWxsPSIjRjFGMUYxIiBoZWlnaHQ9IjMyLjg0MzgiIHJ4PSIxMi41IiByeT0iMTIuNSIgc3R5bGU9InN0cm9rZTojMTgxODE4O3N0cm9rZS13aWR0aDowLjU7IiB3aWR0aD0iMTM0IiB4PSI1NTMiIHk9IjE0NTkuMzA4NiIvPjx0ZXh0IGZpbGw9IiMwMDAwMDAiIGZvbnQtZmFtaWx5PSJzYW5zLXNlcmlmIiBmb250LXNpemU9IjEyIiBsZW5ndGhBZGp1c3Q9InNwYWNpbmciIHRleHRMZW5ndGg9IjExNCIgeD0iNTYzIiB5PSIxNDgwLjY1MjMiPlN0b3JlIGRlbmlhbCByZWFzb248L3RleHQ+PHJlY3QgZmlsbD0iI0YxRjFGMSIgaGVpZ2h0PSIzMi44NDM4IiByeD0iMTIuNSIgcnk9IjEyLjUiIHN0eWxlPSJzdHJva2U6IzE4MTgxODtzdHJva2Utd2lkdGg6MC41OyIgd2lkdGg9IjIyNCIgeD0iMjUyIiB5PSIxNTM1LjAzOTEiLz48dGV4dCBmaWxsPSIjMDAwMDAwIiBmb250LWZhbWlseT0ic2Fucy1zZXJpZiIgZm9udC1zaXplPSIxMiIgbGVuZ3RoQWRqdXN0PSJzcGFjaW5nIiB0ZXh0TGVuZ3RoPSIyMDQiIHg9IjI2MiIgeT0iMTU1Ni4zODI4Ij5IYW5kbGVyIHByb3ZpZGVzIG9wdGlvbmFsIGZlZWRiYWNrPC90ZXh0PjxyZWN0IGZpbGw9IiNGMUYxRjEiIGhlaWdodD0iMzIuODQzOCIgcng9IjEyLjUiIHJ5PSIxMi41IiBzdHlsZT0ic3Ryb2tlOiMxODE4MTg7c3Ryb2tlLXdpZHRoOjAuNTsiIHdpZHRoPSIyMzAiIHg9IjI0OSIgeT0iMTU4Ny44ODI4Ii8+PHRleHQgZmlsbD0iIzAwMDAwMCIgZm9udC1mYW1pbHk9InNhbnMtc2VyaWYiIGZvbnQtc2l6ZT0iMTIiIGxlbmd0aEFkanVzdD0ic3BhY2luZyIgdGV4dExlbmd0aD0iMjEwIiB4PSIyNTkiIHk9IjE2MDkuMjI2NiI+U3RvcmUgZmVlZGJhY2sgZm9yIG1vZGVsIHJldHJhaW5pbmc8L3RleHQ+PHJlY3QgZmlsbD0iI0YxRjFGMSIgaGVpZ2h0PSIzMi44NDM4IiByeD0iMTIuNSIgcnk9IjEyLjUiIHN0eWxlPSJzdHJva2U6IzE4MTgxODtzdHJva2Utd2lkdGg6MC41OyIgd2lkdGg9IjE0MCIgeD0iMjk0IiB5PSIxNjQwLjcyNjYiLz48dGV4dCBmaWxsPSIjMDAwMDAwIiBmb250LWZhbWlseT0ic2Fucy1zZXJpZiIgZm9udC1zaXplPSIxMiIgbGVuZ3RoQWRqdXN0PSJzcGFjaW5nIiB0ZXh0TGVuZ3RoPSIxMjAiIHg9IjMwNCIgeT0iMTY2Mi4wNzAzIj5FbmQgY2xhaW0gcHJvY2Vzc2luZzwvdGV4dD48ZWxsaXBzZSBjeD0iMzY0IiBjeT0iMTcwNC41NzAzIiBmaWxsPSJub25lIiByeD0iMTEiIHJ5PSIxMSIgc3R5bGU9InN0cm9rZTojMjIyMjIyO3N0cm9rZS13aWR0aDoxOyIvPjxlbGxpcHNlIGN4PSIzNjQiIGN5PSIxNzA0LjU3MDMiIGZpbGw9IiMyMjIyMjIiIHJ4PSI2IiByeT0iNiIgc3R5bGU9InN0cm9rZTojMjIyMjIyO3N0cm9rZS13aWR0aDoxOyIvPjxyZWN0IGZpbGw9IiNGMUYxRjEiIGhlaWdodD0iMzIuODQzOCIgcng9IjEyLjUiIHJ5PSIxMi41IiBzdHlsZT0ic3Ryb2tlOiMxODE4MTg7c3Ryb2tlLXdpZHRoOjAuNTsiIHdpZHRoPSIxMTAiIHg9Ijc4NCIgeT0iMzgyLjIxODgiLz48dGV4dCBmaWxsPSIjMDAwMDAwIiBmb250LWZhbWlseT0ic2Fucy1zZXJpZiIgZm9udC1zaXplPSIxMiIgbGVuZ3RoQWRqdXN0PSJzcGFjaW5nIiB0ZXh0TGVuZ3RoPSI5MCIgeD0iNzk0IiB5PSI0MDMuNTYyNSI+TG9nIE9DUiBmYWlsdXJlPC90ZXh0PjxyZWN0IGZpbGw9IiNGMUYxRjEiIGhlaWdodD0iMzIuODQzOCIgcng9IjEyLjUiIHJ5PSIxMi41IiBzdHlsZT0ic3Ryb2tlOiMxODE4MTg7c3Ryb2tlLXdpZHRoOjAuNTsiIHdpZHRoPSIyMjQiIHg9IjcyNyIgeT0iNDM1LjA2MjUiLz48dGV4dCBmaWxsPSIjMDAwMDAwIiBmb250LWZhbWlseT0ic2Fucy1zZXJpZiIgZm9udC1zaXplPSIxMiIgbGVuZ3RoQWRqdXN0PSJzcGFjaW5nIiB0ZXh0TGVuZ3RoPSIyMDQiIHg9IjczNyIgeT0iNDU2LjQwNjMiPk5vdGlmeSBoYW5kbGVyIG9mIGV4dHJhY3Rpb24gaXNzdWU8L3RleHQ+PHJlY3QgZmlsbD0iI0YxRjFGMSIgaGVpZ2h0PSIzMi44NDM4IiByeD0iMTIuNSIgcnk9IjEyLjUiIHN0eWxlPSJzdHJva2U6IzE4MTgxODtzdHJva2Utd2lkdGg6MC41OyIgd2lkdGg9IjE3MCIgeD0iNzU0IiB5PSI0ODcuOTA2MyIvPjx0ZXh0IGZpbGw9IiMwMDAwMDAiIGZvbnQtZmFtaWx5PSJzYW5zLXNlcmlmIiBmb250LXNpemU9IjEyIiBsZW5ndGhBZGp1c3Q9InNwYWNpbmciIHRleHRMZW5ndGg9IjE1MCIgeD0iNzY0IiB5PSI1MDkuMjUiPlJlcXVlc3QgbWFudWFsIGRhdGEgZW50cnk8L3RleHQ+PGVsbGlwc2UgY3g9IjgzOSIgY3k9IjU1MS43NSIgZmlsbD0ibm9uZSIgcng9IjExIiByeT0iMTEiIHN0eWxlPSJzdHJva2U6IzIyMjIyMjtzdHJva2Utd2lkdGg6MTsiLz48ZWxsaXBzZSBjeD0iODM5IiBjeT0iNTUxLjc1IiBmaWxsPSIjMjIyMjIyIiByeD0iNiIgcnk9IjYiIHN0eWxlPSJzdHJva2U6IzIyMjIyMjtzdHJva2Utd2lkdGg6MTsiLz48cmVjdCBmaWxsPSIjRjFGMUYxIiBoZWlnaHQ9IjMyLjg0MzgiIHJ4PSIxMi41IiByeT0iMTIuNSIgc3R5bGU9InN0cm9rZTojMTgxODE4O3N0cm9rZS13aWR0aDowLjU7IiB3aWR0aD0iMTQwIiB4PSI5NzYiIHk9IjE4OS42ODc1Ii8+PHRleHQgZmlsbD0iIzAwMDAwMCIgZm9udC1mYW1pbHk9InNhbnMtc2VyaWYiIGZvbnQtc2l6ZT0iMTIiIGxlbmd0aEFkanVzdD0ic3BhY2luZyIgdGV4dExlbmd0aD0iMTIwIiB4PSI5ODYiIHk9IjIxMS4wMzEzIj5SZXR1cm4gZXJyb3IgdG8gdXNlcjwvdGV4dD48cmVjdCBmaWxsPSIjRjFGMUYxIiBoZWlnaHQ9IjMyLjg0MzgiIHJ4PSIxMi41IiByeT0iMTIuNSIgc3R5bGU9InN0cm9rZTojMTgxODE4O3N0cm9rZS13aWR0aDowLjU7IiB3aWR0aD0iMTcwIiB4PSI5NjEiIHk9IjI0Mi41MzEzIi8+PHRleHQgZmlsbD0iIzAwMDAwMCIgZm9udC1mYW1pbHk9InNhbnMtc2VyaWYiIGZvbnQtc2l6ZT0iMTIiIGxlbmd0aEFkanVzdD0ic3BhY2luZyIgdGV4dExlbmd0aD0iMTUwIiB4PSI5NzEiIHk9IjI2My44NzUiPlJlcXVlc3QgdmFsaWQgZmlsZSBmb3JtYXQ8L3RleHQ+PGVsbGlwc2UgY3g9IjEwNDYiIGN5PSIzMDYuMzc1IiBmaWxsPSJub25lIiByeD0iMTEiIHJ5PSIxMSIgc3R5bGU9InN0cm9rZTojMjIyMjIyO3N0cm9rZS13aWR0aDoxOyIvPjxlbGxpcHNlIGN4PSIxMDQ2IiBjeT0iMzA2LjM3NSIgZmlsbD0iIzIyMjIyMiIgcng9IjYiIHJ5PSI2IiBzdHlsZT0ic3Ryb2tlOiMyMjIyMjI7c3Ryb2tlLXdpZHRoOjE7Ii8+PGxpbmUgc3R5bGU9InN0cm9rZTojMTgxODE4O3N0cm9rZS13aWR0aDoxOyIgeDE9IjgzMS4yNSIgeDI9IjgzMS4yNSIgeTE9IjMwIiB5Mj0iNTAiLz48cG9seWdvbiBmaWxsPSIjMTgxODE4IiBwb2ludHM9IjgyNy4yNSw0MCw4MzEuMjUsNTAsODM1LjI1LDQwLDgzMS4yNSw0NCIgc3R5bGU9InN0cm9rZTojMTgxODE4O3N0cm9rZS13aWR0aDoxOyIvPjxsaW5lIHN0eWxlPSJzdHJva2U6IzE4MTgxODtzdHJva2Utd2lkdGg6MTsiIHgxPSI4MzEuMjUiIHgyPSI4MzEuMjUiIHkxPSI4Mi44NDM4IiB5Mj0iMTAyLjg0MzgiLz48cG9seWdvbiBmaWxsPSIjMTgxODE4IiBwb2ludHM9IjgyNy4yNSw5Mi44NDM4LDgzMS4yNSwxMDIuODQzOCw4MzUuMjUsOTIuODQzOCw4MzEuMjUsOTYuODQzOCIgc3R5bGU9InN0cm9rZTojMTgxODE4O3N0cm9rZS13aWR0aDoxOyIvPjxsaW5lIHN0eWxlPSJzdHJva2U6IzE4MTgxODtzdHJva2Utd2lkdGg6MTsiIHgxPSI2MDYuNSIgeDI9IjYwNi41IiB5MT0iMjIyLjUzMTMiIHkyPSIyNDIuNTMxMyIvPjxwb2x5Z29uIGZpbGw9IiMxODE4MTgiIHBvaW50cz0iNjAyLjUsMjMyLjUzMTMsNjA2LjUsMjQyLjUzMTMsNjEwLjUsMjMyLjUzMTMsNjA2LjUsMjM2LjUzMTMiIHN0eWxlPSJzdHJva2U6IzE4MTgxODtzdHJva2Utd2lkdGg6MTsiLz48bGluZSBzdHlsZT0ic3Ryb2tlOiMxODE4MTg7c3Ryb2tlLXdpZHRoOjE7IiB4MT0iNjA2LjUiIHgyPSI2MDYuNSIgeTE9IjI3NS4zNzUiIHkyPSIyOTUuMzc1Ii8+PHBvbHlnb24gZmlsbD0iIzE4MTgxOCIgcG9pbnRzPSI2MDIuNSwyODUuMzc1LDYwNi41LDI5NS4zNzUsNjEwLjUsMjg1LjM3NSw2MDYuNSwyODkuMzc1IiBzdHlsZT0ic3Ryb2tlOiMxODE4MTg7c3Ryb2tlLXdpZHRoOjE7Ii8+PGxpbmUgc3R5bGU9InN0cm9rZTojMTgxODE4O3N0cm9rZS13aWR0aDoxOyIgeDE9IjM2NCIgeDI9IjM2NCIgeTE9IjQxNS4wNjI1IiB5Mj0iNDM1LjA2MjUiLz48cG9seWdvbiBmaWxsPSIjMTgxODE4IiBwb2ludHM9IjM2MCw0MjUuMDYyNSwzNjQsNDM1LjA2MjUsMzY4LDQyNS4wNjI1LDM2NCw0MjkuMDYyNSIgc3R5bGU9InN0cm9rZTojMTgxODE4O3N0cm9rZS13aWR0aDoxOyIvPjxsaW5lIHN0eWxlPSJzdHJva2U6IzE4MTgxODtzdHJva2Utd2lkdGg6MTsiIHgxPSIzNjQiIHgyPSIzNjQiIHkxPSI0NjcuOTA2MyIgeTI9IjQ4Ny45MDYzIi8+PHBvbHlnb24gZmlsbD0iIzE4MTgxOCIgcG9pbnRzPSIzNjAsNDc3LjkwNjMsMzY0LDQ4Ny45MDYzLDM2OCw0NzcuOTA2MywzNjQsNDgxLjkwNjMiIHN0eWxlPSJzdHJva2U6IzE4MTgxODtzdHJva2Utd2lkdGg6MTsiLz48bGluZSBzdHlsZT0ic3Ryb2tlOiMxODE4MTg7c3Ryb2tlLXdpZHRoOjE7IiB4MT0iMjQ3IiB4Mj0iMjQ3IiB5MT0iNTk5LjU5MzgiIHkyPSI2MTkuNTkzOCIvPjxwb2x5Z29uIGZpbGw9IiMxODE4MTgiIHBvaW50cz0iMjQzLDYwOS41OTM4LDI0Nyw2MTkuNTkzOCwyNTEsNjA5LjU5MzgsMjQ3LDYxMy41OTM4IiBzdHlsZT0ic3Ryb2tlOiMxODE4MTg7c3Ryb2tlLXdpZHRoOjE7Ii8+PGxpbmUgc3R5bGU9InN0cm9rZTojMTgxODE4O3N0cm9rZS13aWR0aDoxOyIgeDE9IjQ3OCIgeDI9IjQ3OCIgeTE9IjU5OS41OTM4IiB5Mj0iNjE5LjU5MzgiLz48cG9seWdvbiBmaWxsPSIjMTgxODE4IiBwb2ludHM9IjQ3NCw2MDkuNTkzOCw0NzgsNjE5LjU5MzgsNDgyLDYwOS41OTM4LDQ3OCw2MTMuNTkzOCIgc3R5bGU9InN0cm9rZTojMTgxODE4O3N0cm9rZS13aWR0aDoxOyIvPjxsaW5lIHN0eWxlPSJzdHJva2U6IzE4MTgxODtzdHJva2Utd2lkdGg6MTsiIHgxPSIyNDciIHgyPSIyNDciIHkxPSI1NDYuNzUiIHkyPSI1NjYuNzUiLz48cG9seWdvbiBmaWxsPSIjMTgxODE4IiBwb2ludHM9IjI0Myw1NTYuNzUsMjQ3LDU2Ni43NSwyNTEsNTU2Ljc1LDI0Nyw1NjAuNzUiIHN0eWxlPSJzdHJva2U6IzE4MTgxODtzdHJva2Utd2lkdGg6MTsiLz48bGluZSBzdHlsZT0ic3Ryb2tlOiMxODE4MTg7c3Ryb2tlLXdpZHRoOjE7IiB4MT0iNDc4IiB4Mj0iNDc4IiB5MT0iNTQ2Ljc1IiB5Mj0iNTY2Ljc1Ii8+PHBvbHlnb24gZmlsbD0iIzE4MTgxOCIgcG9pbnRzPSI0NzQsNTU2Ljc1LDQ3OCw1NjYuNzUsNDgyLDU1Ni43NSw0NzgsNTYwLjc1IiBzdHlsZT0ic3Ryb2tlOiMxODE4MTg7c3Ryb2tlLXdpZHRoOjE7Ii8+PGxpbmUgc3R5bGU9InN0cm9rZTojMTgxODE4O3N0cm9rZS13aWR0aDoxOyIgeDE9IjI0NyIgeDI9IjI0NyIgeTE9IjY1Mi40Mzc1IiB5Mj0iNjcyLjQzNzUiLz48cG9seWdvbiBmaWxsPSIjMTgxODE4IiBwb2ludHM9IjI0Myw2NjIuNDM3NSwyNDcsNjcyLjQzNzUsMjUxLDY2Mi40Mzc1LDI0Nyw2NjYuNDM3NSIgc3R5bGU9InN0cm9rZTojMTgxODE4O3N0cm9rZS13aWR0aDoxOyIvPjxsaW5lIHN0eWxlPSJzdHJva2U6IzE4MTgxODtzdHJva2Utd2lkdGg6MTsiIHgxPSI0NzgiIHgyPSI0NzgiIHkxPSI2NTIuNDM3NSIgeTI9IjY3Mi40Mzc1Ii8+PHBvbHlnb24gZmlsbD0iIzE4MTgxOCIgcG9pbnRzPSI0NzQsNjYyLjQzNzUsNDc4LDY3Mi40Mzc1LDQ4Miw2NjIuNDM3NSw0NzgsNjY2LjQzNzUiIHN0eWxlPSJzdHJva2U6IzE4MTgxODtzdHJva2Utd2lkdGg6MTsiLz48bGluZSBzdHlsZT0ic3Ryb2tlOiMxODE4MTg7c3Ryb2tlLXdpZHRoOjE7IiB4MT0iMzY0IiB4Mj0iMzY0IiB5MT0iNTIwLjc1IiB5Mj0iNTQwLjc1Ii8+PHBvbHlnb24gZmlsbD0iIzE4MTgxOCIgcG9pbnRzPSIzNjAsNTMwLjc1LDM2NCw1NDAuNzUsMzY4LDUzMC43NSwzNjQsNTM0Ljc1IiBzdHlsZT0ic3Ryb2tlOiMxODE4MTg7c3Ryb2tlLXdpZHRoOjE7Ii8+PGxpbmUgc3R5bGU9InN0cm9rZTojMTgxODE4O3N0cm9rZS13aWR0aDoxOyIgeDE9IjM2NCIgeDI9IjM2NCIgeTE9IjY3OC40Mzc1IiB5Mj0iNjk4LjQzNzUiLz48cG9seWdvbiBmaWxsPSIjMTgxODE4IiBwb2ludHM9IjM2MCw2ODguNDM3NSwzNjQsNjk4LjQzNzUsMzY4LDY4OC40Mzc1LDM2NCw2OTIuNDM3NSIgc3R5bGU9InN0cm9rZTojMTgxODE4O3N0cm9rZS13aWR0aDoxOyIvPjxsaW5lIHN0eWxlPSJzdHJva2U6IzE4MTgxODtzdHJva2Utd2lkdGg6MTsiIHgxPSIzNjQiIHgyPSIzNjQiIHkxPSI3MzEuMjgxMyIgeTI9Ijc1MS4yODEzIi8+PHBvbHlnb24gZmlsbD0iIzE4MTgxOCIgcG9pbnRzPSIzNjAsNzQxLjI4MTMsMzY0LDc1MS4yODEzLDM2OCw3NDEuMjgxMywzNjQsNzQ1LjI4MTMiIHN0eWxlPSJzdHJva2U6IzE4MTgxODtzdHJva2Utd2lkdGg6MTsiLz48bGluZSBzdHlsZT0ic3Ryb2tlOiMxODE4MTg7c3Ryb2tlLXdpZHRoOjE7IiB4MT0iMzY0IiB4Mj0iMzY0IiB5MT0iNzg0LjEyNSIgeTI9IjgwNC4xMjUiLz48cG9seWdvbiBmaWxsPSIjMTgxODE4IiBwb2ludHM9IjM2MCw3OTQuMTI1LDM2NCw4MDQuMTI1LDM2OCw3OTQuMTI1LDM2NCw3OTguMTI1IiBzdHlsZT0ic3Ryb2tlOiMxODE4MTg7c3Ryb2tlLXdpZHRoOjE7Ii8+PGxpbmUgc3R5bGU9InN0cm9rZTojMTgxODE4O3N0cm9rZS13aWR0aDoxOyIgeDE9IjI0MC41IiB4Mj0iMjQwLjUiIHkxPSIxMDI0LjY1NjMiIHkyPSIxMDQ0LjY1NjMiLz48cG9seWdvbiBmaWxsPSIjMTgxODE4IiBwb2ludHM9IjIzNi41LDEwMzQuNjU2MywyNDAuNSwxMDQ0LjY1NjMsMjQ0LjUsMTAzNC42NTYzLDI0MC41LDEwMzguNjU2MyIgc3R5bGU9InN0cm9rZTojMTgxODE4O3N0cm9rZS13aWR0aDoxOyIvPjxsaW5lIHN0eWxlPSJzdHJva2U6IzE4MTgxODtzdHJva2Utd2lkdGg6MTsiIHgxPSIyOTciIHgyPSIyNDAuNSIgeTE9Ijk2OS44MTI1IiB5Mj0iOTY5LjgxMjUiLz48bGluZSBzdHlsZT0ic3Ryb2tlOiMxODE4MTg7c3Ryb2tlLXdpZHRoOjE7IiB4MT0iMjQwLjUiIHgyPSIyNDAuNSIgeTE9Ijk2OS44MTI1IiB5Mj0iOTkxLjgxMjUiLz48cG9seWdvbiBmaWxsPSIjMTgxODE4IiBwb2ludHM9IjIzNi41LDk4MS44MTI1LDI0MC41LDk5MS44MTI1LDI0NC41LDk4MS44MTI1LDI0MC41LDk4NS44MTI1IiBzdHlsZT0ic3Ryb2tlOiMxODE4MTg7c3Ryb2tlLXdpZHRoOjE7Ii8+PGxpbmUgc3R5bGU9InN0cm9rZTojMTgxODE4O3N0cm9rZS13aWR0aDoxOyIgeDE9IjQzMSIgeDI9IjQ4Ny41IiB5MT0iOTY5LjgxMjUiIHkyPSI5NjkuODEyNSIvPjxsaW5lIHN0eWxlPSJzdHJva2U6IzE4MTgxODtzdHJva2Utd2lkdGg6MTsiIHgxPSI0ODcuNSIgeDI9IjQ4Ny41IiB5MT0iOTY5LjgxMjUiIHkyPSI5OTEuODEyNSIvPjxwb2x5Z29uIGZpbGw9IiMxODE4MTgiIHBvaW50cz0iNDgzLjUsOTgxLjgxMjUsNDg3LjUsOTkxLjgxMjUsNDkxLjUsOTgxLjgxMjUsNDg3LjUsOTg1LjgxMjUiIHN0eWxlPSJzdHJva2U6IzE4MTgxODtzdHJva2Utd2lkdGg6MTsiLz48bGluZSBzdHlsZT0ic3Ryb2tlOiMxODE4MTg7c3Ryb2tlLXdpZHRoOjE7IiB4MT0iMjQwLjUiIHgyPSIyNDAuNSIgeTE9IjEwNzcuNSIgeTI9IjEwOTUuNSIvPjxsaW5lIHN0eWxlPSJzdHJva2U6IzE4MTgxODtzdHJva2Utd2lkdGg6MTsiIHgxPSIyNDAuNSIgeDI9IjM1MiIgeTE9IjEwOTUuNSIgeTI9IjEwOTUuNSIvPjxwb2x5Z29uIGZpbGw9IiMxODE4MTgiIHBvaW50cz0iMzQyLDEwOTEuNSwzNTIsMTA5NS41LDM0MiwxMDk5LjUsMzQ2LDEwOTUuNSIgc3R5bGU9InN0cm9rZTojMTgxODE4O3N0cm9rZS13aWR0aDoxOyIvPjxsaW5lIHN0eWxlPSJzdHJva2U6IzE4MTgxODtzdHJva2Utd2lkdGg6MTsiIHgxPSI0ODcuNSIgeDI9IjQ4Ny41IiB5MT0iMTAyNC42NTYzIiB5Mj0iMTA5NS41Ii8+PGxpbmUgc3R5bGU9InN0cm9rZTojMTgxODE4O3N0cm9rZS13aWR0aDoxOyIgeDE9IjQ4Ny41IiB4Mj0iMzc2IiB5MT0iMTA5NS41IiB5Mj0iMTA5NS41Ii8+PHBvbHlnb24gZmlsbD0iIzE4MTgxOCIgcG9pbnRzPSIzODYsMTA5MS41LDM3NiwxMDk1LjUsMzg2LDEwOTkuNSwzODIsMTA5NS41IiBzdHlsZT0ic3Ryb2tlOiMxODE4MTg7c3Ryb2tlLXdpZHRoOjE7Ii8+PGxpbmUgc3R5bGU9InN0cm9rZTojMTgxODE4O3N0cm9rZS13aWR0aDoxOyIgeDE9IjM2NCIgeDI9IjM2NCIgeTE9IjkzNy44MTI1IiB5Mj0iOTU3LjgxMjUiLz48cG9seWdvbiBmaWxsPSIjMTgxODE4IiBwb2ludHM9IjM2MCw5NDcuODEyNSwzNjQsOTU3LjgxMjUsMzY4LDk0Ny44MTI1LDM2NCw5NTEuODEyNSIgc3R5bGU9InN0cm9rZTojMTgxODE4O3N0cm9rZS13aWR0aDoxOyIvPjxsaW5lIHN0eWxlPSJzdHJva2U6IzE4MTgxODtzdHJva2Utd2lkdGg6MTsiIHgxPSIzNjQiIHgyPSIzNjQiIHkxPSI4ODAuOTY4OCIgeTI9IjkwNC45Njg4Ii8+PHBvbHlnb24gZmlsbD0iIzE4MTgxOCIgcG9pbnRzPSIzNjAsODk0Ljk2ODgsMzY0LDkwNC45Njg4LDM2OCw4OTQuOTY4OCwzNjQsODk4Ljk2ODgiIHN0eWxlPSJzdHJva2U6IzE4MTgxODtzdHJva2Utd2lkdGg6MTsiLz48bGluZSBzdHlsZT0ic3Ryb2tlOiMxODE4MTg7c3Ryb2tlLXdpZHRoOjE7IiB4MT0iNDMxIiB4Mj0iNjE5LjUiIHkxPSI4NjguOTY4OCIgeTI9Ijg2OC45Njg4Ii8+PHBvbHlnb24gZmlsbD0iIzE4MTgxOCIgcG9pbnRzPSI2MTUuNSw5OTYuMjM0NCw2MTkuNSwxMDA2LjIzNDQsNjIzLjUsOTk2LjIzNDQsNjE5LjUsMTAwMC4yMzQ0IiBzdHlsZT0ic3Ryb2tlOiMxODE4MTg7c3Ryb2tlLXdpZHRoOjE7Ii8+PGxpbmUgc3R5bGU9InN0cm9rZTojMTgxODE4O3N0cm9rZS13aWR0aDoxOyIgeDE9IjYxOS41IiB4Mj0iNjE5LjUiIHkxPSI4NjguOTY4OCIgeTI9IjExMzkuNSIvPjxsaW5lIHN0eWxlPSJzdHJva2U6IzE4MTgxODtzdHJva2Utd2lkdGg6MTsiIHgxPSI2MTkuNSIgeDI9IjM3NiIgeTE9IjExMzkuNSIgeTI9IjExMzkuNSIvPjxwb2x5Z29uIGZpbGw9IiMxODE4MTgiIHBvaW50cz0iMzg2LDExMzUuNSwzNzYsMTEzOS41LDM4NiwxMTQzLjUsMzgyLDExMzkuNSIgc3R5bGU9InN0cm9rZTojMTgxODE4O3N0cm9rZS13aWR0aDoxOyIvPjxsaW5lIHN0eWxlPSJzdHJva2U6IzE4MTgxODtzdHJva2Utd2lkdGg6MTsiIHgxPSIzNjQiIHgyPSIzNjQiIHkxPSIxMTA3LjUiIHkyPSIxMTI3LjUiLz48cG9seWdvbiBmaWxsPSIjMTgxODE4IiBwb2ludHM9IjM2MCwxMTE3LjUsMzY0LDExMjcuNSwzNjgsMTExNy41LDM2NCwxMTIxLjUiIHN0eWxlPSJzdHJva2U6IzE4MTgxODtzdHJva2Utd2lkdGg6MTsiLz48bGluZSBzdHlsZT0ic3Ryb2tlOiMxODE4MTg7c3Ryb2tlLXdpZHRoOjE7IiB4MT0iMzY0IiB4Mj0iMzY0IiB5MT0iODM2Ljk2ODgiIHkyPSI4NTYuOTY4OCIvPjxwb2x5Z29uIGZpbGw9IiMxODE4MTgiIHBvaW50cz0iMzYwLDg0Ni45Njg4LDM2NCw4NTYuOTY4OCwzNjgsODQ2Ljk2ODgsMzY0LDg1MC45Njg4IiBzdHlsZT0ic3Ryb2tlOiMxODE4MTg7c3Ryb2tlLXdpZHRoOjE7Ii8+PGxpbmUgc3R5bGU9InN0cm9rZTojMTgxODE4O3N0cm9rZS13aWR0aDoxOyIgeDE9IjM2NCIgeDI9IjM2NCIgeTE9IjExNTEuNSIgeTI9IjExNzEuNSIvPjxwb2x5Z29uIGZpbGw9IiMxODE4MTgiIHBvaW50cz0iMzYwLDExNjEuNSwzNjQsMTE3MS41LDM2OCwxMTYxLjUsMzY0LDExNjUuNSIgc3R5bGU9InN0cm9rZTojMTgxODE4O3N0cm9rZS13aWR0aDoxOyIvPjxsaW5lIHN0eWxlPSJzdHJva2U6IzE4MTgxODtzdHJva2Utd2lkdGg6MTsiIHgxPSIzNjQiIHgyPSIzNjQiIHkxPSIxMjA0LjM0MzgiIHkyPSIxMjI0LjM0MzgiLz48cG9seWdvbiBmaWxsPSIjMTgxODE4IiBwb2ludHM9IjM2MCwxMjE0LjM0MzgsMzY0LDEyMjQuMzQzOCwzNjgsMTIxNC4zNDM4LDM2NCwxMjE4LjM0MzgiIHN0eWxlPSJzdHJva2U6IzE4MTgxODtzdHJva2Utd2lkdGg6MTsiLz48bGluZSBzdHlsZT0ic3Ryb2tlOiMxODE4MTg7c3Ryb2tlLXdpZHRoOjE7IiB4MT0iMTI5IiB4Mj0iMTI5IiB5MT0iMTM2NS44MDQ3IiB5Mj0iMTM5Ny41NzgxIi8+PHBvbHlnb24gZmlsbD0iIzE4MTgxOCIgcG9pbnRzPSIxMjUsMTM4Ny41NzgxLDEyOSwxMzk3LjU3ODEsMTMzLDEzODcuNTc4MSwxMjksMTM5MS41NzgxIiBzdHlsZT0ic3Ryb2tlOiMxODE4MTg7c3Ryb2tlLXdpZHRoOjE7Ii8+PGxpbmUgc3R5bGU9InN0cm9rZTojMTgxODE4O3N0cm9rZS13aWR0aDoxOyIgeDE9IjEyOSIgeDI9IjEyOSIgeTE9IjE0MzAuNDIxOSIgeTI9IjE0NjIuMTk1MyIvPjxwb2x5Z29uIGZpbGw9IiMxODE4MTgiIHBvaW50cz0iMTI1LDE0NTIuMTk1MywxMjksMTQ2Mi4xOTUzLDEzMywxNDUyLjE5NTMsMTI5LDE0NTYuMTk1MyIgc3R5bGU9InN0cm9rZTojMTgxODE4O3N0cm9rZS13aWR0aDoxOyIvPjxsaW5lIHN0eWxlPSJzdHJva2U6IzE4MTgxODtzdHJva2Utd2lkdGg6MTsiIHgxPSIzODUiIHgyPSIzODUiIHkxPSIxMzU0LjAzMTMiIHkyPSIxMzg1LjgwNDciLz48cG9seWdvbiBmaWxsPSIjMTgxODE4IiBwb2ludHM9IjM4MSwxMzc1LjgwNDcsMzg1LDEzODUuODA0NywzODksMTM3NS44MDQ3LDM4NSwxMzc5LjgwNDciIHN0eWxlPSJzdHJva2U6IzE4MTgxODtzdHJva2Utd2lkdGg6MTsiLz48bGluZSBzdHlsZT0ic3Ryb2tlOiMxODE4MTg7c3Ryb2tlLXdpZHRoOjE7IiB4MT0iMzg1IiB4Mj0iMzg1IiB5MT0iMTQxOC42NDg0IiB5Mj0iMTQ1MC40MjE5Ii8+PHBvbHlnb24gZmlsbD0iIzE4MTgxOCIgcG9pbnRzPSIzODEsMTQ0MC40MjE5LDM4NSwxNDUwLjQyMTksMzg5LDE0NDAuNDIxOSwzODUsMTQ0NC40MjE5IiBzdHlsZT0ic3Ryb2tlOiMxODE4MTg7c3Ryb2tlLXdpZHRoOjE7Ii8+PGxpbmUgc3R5bGU9InN0cm9rZTojMTgxODE4O3N0cm9rZS13aWR0aDoxOyIgeDE9IjYyMCIgeDI9IjYyMCIgeTE9IjEzNjIuOTE4IiB5Mj0iMTM5NC42OTE0Ii8+PHBvbHlnb24gZmlsbD0iIzE4MTgxOCIgcG9pbnRzPSI2MTYsMTM4NC42OTE0LDYyMCwxMzk0LjY5MTQsNjI0LDEzODQuNjkxNCw2MjAsMTM4OC42OTE0IiBzdHlsZT0ic3Ryb2tlOiMxODE4MTg7c3Ryb2tlLXdpZHRoOjE7Ii8+PGxpbmUgc3R5bGU9InN0cm9rZTojMTgxODE4O3N0cm9rZS13aWR0aDoxOyIgeDE9IjYyMCIgeDI9IjYyMCIgeTE9IjE0MjcuNTM1MiIgeTI9IjE0NTkuMzA4NiIvPjxwb2x5Z29uIGZpbGw9IiMxODE4MTgiIHBvaW50cz0iNjE2LDE0NDkuMzA4Niw2MjAsMTQ1OS4zMDg2LDYyNCwxNDQ5LjMwODYsNjIwLDE0NTMuMzA4NiIgc3R5bGU9InN0cm9rZTojMTgxODE4O3N0cm9rZS13aWR0aDoxOyIvPjxsaW5lIHN0eWxlPSJzdHJva2U6IzE4MTgxODtzdHJva2Utd2lkdGg6MTsiIHgxPSIxMjkiIHgyPSIxMjkiIHkxPSIxMzAxLjE4NzUiIHkyPSIxMzMyLjk2MDkiLz48cG9seWdvbiBmaWxsPSIjMTgxODE4IiBwb2ludHM9IjEyNSwxMzIyLjk2MDksMTI5LDEzMzIuOTYwOSwxMzMsMTMyMi45NjA5LDEyOSwxMzI2Ljk2MDkiIHN0eWxlPSJzdHJva2U6IzE4MTgxODtzdHJva2Utd2lkdGg6MTsiLz48bGluZSBzdHlsZT0ic3Ryb2tlOiMxODE4MTg7c3Ryb2tlLXdpZHRoOjE7IiB4MT0iMTI5IiB4Mj0iMTI5IiB5MT0iMTQ5NS4wMzkxIiB5Mj0iMTUxNS4wMzkxIi8+PHBvbHlnb24gZmlsbD0iIzE4MTgxOCIgcG9pbnRzPSIxMjUsMTUwNS4wMzkxLDEyOSwxNTE1LjAzOTEsMTMzLDE1MDUuMDM5MSwxMjksMTUwOS4wMzkxIiBzdHlsZT0ic3Ryb2tlOiMxODE4MTg7c3Ryb2tlLXdpZHRoOjE7Ii8+PGxpbmUgc3R5bGU9InN0cm9rZTojMTgxODE4O3N0cm9rZS13aWR0aDoxOyIgeDE9IjM4NSIgeDI9IjM4NSIgeTE9IjEzMDEuMTg3NSIgeTI9IjEzMjEuMTg3NSIvPjxwb2x5Z29uIGZpbGw9IiMxODE4MTgiIHBvaW50cz0iMzgxLDEzMTEuMTg3NSwzODUsMTMyMS4xODc1LDM4OSwxMzExLjE4NzUsMzg1LDEzMTUuMTg3NSIgc3R5bGU9InN0cm9rZTojMTgxODE4O3N0cm9rZS13aWR0aDoxOyIvPjxsaW5lIHN0eWxlPSJzdHJva2U6IzE4MTgxODtzdHJva2Utd2lkdGg6MTsiIHgxPSIzODUiIHgyPSIzODUiIHkxPSIxNDgzLjI2NTYiIHkyPSIxNTE1LjAzOTEiLz48cG9seWdvbiBmaWxsPSIjMTgxODE4IiBwb2ludHM9IjM4MSwxNTA1LjAzOTEsMzg1LDE1MTUuMDM5MSwzODksMTUwNS4wMzkxLDM4NSwxNTA5LjAzOTEiIHN0eWxlPSJzdHJva2U6IzE4MTgxODtzdHJva2Utd2lkdGg6MTsiLz48bGluZSBzdHlsZT0ic3Ryb2tlOiMxODE4MTg7c3Ryb2tlLXdpZHRoOjE7IiB4MT0iMTY1Ljc1IiB4Mj0iMzQwIiB5MT0iMTI4OS4xODc1IiB5Mj0iMTI4OS4xODc1Ii8+PHBvbHlnb24gZmlsbD0iIzE4MTgxOCIgcG9pbnRzPSIzMzAsMTI4NS4xODc1LDM0MCwxMjg5LjE4NzUsMzMwLDEyOTMuMTg3NSwzMzQsMTI4OS4xODc1IiBzdHlsZT0ic3Ryb2tlOiMxODE4MTg7c3Ryb2tlLXdpZHRoOjE7Ii8+PGxpbmUgc3R5bGU9InN0cm9rZTojMTgxODE4O3N0cm9rZS13aWR0aDoxOyIgeDE9IjM2NCIgeDI9IjM2NCIgeTE9IjEyNTcuMTg3NSIgeTI9IjEyNjIuMTg3NSIvPjxsaW5lIHN0eWxlPSJzdHJva2U6IzE4MTgxODtzdHJva2Utd2lkdGg6MTsiIHgxPSIzNjQiIHgyPSIxMjkiIHkxPSIxMjYyLjE4NzUiIHkyPSIxMjYyLjE4NzUiLz48bGluZSBzdHlsZT0ic3Ryb2tlOiMxODE4MTg7c3Ryb2tlLXdpZHRoOjE7IiB4MT0iMTI5IiB4Mj0iMTI5IiB5MT0iMTI2Mi4xODc1IiB5Mj0iMTI3Ny4xODc1Ii8+PHBvbHlnb24gZmlsbD0iIzE4MTgxOCIgcG9pbnRzPSIxMjUsMTI2Ny4xODc1LDEyOSwxMjc3LjE4NzUsMTMzLDEyNjcuMTg3NSwxMjksMTI3MS4xODc1IiBzdHlsZT0ic3Ryb2tlOiMxODE4MTg7c3Ryb2tlLXdpZHRoOjE7Ii8+PGxpbmUgc3R5bGU9InN0cm9rZTojMTgxODE4O3N0cm9rZS13aWR0aDoxOyIgeDE9IjQzMCIgeDI9IjYyMCIgeTE9IjEyODkuMTg3NSIgeTI9IjEyODkuMTg3NSIvPjxsaW5lIHN0eWxlPSJzdHJva2U6IzE4MTgxODtzdHJva2Utd2lkdGg6MTsiIHgxPSI2MjAiIHgyPSI2MjAiIHkxPSIxMjg5LjE4NzUiIHkyPSIxMzMwLjA3NDIiLz48cG9seWdvbiBmaWxsPSIjMTgxODE4IiBwb2ludHM9IjYxNiwxMzIwLjA3NDIsNjIwLDEzMzAuMDc0Miw2MjQsMTMyMC4wNzQyLDYyMCwxMzI0LjA3NDIiIHN0eWxlPSJzdHJva2U6IzE4MTgxODtzdHJva2Utd2lkdGg6MTsiLz48bGluZSBzdHlsZT0ic3Ryb2tlOiMxODE4MTg7c3Ryb2tlLXdpZHRoOjE7IiB4MT0iNjIwIiB4Mj0iNjIwIiB5MT0iMTQ5Mi4xNTIzIiB5Mj0iMTUxNS4wMzkxIi8+PHBvbHlnb24gZmlsbD0iIzE4MTgxOCIgcG9pbnRzPSI2MTYsMTUwNS4wMzkxLDYyMCwxNTE1LjAzOTEsNjI0LDE1MDUuMDM5MSw2MjAsMTUwOS4wMzkxIiBzdHlsZT0ic3Ryb2tlOiMxODE4MTg7c3Ryb2tlLXdpZHRoOjE7Ii8+PGxpbmUgc3R5bGU9InN0cm9rZTojMTgxODE4O3N0cm9rZS13aWR0aDoxOyIgeDE9IjEyOSIgeDI9IjYyMCIgeTE9IjE1MTUuMDM5MSIgeTI9IjE1MTUuMDM5MSIvPjxsaW5lIHN0eWxlPSJzdHJva2U6IzE4MTgxODtzdHJva2Utd2lkdGg6MTsiIHgxPSIzNjQiIHgyPSIzNjQiIHkxPSIxNTE1LjAzOTEiIHkyPSIxNTM1LjAzOTEiLz48cG9seWdvbiBmaWxsPSIjMTgxODE4IiBwb2ludHM9IjM2MCwxNTI1LjAzOTEsMzY0LDE1MzUuMDM5MSwzNjgsMTUyNS4wMzkxLDM2NCwxNTI5LjAzOTEiIHN0eWxlPSJzdHJva2U6IzE4MTgxODtzdHJva2Utd2lkdGg6MTsiLz48bGluZSBzdHlsZT0ic3Ryb2tlOiMxODE4MTg7c3Ryb2tlLXdpZHRoOjE7IiB4MT0iMzY0IiB4Mj0iMzY0IiB5MT0iMTU2Ny44ODI4IiB5Mj0iMTU4Ny44ODI4Ii8+PHBvbHlnb24gZmlsbD0iIzE4MTgxOCIgcG9pbnRzPSIzNjAsMTU3Ny44ODI4LDM2NCwxNTg3Ljg4MjgsMzY4LDE1NzcuODgyOCwzNjQsMTU4MS44ODI4IiBzdHlsZT0ic3Ryb2tlOiMxODE4MTg7c3Ryb2tlLXdpZHRoOjE7Ii8+PGxpbmUgc3R5bGU9InN0cm9rZTojMTgxODE4O3N0cm9rZS13aWR0aDoxOyIgeDE9IjM2NCIgeDI9IjM2NCIgeTE9IjE2MjAuNzI2NiIgeTI9IjE2NDAuNzI2NiIvPjxwb2x5Z29uIGZpbGw9IiMxODE4MTgiIHBvaW50cz0iMzYwLDE2MzAuNzI2NiwzNjQsMTY0MC43MjY2LDM2OCwxNjMwLjcyNjYsMzY0LDE2MzQuNzI2NiIgc3R5bGU9InN0cm9rZTojMTgxODE4O3N0cm9rZS13aWR0aDoxOyIvPjxsaW5lIHN0eWxlPSJzdHJva2U6IzE4MTgxODtzdHJva2Utd2lkdGg6MTsiIHgxPSIzNjQiIHgyPSIzNjQiIHkxPSIxNjczLjU3MDMiIHkyPSIxNjkzLjU3MDMiLz48cG9seWdvbiBmaWxsPSIjMTgxODE4IiBwb2ludHM9IjM2MCwxNjgzLjU3MDMsMzY0LDE2OTMuNTcwMywzNjgsMTY4My41NzAzLDM2NCwxNjg3LjU3MDMiIHN0eWxlPSJzdHJva2U6IzE4MTgxODtzdHJva2Utd2lkdGg6MTsiLz48bGluZSBzdHlsZT0ic3Ryb2tlOiMxODE4MTg7c3Ryb2tlLXdpZHRoOjE7IiB4MT0iODM5IiB4Mj0iODM5IiB5MT0iNDE1LjA2MjUiIHkyPSI0MzUuMDYyNSIvPjxwb2x5Z29uIGZpbGw9IiMxODE4MTgiIHBvaW50cz0iODM1LDQyNS4wNjI1LDgzOSw0MzUuMDYyNSw4NDMsNDI1LjA2MjUsODM5LDQyOS4wNjI1IiBzdHlsZT0ic3Ryb2tlOiMxODE4MTg7c3Ryb2tlLXdpZHRoOjE7Ii8+PGxpbmUgc3R5bGU9InN0cm9rZTojMTgxODE4O3N0cm9rZS13aWR0aDoxOyIgeDE9IjgzOSIgeDI9IjgzOSIgeTE9IjQ2Ny45MDYzIiB5Mj0iNDg3LjkwNjMiLz48cG9seWdvbiBmaWxsPSIjMTgxODE4IiBwb2ludHM9IjgzNSw0NzcuOTA2Myw4MzksNDg3LjkwNjMsODQzLDQ3Ny45MDYzLDgzOSw0ODEuOTA2MyIgc3R5bGU9InN0cm9rZTojMTgxODE4O3N0cm9rZS13aWR0aDoxOyIvPjxsaW5lIHN0eWxlPSJzdHJva2U6IzE4MTgxODtzdHJva2Utd2lkdGg6MTsiIHgxPSI4MzkiIHgyPSI4MzkiIHkxPSI1MjAuNzUiIHkyPSI1NDAuNzUiLz48cG9seWdvbiBmaWxsPSIjMTgxODE4IiBwb2ludHM9IjgzNSw1MzAuNzUsODM5LDU0MC43NSw4NDMsNTMwLjc1LDgzOSw1MzQuNzUiIHN0eWxlPSJzdHJva2U6IzE4MTgxODtzdHJva2Utd2lkdGg6MTsiLz48bGluZSBzdHlsZT0ic3Ryb2tlOiMxODE4MTg7c3Ryb2tlLXdpZHRoOjE7IiB4MT0iNTUzLjI1IiB4Mj0iMzY0IiB5MT0iMzYwLjIxODgiIHkyPSIzNjAuMjE4OCIvPjxsaW5lIHN0eWxlPSJzdHJva2U6IzE4MTgxODtzdHJva2Utd2lkdGg6MTsiIHgxPSIzNjQiIHgyPSIzNjQiIHkxPSIzNjAuMjE4OCIgeTI9IjM4Mi4yMTg4Ii8+PHBvbHlnb24gZmlsbD0iIzE4MTgxOCIgcG9pbnRzPSIzNjAsMzcyLjIxODgsMzY0LDM4Mi4yMTg4LDM2OCwzNzIuMjE4OCwzNjQsMzc2LjIxODgiIHN0eWxlPSJzdHJva2U6IzE4MTgxODtzdHJva2Utd2lkdGg6MTsiLz48bGluZSBzdHlsZT0ic3Ryb2tlOiMxODE4MTg7c3Ryb2tlLXdpZHRoOjE7IiB4MT0iNjU5Ljc1IiB4Mj0iODM5IiB5MT0iMzYwLjIxODgiIHkyPSIzNjAuMjE4OCIvPjxsaW5lIHN0eWxlPSJzdHJva2U6IzE4MTgxODtzdHJva2Utd2lkdGg6MTsiIHgxPSI4MzkiIHgyPSI4MzkiIHkxPSIzNjAuMjE4OCIgeTI9IjM4Mi4yMTg4Ii8+PHBvbHlnb24gZmlsbD0iIzE4MTgxOCIgcG9pbnRzPSI4MzUsMzcyLjIxODgsODM5LDM4Mi4yMTg4LDg0MywzNzIuMjE4OCw4MzksMzc2LjIxODgiIHN0eWxlPSJzdHJva2U6IzE4MTgxODtzdHJva2Utd2lkdGg6MTsiLz48bGluZSBzdHlsZT0ic3Ryb2tlOiMxODE4MTg7c3Ryb2tlLXdpZHRoOjE7IiB4MT0iNjA2LjUiIHgyPSI2MDYuNSIgeTE9IjMyOC4yMTg4IiB5Mj0iMzQ4LjIxODgiLz48cG9seWdvbiBmaWxsPSIjMTgxODE4IiBwb2ludHM9IjYwMi41LDMzOC4yMTg4LDYwNi41LDM0OC4yMTg4LDYxMC41LDMzOC4yMTg4LDYwNi41LDM0Mi4yMTg4IiBzdHlsZT0ic3Ryb2tlOiMxODE4MTg7c3Ryb2tlLXdpZHRoOjE7Ii8+PGxpbmUgc3R5bGU9InN0cm9rZTojMTgxODE4O3N0cm9rZS13aWR0aDoxOyIgeDE9IjEwNDYiIHgyPSIxMDQ2IiB5MT0iMjIyLjUzMTMiIHkyPSIyNDIuNTMxMyIvPjxwb2x5Z29uIGZpbGw9IiMxODE4MTgiIHBvaW50cz0iMTA0MiwyMzIuNTMxMywxMDQ2LDI0Mi41MzEzLDEwNTAsMjMyLjUzMTMsMTA0NiwyMzYuNTMxMyIgc3R5bGU9InN0cm9rZTojMTgxODE4O3N0cm9rZS13aWR0aDoxOyIvPjxsaW5lIHN0eWxlPSJzdHJva2U6IzE4MTgxODtzdHJva2Utd2lkdGg6MTsiIHgxPSIxMDQ2IiB4Mj0iMTA0NiIgeTE9IjI3NS4zNzUiIHkyPSIyOTUuMzc1Ii8+PHBvbHlnb24gZmlsbD0iIzE4MTgxOCIgcG9pbnRzPSIxMDQyLDI4NS4zNzUsMTA0NiwyOTUuMzc1LDEwNTAsMjg1LjM3NSwxMDQ2LDI4OS4zNzUiIHN0eWxlPSJzdHJva2U6IzE4MTgxODtzdHJva2Utd2lkdGg6MTsiLz48bGluZSBzdHlsZT0ic3Ryb2tlOiMxODE4MTg7c3Ryb2tlLXdpZHRoOjE7IiB4MT0iNzgzLjUiIHgyPSI2MDYuNSIgeTE9IjE2Ny42ODc1IiB5Mj0iMTY3LjY4NzUiLz48bGluZSBzdHlsZT0ic3Ryb2tlOiMxODE4MTg7c3Ryb2tlLXdpZHRoOjE7IiB4MT0iNjA2LjUiIHgyPSI2MDYuNSIgeTE9IjE2Ny42ODc1IiB5Mj0iMTg5LjY4NzUiLz48cG9seWdvbiBmaWxsPSIjMTgxODE4IiBwb2ludHM9IjYwMi41LDE3OS42ODc1LDYwNi41LDE4OS42ODc1LDYxMC41LDE3OS42ODc1LDYwNi41LDE4My42ODc1IiBzdHlsZT0ic3Ryb2tlOiMxODE4MTg7c3Ryb2tlLXdpZHRoOjE7Ii8+PGxpbmUgc3R5bGU9InN0cm9rZTojMTgxODE4O3N0cm9rZS13aWR0aDoxOyIgeDE9Ijg3OSIgeDI9IjEwNDYiIHkxPSIxNjcuNjg3NSIgeTI9IjE2Ny42ODc1Ii8+PGxpbmUgc3R5bGU9InN0cm9rZTojMTgxODE4O3N0cm9rZS13aWR0aDoxOyIgeDE9IjEwNDYiIHgyPSIxMDQ2IiB5MT0iMTY3LjY4NzUiIHkyPSIxODkuNjg3NSIvPjxwb2x5Z29uIGZpbGw9IiMxODE4MTgiIHBvaW50cz0iMTA0MiwxNzkuNjg3NSwxMDQ2LDE4OS42ODc1LDEwNTAsMTc5LjY4NzUsMTA0NiwxODMuNjg3NSIgc3R5bGU9InN0cm9rZTojMTgxODE4O3N0cm9rZS13aWR0aDoxOyIvPjxsaW5lIHN0eWxlPSJzdHJva2U6IzE4MTgxODtzdHJva2Utd2lkdGg6MTsiIHgxPSI4MzEuMjUiIHgyPSI4MzEuMjUiIHkxPSIxMzUuNjg3NSIgeTI9IjE1NS42ODc1Ii8+PHBvbHlnb24gZmlsbD0iIzE4MTgxOCIgcG9pbnRzPSI4MjcuMjUsMTQ1LjY4NzUsODMxLjI1LDE1NS42ODc1LDgzNS4yNSwxNDUuNjg3NSw4MzEuMjUsMTQ5LjY4NzUiIHN0eWxlPSJzdHJva2U6IzE4MTgxODtzdHJva2Utd2lkdGg6MTsiLz48IS0tU1JDPVtaTFJSS2ppbTQ3dEZMLW1aXzRCb3E2NjBqaW1tbTQxZmRuVGZSTlBZSXd1a0FWeHhoa0hCUkNUWG80allRc19keERiTFY0ME5EZmxqZ29TN2lRYWlRVy1nR2d2MU1uTGhDYzRkbm8tajNySjMwSWxNNkNYM21ITDFPTHNEd1BtQmtGWVRwbGZOdG91WGw5RTFZdlJ5dkdSYWl0cTlyajRPNHpYcThSb3luZjlzZFQ0bG5zS2ZYSm5VRnFGWmgyQmxzUEpUT01Ubi1uNFNnVzIxRlc4S3BheEI3QXJJRUljNFpvZzVBNjlyTWIyRXpkM18xREg1UDZsMDViQUZZb2Y0SG1BNWdUOS1EcmVWdEplaWxRRE8yWU1PNEFObERfSXF2ZEVEYk9nTFMwVjFpSTBNVjZtVFhuUXlhY1doQmFCYlZkcDhDUHdaaUVPbUlhT0FyRExTTXF0TGZDZmktOENDa1BJaGl5UUFONFlpNjI5RFVaVEIwTFdZY3pENFphR0kxdTdmMHFqQm5ycGRLV3RzWmZJamZJNHctbm9qdlNxU3FmNlJBd3J4cEdMeHZFTGxmQlhBdk9DRE5CSTA4ZXhJS0VfZ3VIc0Q1ZzFoN1oteDh3ZGptRkhsNTNXNXY2Z2ptcWIwdG9WS0RHY1MyVWlnY2NNVzN3cFBmMDc5eGY5RmFyNHE5c3RzYTdCVGNLRVlrU21qWXF3SWtGRXZrWmRtMlppcnNKdUxacDZpc3Zxd3Q0c0VHTGNaSFVQVUFBMDZxNjNMVWJ3OEk1SDVTNjdpSWw4MWg4bmVtWVRXSExUbGdGT1c4aWNDQks4UHBTTGNfVWJ5YW5PMmZDeVFNLUVVNFhoNVZZUXdNS1RsLWtFSHNnaWM4UTE1QXItUmpFOXdaVlkwOFZoNFNjLWlwLWFWeXBiTU85OHlNSXRhRnJhUzBwMlAxY1ltcFZqbWtVdDYzZ0oyZHFiY21HVXVDdU56TWg1RllNSEpQZXpiM01hR3NOSUJFYXNyd3dFQk1tdzNQajYteEhfYWFBa0xvWGpoZldra0t5YURjVlBoWE9hYmQtVEdQZU1fbWMxbHZtWnpPaUx5Z2duSGh4UDllSU4yOERwcE10d0tUaUFWNXcyYWJTTkZQalFoZXprajZQUlBNYV83N3RCbkRWRXRmbUV0bFJUYmxXaUJzTERuVWFhQ0V4M1ZVVWRjY2puWnhGcnFTc3U3X0tYaGV1M0Vydk04cGhNeHF0QUU3NnhjMUthS2tIU0RhN0YyWEJHby1jN1BaV2FFdE4tMHdOLTNDTldFXzF5MF0tLT48L2c+PC9zdmc+;" vertex="1" parent="1">
            <mxGeometry x="-150" y="-540" width="1142" height="1726" as="geometry" />
          </mxCell>
        </UserObject>
      </root>
    </mxGraphModel>
  </diagram>
  <diagram id="a9FX5KFaW5xWMD57TLA1" name="Page-6">
    <mxGraphModel dx="407" dy="603" grid="1" gridSize="10" guides="1" tooltips="1" connect="1" arrows="1" fold="1" page="1" pageScale="1" pageWidth="850" pageHeight="1100" math="0" shadow="0">
      <root>
        <mxCell id="0" />
        <mxCell id="1" parent="0" />
      </root>
    </mxGraphModel>
  </diagram>
</mxfile>
